<?xml version="1.0" encoding="UTF-8" standalone="no"?>
<svg xmlns="http://www.w3.org/2000/svg" xmlns:xlink="http://www.w3.org/1999/xlink" width="20px" height="24px" viewBox="0 0 28 28" version="1.1">
  <g id="surface1">
    <path
       style="stroke:none;fill-rule:nonzero;fill:#A3A3A3;fill-opacity:1"
       d="M 5.601562 1.398438 L 5.601562 4.199219 L 2.800781 4.199219 L 2.800781 7 L 0 7 L 0 8.398438 L 2.800781 8.398438 L 2.800781 9.800781 L 0 9.800781 L 0 11.199219 L 2.800781 11.199219 L 2.800781 12.601562 L 0 12.601562 L 0 14 L 2.800781 14 L 2.800781 15.398438 L 0 15.398438 L 0 16.800781 L 2.800781 16.800781 L 2.800781 18.199219 L 0 18.199219 L 0 19.601562 L 2.800781 19.601562 L 2.800781 21 L 0 21 L 0 22.398438 L 2.800781 22.398438 L 2.800781 25.199219 L 5.601562 25.199219 L 5.601562 28 L 7 28 L 7 25.199219 L 8.398438 25.199219 L 8.398438 28 L 9.800781 28 L 9.800781 25.199219 L 11.199219 25.199219 L 11.199219 28 L 12.601562 28 L 12.601562 25.199219 L 14 25.199219 L 14 28 L 15.398438 28 L 15.398438 25.199219 L 16.800781 25.199219 L 16.800781 28 L 18.199219 28 L 18.199219 25.199219 L 19.601562 25.199219 L 19.601562 28 L 21 28 L 21 25.199219 L 23.800781 25.199219 L 23.800781 22.398438 L 26.601562 22.398438 L 26.601562 21 L 23.800781 21 L 23.800781 19.601562 L 26.601562 19.601562 L 26.601562 18.199219 L 23.800781 18.199219 L 23.800781 16.800781 L 26.601562 16.800781 L 26.601562 15.398438 L 23.800781 15.398438 L 23.800781 14 L 26.601562 14 L 26.601562 12.601562 L 23.800781 12.601562 L 23.800781 11.199219 L 26.601562 11.199219 L 26.601562 9.800781 L 23.800781 9.800781 L 23.800781 8.398438 L 26.601562 8.398438 L 26.601562 7 L 23.800781 7 L 23.800781 6.300781 L 21.699219 4.199219 L 21 4.199219 L 21 1.398438 L 19.601562 1.398438 L 19.601562 4.199219 L 18.199219 4.199219 L 18.199219 1.398438 L 16.800781 1.398438 L 16.800781 4.199219 L 15.398438 4.199219 L 15.398438 1.398438 L 14 1.398438 L 14 4.199219 L 12.601562 4.199219 L 12.601562 1.398438 L 11.199219 1.398438 L 11.199219 4.199219 L 9.800781 4.199219 L 9.800781 1.398438 L 8.398438 1.398438 L 8.398438 4.199219 L 7 4.199219 L 7 1.398438 Z M 4.199219 5.601562 L 21 5.601562 L 22.398438 7 L 22.398438 23.800781 L 4.199219 23.800781 Z M 4.199219 5.601562 "
       id="path1" />
    <path
       style="fill:none;stroke:#A3A3A3;stroke-width:1.5;stroke-linecap:round;stroke-linejoin:round;stroke-miterlimit:4;stroke-opacity:1"
       d="m 18.000691,7.162357 c -0.0617,-0.010988 -0.12854,-0.010988 -0.190239,0 C 17.006826,7.1303156 16.297636,6.733884 15.846068,6.1310861 15.523352,5.7002928 15.332212,5.1641012 15.332212,4.58019 c 0,-1.1464853 0.738616,-2.1160109 1.769234,-2.4540788 0.253453,-0.083139 0.524566,-0.1280882 0.806696,-0.1280882 1.429359,0 2.581072,1.164722 2.581072,2.582167 -0.01028,1.400963 -1.11058,2.527227 -2.488523,2.582167 z"
       transform="matrix(0.759738,0,0,0.711007,4.101542,6.427049)"
       id="path2"
       sodipodi:nodetypes="ccsssscc" />
    <path
       style="fill:none;stroke-width:1.5;stroke-linecap:round;stroke-linejoin:round;stroke:#A3A3A3;stroke-opacity:1;stroke-miterlimit:4"
       d="M 16.972375 14.44187 C 18.340035 14.672617 19.851659 14.430882 20.910824 13.72216 C 22.319616 12.78269 22.319616 11.238884 20.910824 10.299415 C 19.841376 9.590692 18.309185 9.348958 16.941526 9.590692 "
       transform="matrix(0.759738,0,0,0.711007,4.101542,6.427049)"
       id="path3" />
    <path
       style="fill:none;stroke-width:1.5;stroke-linecap:round;stroke-linejoin:round;stroke:#A3A3A3;stroke-opacity:1;stroke-miterlimit:4"
       d="M 5.969399 7.162357 C 6.031098 7.151369 6.097938 7.151369 6.159637 7.162357 C 7.53758 7.107417 8.637878 5.981153 8.637878 4.58019 C 8.637878 3.151757 7.491306 1.998023 6.061947 1.998023 C 4.627447 1.998023 3.480875 3.162745 3.480875 4.58019 C 3.491158 5.981153 4.591456 7.107417 5.969399 7.162357 Z M 5.969399 7.162357 "
       transform="matrix(0.759738,0,0,0.711007,4.101542,6.427049)"
       id="path4" />
    <path
       style="fill:none;stroke-width:1.5;stroke-linecap:round;stroke-linejoin:round;stroke:#A3A3A3;stroke-opacity:1;stroke-miterlimit:4"
       d="M 6.997714 14.44187 C 5.630055 14.672617 4.118431 14.430882 3.059266 13.72216 C 1.650473 12.78269 1.650473 11.238884 3.059266 10.299415 C 4.128714 9.590692 5.660904 9.348958 7.028564 9.590692 "
       transform="matrix(0.759738,0,0,0.711007,4.101542,6.427049)"
       id="path5" />
    <path
       style="fill:none;stroke-width:1.50159048;stroke-linecap:round;stroke-linejoin:round;stroke:#A3A3A3;stroke-opacity:1;stroke-miterlimit:4;stroke-dasharray:none"
       d="M 12.000469 14.628665 C 11.938771 14.617677 11.87193 14.617677 11.810231 14.628665 C 10.432288 14.579219 9.331991 13.447461 9.331991 12.051992 C 9.331991 10.618065 10.478562 9.469825 11.907921 9.469825 C 13.342421 9.469825 14.488993 10.629053 14.488993 12.051992 C 14.47871 13.447461 13.378412 14.590207 12.000469 14.628665 Z M 12.000469 14.628665 "
       transform="matrix(0.759738,0,0,0.711007,4.101542,6.427049)"
       id="path6" />
    <path
       style="fill:none;stroke-width:1.5;stroke-linecap:round;stroke-linejoin:round;stroke:#A3A3A3;stroke-opacity:1;stroke-miterlimit:4"
       d="M 9.090336 17.782205 C 7.681544 18.721674 7.681544 20.259986 9.090336 21.199456 C 10.689367 22.27078 13.311572 22.27078 14.910603 21.199456 C 16.319395 20.259986 16.319395 18.721674 14.910603 17.782205 C 13.321855 16.721868 10.689367 16.721868 9.090336 17.782205 Z M 9.090336 17.782205 "
       transform="matrix(0.759738,0,0,0.711007,4.101542,6.427049)"
       id="path7" />
  </g>
</svg>
