<?xml version="1.0" encoding="UTF-8"?>
<svg xmlns="http://www.w3.org/2000/svg" xmlns:xlink="http://www.w3.org/1999/xlink" width="20px" height="24px" viewBox="0 0 20 24" version="1.1">
<g id="surface1">
<path style=" stroke:none;fill-rule:nonzero;fill:rgb(0%,0%,0%);fill-opacity:1;" d="M 12.488281 17.65625 C 10.90625 15.136719 11.574219 9.269531 15.710938 8.429688 C 16.847656 8.25 18.234375 8.992188 18.644531 10.640625 C 19.679688 14.140625 13.597656 19.039062 12.488281 17.65625 Z M 7.75 17.65625 C 6.640625 19.039062 0.5625 14.140625 1.59375 10.640625 C 2.003906 8.992188 3.394531 8.25 4.527344 8.429688 C 8.664062 9.269531 9.335938 15.136719 7.75 17.65625 Z M 15.152344 2.804688 C 16.046875 2.722656 16.683594 1.773438 16.328125 0.882812 C 15.929688 -0.113281 14.585938 -0.3125 13.917969 0.53125 C 13.367188 1.222656 13.601562 2.203125 14.296875 2.613281 L 13.605469 5.089844 C 10.859375 4.453125 8.953125 4.5 6.332031 5.148438 L 5.648438 2.582031 C 6.417969 2.101562 6.546875 0.972656 5.820312 0.34375 C 5.003906 -0.363281 3.71875 0.078125 3.515625 1.132812 C 3.339844 2.027344 4.046875 2.800781 4.886719 2.800781 L 5.574219 5.375 C 2.902344 6.261719 0 8.191406 0 12.421875 C 0.0585938 18.53125 8.117188 23.996094 9.976562 24 C 11.832031 24 19.953125 18.414062 19.972656 12.421875 C 19.972656 8.125 17.105469 6.199219 14.445312 5.332031 Z M 6.464844 13.574219 C 6.464844 12.59375 5.394531 11.976562 4.542969 12.46875 C 3.691406 12.957031 3.691406 14.1875 4.542969 14.675781 C 5.394531 15.167969 6.464844 14.550781 6.464844 13.574219 Z M 16.253906 13.574219 C 16.253906 12.59375 15.183594 11.976562 14.332031 12.46875 C 13.480469 12.957031 13.480469 14.1875 14.332031 14.675781 C 15.183594 15.167969 16.253906 14.550781 16.253906 13.574219 Z M 16.253906 13.574219 "/>
</g>
</svg>
