<?xml version="1.0"?>
<svg xmlns:xlink="http://www.w3.org/1999/xlink" xmlns="http://www.w3.org/2000/svg" version="1.1" viewBox="0.0 0.0 960.0 720.0" fill="none" stroke="none" stroke-linecap="square" stroke-miterlimit="10">
  <clipPath id="p.0">
    <path d="m0 0l960.0 0l0 720.0l-960.0 0l0 -720.0z" clip-rule="nonzero"/>
  </clipPath>
  <g clip-path="url(#p.0)">
    <path fill="#ffffff" d="m0 0l960.0 0l0 720.0l-960.0 0z" fill-rule="evenodd"/>
    <path fill="#000000" fill-opacity="0.0" d="m149.93439 557.6037l0 0c0 -70.98819 57.54727 -128.53546 128.53543 -128.53546l0 0c34.08972 0 66.7832 13.542084 90.888275 37.647156c24.105072 24.105072 37.647156 56.798584 37.647156 90.888306l0 0c0 70.98816 -57.54727 128.5354 -128.53543 128.5354l0 0c-70.98816 0 -128.53543 -57.54724 -128.53543 -128.5354z" fill-rule="evenodd"/>
    <path stroke="#000000" stroke-width="1.0" stroke-linejoin="round" stroke-linecap="butt" d="m149.93439 557.6037l0 0c0 -70.98819 57.54727 -128.53546 128.53543 -128.53546l0 0c34.08972 0 66.7832 13.542084 90.888275 37.647156c24.105072 24.105072 37.647156 56.798584 37.647156 90.888306l0 0c0 70.98816 -57.54727 128.5354 -128.53543 128.5354l0 0c-70.98816 0 -128.53543 -57.54724 -128.53543 -128.5354z" fill-rule="evenodd"/>
    <path fill="#000000" fill-opacity="0.0" d="m324.6588 121.535835l175.02362 0l0 255.37009l-175.02362 0z" fill-rule="evenodd"/>
    <path stroke="#000000" stroke-width="1.0" stroke-linejoin="round" stroke-linecap="butt" d="m324.6588 121.535835l175.02362 0l0 255.37009l-175.02362 0z" fill-rule="evenodd"/>
    <path fill="#000000" fill-opacity="0.0" d="m769.29456 278.7416l0 -54.992126l37.165344 0l0 54.992126z" fill-rule="evenodd"/>
    <path fill="#202124" d="m784.2496 257.93246l6.484375 6.421875q1.078125 -1.265625 1.078125 -2.953125q0 -1.890625 -1.328125 -3.234375q-1.34375 -1.34375 -3.234375 -1.34375q-1.71875 0 -3.0 1.109375zm5.921875 6.96875l-6.421875 -6.4375q-1.078125 1.28125 -1.078125 2.9375q0 1.890625 1.34375 3.234375q1.34375 1.328125 3.234375 1.328125q1.65625 0 2.921875 -1.0625zm-8.328125 -8.34375l0.5 -0.53125l1.34375 1.34375q1.5 -1.359375 3.5625 -1.359375q2.21875 0 3.796875 1.578125q1.578125 1.578125 1.578125 3.8125q0 2.03125 -1.328125 3.53125l1.4375 1.421875l-0.546875 0.53125l-1.4375 -1.421875q-1.5 1.3125 -3.5 1.3125q-2.234375 0 -3.8125 -1.578125q-1.578125 -1.578125 -1.578125 -3.796875q0 -2.0 1.3125 -3.515625l-1.328125 -1.328125z" fill-rule="nonzero"/>
    <path fill="#000000" d="m783.2496 254.71407l-1.234375 0l0 -6.796875l1.0 0q1.078125 1.0 2.84375 1.984375q1.765625 0.984375 3.625 1.515625q1.328125 0.390625 2.890625 0.5l0 1.328125q-1.234375 -0.03125 -2.984375 -0.484375q-1.765625 -0.46875 -3.390625 -1.34375q-1.625 -0.875 -2.75 -1.84375l0 5.140625zm9.125 -8.760483l-1.46875 0l0 -1.46875l1.46875 0q0.8125 0 1.296875 0.28125q0.5 0.28125 0.78125 0.90625l-0.546875 0.359375q-0.1875 -0.40625 -0.53125 -0.59375q-0.34375 -0.203125 -1.0 -0.21875l0 0.734375zm-2.75 -3.3844757l-0.109375 -1.34375q0.984375 -0.15625 1.484375 -0.703125q0.5 -0.546875 0.5 -1.328125q0 -0.921875 -0.703125 -1.5625q-0.703125 -0.65625 -1.859375 -0.65625q-1.109375 0 -1.734375 0.625q-0.640625 0.625 -0.640625 1.625q0 0.625 0.28125 1.125q0.28125 0.5 0.734375 0.78125l-0.15625 1.203125l-5.390625 -1.015625l0 -5.21875l1.21875 0l0 4.1875l2.828125 0.578125q-0.65625 -0.953125 -0.65625 -1.984375q0 -1.375 0.953125 -2.3125q0.953125 -0.953125 2.4375 -0.953125q1.4375 0 2.46875 0.828125q1.265625 1.015625 1.265625 2.75q0 1.4375 -0.796875 2.34375q-0.796875 0.90625 -2.125 1.03125z" fill-rule="nonzero"/>
    <path fill="#000000" fill-opacity="0.0" d="m499.66666 364.2362l0 -229.54329c0 -5.0354004E-4 2.1362305E-4 -9.918213E-4 5.79834E-4 -0.0013580322c3.3569336E-4 -3.5095215E-4 8.239746E-4 -5.645752E-4 0.0013427734 -5.645752E-4l252.943 0.0019226074c0.0010375977 0 0.0018920898 8.544922E-4 0.0018920898 0.0019073486l-0.0018920898 229.54138l0 0c0 0.0010681152 -8.544922E-4 0.0019226074 -0.001953125 0.0019226074l-252.94296 -0.0019226074l0 0c-0.0010375977 0 -0.0018920898 -8.544922E-4 -0.0018920898 -0.0018920898z" fill-rule="evenodd"/>
    <path stroke="#000000" stroke-width="1.0" stroke-linejoin="round" stroke-linecap="butt" d="m499.66666 364.2362l0 -229.54329c0 -5.0354004E-4 2.1362305E-4 -9.918213E-4 5.79834E-4 -0.0013580322c3.3569336E-4 -3.5095215E-4 8.239746E-4 -5.645752E-4 0.0013427734 -5.645752E-4l252.943 0.0019226074c0.0010375977 0 0.0018920898 8.544922E-4 0.0018920898 0.0019073486l-0.0018920898 229.54138l0 0c0 0.0010681152 -8.544922E-4 0.0019226074 -0.001953125 0.0019226074l-252.94296 -0.0019226074l0 0c-0.0010375977 0 -0.0018920898 -8.544922E-4 -0.0018920898 -0.0018920898z" fill-rule="evenodd"/>
    <path fill="#000000" fill-opacity="0.0" d="m287.4803 152.72179l37.165344 0l0 65.51181l-37.165344 0z" fill-rule="evenodd"/>
    <path stroke="#000000" stroke-width="1.0" stroke-linejoin="round" stroke-linecap="butt" d="m287.4803 152.72179l37.165344 0l0 65.51181l-37.165344 0z" fill-rule="evenodd"/>
    <path fill="#000000" fill-opacity="0.0" d="m287.4807 203.9135l-124.606705 0l0 -29.024094l111.202866 0l0 -8.367096l13.403839 0z" fill-rule="evenodd"/>
    <path stroke="#000000" stroke-width="1.0" stroke-linejoin="round" stroke-linecap="butt" d="m287.4807 203.9135l-124.606705 0l0 -29.024094l111.202866 0l0 -8.367096l13.403839 0z" fill-rule="evenodd"/>
    <path fill="#000000" fill-opacity="0.0" d="m776.0019 224.90294l0 48.56682c0 0.75598145 -0.30029297 1.4810181 -0.8348999 2.015564c-0.5345459 0.5345764 -1.2595825 0.8348999 -2.015564 0.8348999l-20.519592 0c-3.0517578E-4 0 -4.8828125E-4 -2.1362305E-4 -4.8828125E-4 -4.5776367E-4l4.8828125E-4 -54.267273l0 0c0 -2.4414062E-4 1.8310547E-4 -4.4250488E-4 4.272461E-4 -4.4250488E-4l20.519165 4.4250488E-4l0 0c1.5742798 0 2.8504639 1.2761993 2.8504639 2.8504486z" fill-rule="evenodd"/>
    <path stroke="#000000" stroke-width="1.0" stroke-linejoin="round" stroke-linecap="butt" d="m776.0019 224.90294l0 48.56682c0 0.75598145 -0.30029297 1.4810181 -0.8348999 2.015564c-0.5345459 0.5345764 -1.2595825 0.8348999 -2.015564 0.8348999l-20.519592 0c-3.0517578E-4 0 -4.8828125E-4 -2.1362305E-4 -4.8828125E-4 -4.5776367E-4l4.8828125E-4 -54.267273l0 0c0 -2.4414062E-4 1.8310547E-4 -4.4250488E-4 4.272461E-4 -4.4250488E-4l20.519165 4.4250488E-4l0 0c1.5742798 0 2.8504639 1.2761993 2.8504639 2.8504486z" fill-rule="evenodd"/>
    <path fill="#000000" fill-opacity="0.0" d="m769.17365 339.4042l0 2.8796997l0 0c0 1.6229248 -0.64471436 3.1793518 -1.7922974 4.326935c-1.147583 1.147583 -2.7040405 1.7922668 -4.3269043 1.7922668l-10.41626 0c-6.1035156E-5 0 -1.2207031E-4 -6.1035156E-5 -1.2207031E-4 -1.2207031E-4l1.2207031E-4 -15.117981l0 0c0 -6.1035156E-5 6.1035156E-5 -1.2207031E-4 1.2207031E-4 -1.2207031E-4l10.416138 1.2207031E-4l0 0c3.3795166 0 6.1192017 2.7396545 6.1192017 6.1192017z" fill-rule="evenodd"/>
    <path stroke="#000000" stroke-width="1.0" stroke-linejoin="round" stroke-linecap="butt" d="m769.17365 339.4042l0 2.8796997l0 0c0 1.6229248 -0.64471436 3.1793518 -1.7922974 4.326935c-1.147583 1.147583 -2.7040405 1.7922668 -4.3269043 1.7922668l-10.41626 0c-6.1035156E-5 0 -1.2207031E-4 -6.1035156E-5 -1.2207031E-4 -1.2207031E-4l1.2207031E-4 -15.117981l0 0c0 -6.1035156E-5 6.1035156E-5 -1.2207031E-4 1.2207031E-4 -1.2207031E-4l10.416138 1.2207031E-4l0 0c3.3795166 0 6.1192017 2.7396545 6.1192017 6.1192017z" fill-rule="evenodd"/>
    <path fill="#000000" fill-opacity="0.0" d="m769.17365 156.1226l0 2.8796844l0 0c0 1.6229248 -0.64471436 3.179367 -1.7922974 4.326935c-1.147583 1.147583 -2.7040405 1.7922821 -4.3269043 1.7922821l-10.41626 0c-6.1035156E-5 0 -1.2207031E-4 -6.1035156E-5 -1.2207031E-4 -1.373291E-4l1.2207031E-4 -15.117981l0 0c0 -6.1035156E-5 6.1035156E-5 -1.2207031E-4 1.2207031E-4 -1.2207031E-4l10.416138 1.2207031E-4l0 0c3.3795166 0 6.1192017 2.7396698 6.1192017 6.119217z" fill-rule="evenodd"/>
    <path stroke="#000000" stroke-width="1.0" stroke-linejoin="round" stroke-linecap="butt" d="m769.17365 156.1226l0 2.8796844l0 0c0 1.6229248 -0.64471436 3.179367 -1.7922974 4.326935c-1.147583 1.147583 -2.7040405 1.7922821 -4.3269043 1.7922821l-10.41626 0c-6.1035156E-5 0 -1.2207031E-4 -6.1035156E-5 -1.2207031E-4 -1.373291E-4l1.2207031E-4 -15.117981l0 0c0 -6.1035156E-5 6.1035156E-5 -1.2207031E-4 1.2207031E-4 -1.2207031E-4l10.416138 1.2207031E-4l0 0c3.3795166 0 6.1192017 2.7396698 6.1192017 6.119217z" fill-rule="evenodd"/>
    <path fill="#000000" fill-opacity="0.0" d="m778.1109 222.05304l20.0 0" fill-rule="evenodd"/>
    <path stroke="#000000" stroke-width="1.0" stroke-linejoin="round" stroke-linecap="butt" d="m778.1109 222.05304l20.0 0" fill-rule="evenodd"/>
    <path fill="#000000" fill-opacity="0.0" d="m778.1109 276.33685l20.0 0" fill-rule="evenodd"/>
    <path stroke="#000000" stroke-width="1.0" stroke-linejoin="round" stroke-linecap="butt" d="m778.1109 276.33685l20.0 0" fill-rule="evenodd"/>
    <path fill="#000000" fill-opacity="0.0" d="m796.1467 222.59157l0 52.7874" fill-rule="evenodd"/>
    <path stroke="#000000" stroke-width="1.0" stroke-linejoin="round" stroke-linecap="butt" d="m796.1467 226.01866l0 45.933243" fill-rule="evenodd"/>
    <path fill="#000000" stroke="#000000" stroke-width="1.0" stroke-linecap="butt" d="m796.1467 226.01866l1.1245728 1.124588l-1.1245728 -3.0897675l-1.1245728 3.0897675z" fill-rule="evenodd"/>
    <path fill="#000000" stroke="#000000" stroke-width="1.0" stroke-linecap="butt" d="m796.1467 271.9519l-1.1245728 -1.1246033l1.1245728 3.0897827l1.1245728 -3.0897827z" fill-rule="evenodd"/>
    <path fill="#000000" fill-opacity="0.0" d="m756.2047 134.68504l72.315 0" fill-rule="evenodd"/>
    <path stroke="#000000" stroke-width="1.0" stroke-linejoin="round" stroke-linecap="butt" d="m756.2047 134.68504l72.315 0" fill-rule="evenodd"/>
    <path fill="#000000" fill-opacity="0.0" d="m756.2047 364.2362l72.315 0" fill-rule="evenodd"/>
    <path stroke="#000000" stroke-width="1.0" stroke-linejoin="round" stroke-linecap="butt" d="m756.2047 364.2362l72.315 0" fill-rule="evenodd"/>
    <path fill="#000000" fill-opacity="0.0" d="m825.18634 135.18373l0 229.38582" fill-rule="evenodd"/>
    <path stroke="#000000" stroke-width="1.0" stroke-linejoin="round" stroke-linecap="butt" d="m825.18634 138.61081l0 222.53165" fill-rule="evenodd"/>
    <path fill="#000000" stroke="#000000" stroke-width="1.0" stroke-linecap="butt" d="m825.18634 138.61081l1.1245728 1.124588l-1.1245728 -3.0897675l-1.1245728 3.0897675z" fill-rule="evenodd"/>
    <path fill="#000000" stroke="#000000" stroke-width="1.0" stroke-linecap="butt" d="m825.18634 361.14246l-1.1245728 -1.1245728l1.1245728 3.0897827l1.1245728 -3.0897827z" fill-rule="evenodd"/>
    <path fill="#000000" fill-opacity="0.0" d="m798.8781 277.08408l0 -55.08661l37.165344 0l0 55.08661z" fill-rule="evenodd"/>
    <path fill="#202124" d="m813.83307 254.1917l6.484375 6.4218597q1.078125 -1.265625 1.078125 -2.953125q0 -1.8906097 -1.328125 -3.2343597q-1.34375 -1.34375 -3.234375 -1.34375q-1.71875 0 -3.0 1.109375zm5.921875 6.9687347l-6.421875 -6.4374847q-1.078125 1.2812347 -1.078125 2.9374847q0 1.890625 1.34375 3.234375q1.34375 1.328125 3.234375 1.328125q1.65625 0 2.921875 -1.0625zm-8.328125 -8.343735l0.5 -0.53125l1.34375 1.34375q1.5 -1.359375 3.5625 -1.359375q2.21875 0 3.796875 1.578125q1.578125 1.578125 1.578125 3.8124847q0 2.03125 -1.328125 3.53125l1.4375 1.421875l-0.546875 0.53125l-1.4375 -1.421875q-1.5 1.3125 -3.5 1.3125q-2.234375 0 -3.8125 -1.578125q-1.578125 -1.578125 -1.578125 -3.796875q0 -1.9999847 1.3125 -3.5156097l-1.328125 -1.328125z" fill-rule="nonzero"/>
    <path fill="#000000" d="m819.19244 251.05144l-0.171875 -1.296875q1.09375 -0.21875 1.578125 -0.75q0.484375 -0.53125 0.484375 -1.296875q0 -0.90625 -0.625 -1.53125q-0.640625 -0.640625 -1.5625 -0.640625q-0.890625 0 -1.46875 0.59375q-0.578125 0.578125 -0.578125 1.46875q0 0.359375 0.140625 0.90625l-1.125 -0.140625q0.015625 -0.125 0.015625 -0.203125q0 -0.828125 -0.421875 -1.484375q-0.4375 -0.65625 -1.34375 -0.65625q-0.703125 0 -1.15625 0.484375q-0.46875 0.46875 -0.46875 1.234375q0 0.75 0.46875 1.25q0.46875 0.5 1.421875 0.640625l-0.234375 1.28125q-1.296875 -0.234375 -2.0 -1.0625q-0.71875 -0.84375 -0.71875 -2.09375q0 -0.859375 0.375 -1.578125q0.359375 -0.71875 1.0 -1.09375q0.640625 -0.390625 1.34375 -0.390625q0.6875 0 1.25 0.375q0.546875 0.359375 0.875 1.0625q0.21875 -0.921875 0.90625 -1.4375q0.671875 -0.515625 1.6875 -0.515625q1.375 0 2.328125 1.0q0.953125 1.0 0.953125 2.53125q0 1.390625 -0.8125 2.296875q-0.828125 0.90625 -2.140625 1.046875zm0 -8.151108l-0.171875 -1.296875q1.09375 -0.21875 1.578125 -0.75q0.484375 -0.53125 0.484375 -1.296875q0 -0.90625 -0.625 -1.53125q-0.640625 -0.640625 -1.5625 -0.640625q-0.890625 0 -1.46875 0.59375q-0.578125 0.578125 -0.578125 1.46875q0 0.359375 0.140625 0.90625l-1.125 -0.140625q0.015625 -0.125 0.015625 -0.203125q0 -0.828125 -0.421875 -1.484375q-0.4375 -0.65625 -1.34375 -0.65625q-0.703125 0 -1.15625 0.484375q-0.46875 0.46875 -0.46875 1.234375q0 0.75 0.46875 1.25q0.46875 0.5 1.421875 0.640625l-0.234375 1.28125q-1.296875 -0.234375 -2.0 -1.0625q-0.71875 -0.84375 -0.71875 -2.09375q0 -0.859375 0.375 -1.578125q0.359375 -0.71875 1.0 -1.09375q0.640625 -0.390625 1.34375 -0.390625q0.6875 0 1.25 0.375q0.546875 0.359375 0.875 1.0625q0.21875 -0.921875 0.90625 -1.4375q0.671875 -0.515625 1.6875 -0.515625q1.375 0 2.328125 1.0q0.953125 1.0 0.953125 2.53125q0 1.390625 -0.8125 2.296875q-0.828125 0.90625 -2.140625 1.046875z" fill-rule="nonzero"/>
    <path fill="#000000" fill-opacity="0.0" d="m499.6836 117.78985l0 -88.72441" fill-rule="evenodd"/>
    <path stroke="#000000" stroke-width="1.0" stroke-linejoin="round" stroke-linecap="butt" d="m499.6836 117.78985l0 -88.72441" fill-rule="evenodd"/>
    <path fill="#000000" fill-opacity="0.0" d="m752.34644 131.71391l0 -102.645676" fill-rule="evenodd"/>
    <path stroke="#000000" stroke-width="1.0" stroke-linejoin="round" stroke-linecap="butt" d="m752.34644 131.71391l0 -102.645676" fill-rule="evenodd"/>
    <path fill="#000000" fill-opacity="0.0" d="m500.26123 33.07444l252.15747 0" fill-rule="evenodd"/>
    <path stroke="#000000" stroke-width="1.0" stroke-linejoin="round" stroke-linecap="butt" d="m503.68832 33.07444l245.30331 0" fill-rule="evenodd"/>
    <path fill="#000000" stroke="#000000" stroke-width="1.0" stroke-linecap="butt" d="m503.68832 33.07444l1.1245728 -1.1245823l-3.0897522 1.1245823l3.0897522 1.1245842z" fill-rule="evenodd"/>
    <path fill="#000000" stroke="#000000" stroke-width="1.0" stroke-linecap="butt" d="m748.99164 33.07444l-1.1245728 1.1245842l3.0897217 -1.1245842l-3.0897217 -1.1245823z" fill-rule="evenodd"/>
    <path fill="#000000" fill-opacity="0.0" d="m597.26117 6.0656166l56.409424 0l0 37.165356l-56.409424 0z" fill-rule="evenodd"/>
    <path fill="#000000" d="m624.68976 27.911242l0 1.234375l-6.9375 0q-0.015625 -0.46875 0.15625 -0.890625q0.265625 -0.71875 0.84375 -1.40625q0.59375 -0.6875 1.6875 -1.578125q1.71875 -1.40625 2.3125 -2.21875q0.609375 -0.828125 0.609375 -1.5625q0 -0.765625 -0.5625 -1.28125q-0.546875 -0.53125 -1.421875 -0.53125q-0.921875 0 -1.484375 0.5625q-0.5625 0.5625 -0.5625 1.546875l-1.328125 -0.140625q0.140625 -1.484375 1.015625 -2.25q0.890625 -0.78125 2.390625 -0.78125q1.515625 0 2.390625 0.84375q0.875 0.828125 0.875 2.0625q0 0.640625 -0.265625 1.25q-0.25 0.59375 -0.84375 1.265625q-0.59375 0.671875 -1.984375 1.859375q-1.15625 0.96875 -1.484375 1.3125q-0.328125 0.34375 -0.546875 0.703125l5.140625 0zm8.151123 0l0 1.234375l-6.9375 0q-0.015625 -0.46875 0.15625 -0.890625q0.265625 -0.71875 0.84375 -1.40625q0.59375 -0.6875 1.6875 -1.578125q1.71875 -1.40625 2.3125 -2.21875q0.609375 -0.828125 0.609375 -1.5625q0 -0.765625 -0.5625 -1.28125q-0.546875 -0.53125 -1.421875 -0.53125q-0.921875 0 -1.484375 0.5625q-0.5625 0.5625 -0.5625 1.546875l-1.328125 -0.140625q0.140625 -1.484375 1.015625 -2.25q0.890625 -0.78125 2.390625 -0.78125q1.515625 0 2.390625 0.84375q0.875 0.828125 0.875 2.0625q0 0.640625 -0.265625 1.25q-0.25 0.59375 -0.84375 1.265625q-0.59375 0.671875 -1.984375 1.859375q-1.15625 0.96875 -1.484375 1.3125q-0.328125 0.34375 -0.546875 0.703125l5.140625 0z" fill-rule="nonzero"/>
    <path fill="#000000" fill-opacity="0.0" d="m324.6613 117.78985l0 -88.72441" fill-rule="evenodd"/>
    <path stroke="#000000" stroke-width="1.0" stroke-linejoin="round" stroke-linecap="butt" d="m324.6613 117.78985l0 -88.72441" fill-rule="evenodd"/>
    <path fill="#000000" fill-opacity="0.0" d="m325.82535 33.07345l173.5748 0" fill-rule="evenodd"/>
    <path stroke="#000000" stroke-width="1.0" stroke-linejoin="round" stroke-linecap="butt" d="m329.2524 33.07345l166.72064 0" fill-rule="evenodd"/>
    <path fill="#000000" stroke="#000000" stroke-width="1.0" stroke-linecap="butt" d="m329.2524 33.07345l1.1246033 -1.1245842l-3.0897827 1.1245842l3.0897827 1.1245842z" fill-rule="evenodd"/>
    <path fill="#000000" stroke="#000000" stroke-width="1.0" stroke-linecap="butt" d="m495.97305 33.07345l-1.1245728 1.1245842l3.0897522 -1.1245842l-3.0897522 -1.1245842z" fill-rule="evenodd"/>
    <path fill="#000000" fill-opacity="0.0" d="m386.5416 5.4908137l51.275574 0l0 37.16535l-51.275574 0z" fill-rule="evenodd"/>
    <path fill="#000000" d="m405.29175 27.33644l0 1.234375l-6.9375 0q-0.015625 -0.46875 0.15625 -0.890625q0.265625 -0.71875 0.84375 -1.40625q0.59375 -0.6875 1.6875 -1.578125q1.71875 -1.40625 2.3125 -2.21875q0.609375 -0.828125 0.609375 -1.5625q0 -0.765625 -0.5625 -1.28125q-0.546875 -0.53125 -1.421875 -0.53125q-0.921875 0 -1.484375 0.5625q-0.5625 0.5625 -0.5625 1.546875l-1.328125 -0.140625q0.140625 -1.484375 1.015625 -2.25q0.890625 -0.78125 2.390625 -0.78125q1.515625 0 2.390625 0.84375q0.875 0.828125 0.875 2.0625q0 0.640625 -0.265625 1.25q-0.25 0.59375 -0.84375 1.265625q-0.59375 0.671875 -1.984375 1.859375q-1.15625 0.96875 -1.484375 1.3125q-0.328125 0.34375 -0.546875 0.703125l5.140625 0zm6.2292175 1.234375l-1.28125 0l0 -8.203125q-0.46875 0.4375 -1.21875 0.890625q-0.75 0.4375 -1.359375 0.65625l0 -1.25q1.078125 -0.5 1.890625 -1.21875q0.8125 -0.734375 1.140625 -1.40625l0.828125 0l0 10.53125zm3.994873 0l0 -1.46875l1.46875 0l0 1.46875q0 0.8125 -0.28125 1.296875q-0.28125 0.5 -0.90625 0.78125l-0.359375 -0.546875q0.40625 -0.1875 0.59375 -0.53125q0.203125 -0.34375 0.21875 -1.0l-0.734375 0zm3.3844604 -2.75l1.34375 -0.109375q0.15625 0.984375 0.703125 1.484375q0.546875 0.5 1.328125 0.5q0.921875 0 1.5625 -0.703125q0.65625 -0.703125 0.65625 -1.859375q0 -1.109375 -0.625 -1.734375q-0.625 -0.640625 -1.625 -0.640625q-0.625 0 -1.125 0.28125q-0.5 0.28125 -0.78125 0.734375l-1.203125 -0.15625l1.015625 -5.390625l5.21875 0l0 1.21875l-4.1875 0l-0.578125 2.828125q0.953125 -0.65625 1.984375 -0.65625q1.375 0 2.3125 0.953125q0.953125 0.953125 0.953125 2.4375q0 1.4375 -0.828125 2.46875q-1.015625 1.265625 -2.75 1.265625q-1.4375 0 -2.34375 -0.796875q-0.90625 -0.796875 -1.03125 -2.125z" fill-rule="nonzero"/>
    <path fill="#000000" fill-opacity="0.0" d="m509.41733 218.27559l233.48032 0l0 64.62993l-233.48032 0z" fill-rule="evenodd"/>
    <path fill="#000000" d="m569.7387 240.50809l1.765625 0.453125q-0.5625 2.171875 -2.0 3.328125q-1.4375 1.140625 -3.53125 1.140625q-2.15625 0 -3.515625 -0.875q-1.34375 -0.890625 -2.0625 -2.546875q-0.703125 -1.671875 -0.703125 -3.59375q0 -2.078125 0.796875 -3.625q0.796875 -1.5625 2.265625 -2.359375q1.484375 -0.8125 3.25 -0.8125q2.0 0 3.359375 1.015625q1.375 1.015625 1.90625 2.875l-1.734375 0.40625q-0.46875 -1.453125 -1.359375 -2.109375q-0.875 -0.671875 -2.203125 -0.671875q-1.546875 0 -2.578125 0.734375q-1.03125 0.734375 -1.453125 1.984375q-0.421875 1.234375 -0.421875 2.5625q0 1.703125 0.5 2.96875q0.5 1.265625 1.546875 1.90625q1.046875 0.625 2.265625 0.625q1.484375 0 2.515625 -0.859375q1.03125 -0.859375 1.390625 -2.546875zm4.0042114 4.6875l0 -13.359375l1.765625 0l0 5.484375l6.9375 0l0 -5.484375l1.765625 0l0 13.359375l-1.765625 0l0 -6.296875l-6.9375 0l0 6.296875l-1.765625 0zm13.441711 0l0 -13.359375l5.921875 0q1.78125 0 2.703125 0.359375q0.9375 0.359375 1.484375 1.28125q0.5625 0.90625 0.5625 2.015625q0 1.40625 -0.921875 2.390625q-0.921875 0.96875 -2.84375 1.234375q0.703125 0.34375 1.078125 0.671875q0.765625 0.703125 1.453125 1.765625l2.328125 3.640625l-2.21875 0l-1.765625 -2.78125q-0.78125 -1.203125 -1.28125 -1.828125q-0.5 -0.640625 -0.90625 -0.890625q-0.390625 -0.265625 -0.796875 -0.359375q-0.296875 -0.078125 -0.984375 -0.078125l-2.046875 0l0 5.9375l-1.765625 0zm1.765625 -7.453125l3.796875 0q1.21875 0 1.890625 -0.25q0.6875 -0.265625 1.046875 -0.8125q0.359375 -0.546875 0.359375 -1.1875q0 -0.953125 -0.6875 -1.5625q-0.6875 -0.609375 -2.1875 -0.609375l-4.21875 0l0 4.421875zm10.832336 3.4375l0 -1.640625l5.03125 0l0 1.640625l-5.03125 0zm13.3063965 -1.21875l0 -1.578125l5.65625 0l0 4.953125q-1.296875 1.046875 -2.6875 1.578125q-1.375 0.515625 -2.84375 0.515625q-1.96875 0 -3.578125 -0.84375q-1.609375 -0.84375 -2.421875 -2.4375q-0.8125 -1.59375 -0.8125 -3.5625q0 -1.953125 0.8125 -3.640625q0.8125 -1.6875 2.34375 -2.5q1.53125 -0.828125 3.515625 -0.828125q1.453125 0 2.625 0.46875q1.171875 0.46875 1.828125 1.3125q0.671875 0.828125 1.015625 2.171875l-1.59375 0.4375q-0.296875 -1.015625 -0.75 -1.59375q-0.4375 -0.59375 -1.265625 -0.9375q-0.828125 -0.34375 -1.84375 -0.34375q-1.203125 0 -2.09375 0.375q-0.890625 0.359375 -1.4375 0.96875q-0.53125 0.59375 -0.828125 1.3125q-0.515625 1.234375 -0.515625 2.6875q0 1.78125 0.609375 2.984375q0.625 1.203125 1.796875 1.796875q1.171875 0.578125 2.5 0.578125q1.140625 0 2.234375 -0.4375q1.09375 -0.453125 1.65625 -0.953125l0 -2.484375l-3.921875 0zm8.214539 5.234375l0 -13.359375l2.65625 0l3.15625 9.453125q0.4375 1.328125 0.640625 1.984375q0.234375 -0.734375 0.703125 -2.140625l3.203125 -9.296875l2.375 0l0 13.359375l-1.703125 0l0 -11.171875l-3.875 11.171875l-1.59375 0l-3.859375 -11.375l0 11.375l-1.703125 0zm14.9314575 -3.53125l1.640625 -0.21875q0.28125 1.40625 0.953125 2.015625q0.6875 0.609375 1.65625 0.609375q1.15625 0 1.953125 -0.796875q0.796875 -0.796875 0.796875 -1.984375q0 -1.125 -0.734375 -1.859375q-0.734375 -0.734375 -1.875 -0.734375q-0.46875 0 -1.15625 0.171875l0.1875 -1.4375q0.15625 0.015625 0.265625 0.015625q1.046875 0 1.875 -0.546875q0.84375 -0.546875 0.84375 -1.671875q0 -0.90625 -0.609375 -1.5q-0.609375 -0.59375 -1.578125 -0.59375q-0.953125 0 -1.59375 0.609375q-0.640625 0.59375 -0.8125 1.796875l-1.640625 -0.296875q0.296875 -1.640625 1.359375 -2.546875q1.0625 -0.90625 2.65625 -0.90625q1.09375 0 2.0 0.46875q0.921875 0.46875 1.40625 1.28125q0.5 0.8125 0.5 1.71875q0 0.859375 -0.46875 1.578125q-0.46875 0.703125 -1.375 1.125q1.1875 0.28125 1.84375 1.140625q0.65625 0.859375 0.65625 2.15625q0 1.734375 -1.28125 2.953125q-1.265625 1.21875 -3.21875 1.21875q-1.765625 0 -2.921875 -1.046875q-1.15625 -1.046875 -1.328125 -2.71875zm10.485046 -8.078125l0 -1.578125l8.640625 0l0 1.28125q-1.28125 1.359375 -2.53125 3.609375q-1.25 2.25 -1.9375 4.625q-0.484375 1.671875 -0.625 3.671875l-1.6875 0q0.03125 -1.578125 0.625 -3.8125q0.59375 -2.234375 1.6875 -4.296875q1.109375 -2.078125 2.359375 -3.5l-6.53125 0zm10.078857 7.59375l0 -1.640625l5.03125 0l0 1.640625l-5.03125 0zm6.4002075 0.515625l1.71875 -0.140625q0.1875 1.25 0.875 1.890625q0.703125 0.625 1.6875 0.625q1.1875 0 2.0 -0.890625q0.828125 -0.890625 0.828125 -2.359375q0 -1.40625 -0.796875 -2.21875q-0.78125 -0.8125 -2.0625 -0.8125q-0.78125 0 -1.421875 0.359375q-0.640625 0.359375 -1.0 0.9375l-1.546875 -0.203125l1.296875 -6.859375l6.640625 0l0 1.5625l-5.328125 0l-0.71875 3.59375q1.203125 -0.84375 2.515625 -0.84375q1.75 0 2.953125 1.21875q1.203125 1.203125 1.203125 3.109375q0 1.8125 -1.046875 3.140625q-1.296875 1.625 -3.515625 1.625q-1.8125 0 -2.96875 -1.015625q-1.15625 -1.03125 -1.3125 -2.71875zm18.985046 1.921875l0 1.578125l-8.828125 0q-0.015625 -0.59375 0.1875 -1.140625q0.34375 -0.90625 1.078125 -1.78125q0.75 -0.875 2.15625 -2.015625q2.171875 -1.78125 2.9375 -2.828125q0.765625 -1.046875 0.765625 -1.96875q0 -0.984375 -0.703125 -1.640625q-0.6875 -0.671875 -1.8125 -0.671875q-1.1875 0 -1.90625 0.71875q-0.703125 0.703125 -0.703125 1.953125l-1.6875 -0.171875q0.171875 -1.890625 1.296875 -2.875q1.140625 -0.984375 3.03125 -0.984375q1.921875 0 3.046875 1.0625q1.125 1.0625 1.125 2.640625q0 0.796875 -0.328125 1.578125q-0.328125 0.78125 -1.09375 1.640625q-0.75 0.84375 -2.53125 2.34375q-1.46875 1.234375 -1.890625 1.6875q-0.421875 0.4375 -0.6875 0.875l6.546875 0zm1.7663574 -5.015625q0 -2.359375 0.484375 -3.796875q0.484375 -1.453125 1.4375 -2.234375q0.96875 -0.78125 2.421875 -0.78125q1.078125 0 1.890625 0.4375q0.8125 0.421875 1.328125 1.25q0.53125 0.8125 0.828125 1.984375q0.3125 1.15625 0.3125 3.140625q0 2.359375 -0.484375 3.8125q-0.484375 1.4375 -1.453125 2.234375q-0.953125 0.78125 -2.421875 0.78125q-1.921875 0 -3.03125 -1.390625q-1.3125 -1.671875 -1.3125 -5.4375zm1.671875 0q0 3.296875 0.765625 4.390625q0.78125 1.078125 1.90625 1.078125q1.140625 0 1.90625 -1.09375q0.765625 -1.09375 0.765625 -4.375q0 -3.296875 -0.765625 -4.375q-0.765625 -1.078125 -1.921875 -1.078125q-1.125 0 -1.796875 0.953125q-0.859375 1.21875 -0.859375 4.5z" fill-rule="nonzero"/>
    <path fill="#000000" d="m525.75525 267.59558l0 -11.78125l-4.40625 0l0 -1.578125l10.578125 0l0 1.578125l-4.40625 0l0 11.78125l-1.765625 0zm5.1082153 -4.84375q0 -2.6875 1.484375 -3.96875q1.25 -1.078125 3.046875 -1.078125q2.0 0 3.265625 1.3125q1.265625 1.296875 1.265625 3.609375q0 1.859375 -0.5625 2.9375q-0.5625 1.0625 -1.640625 1.65625q-1.0625 0.59375 -2.328125 0.59375q-2.03125 0 -3.28125 -1.296875q-1.25 -1.3125 -1.25 -3.765625zm1.6875 0q0 1.859375 0.796875 2.796875q0.8125 0.921875 2.046875 0.921875q1.21875 0 2.03125 -0.921875q0.8125 -0.9375 0.8125 -2.84375q0 -1.796875 -0.8125 -2.71875q-0.8125 -0.921875 -2.03125 -0.921875q-1.234375 0 -2.046875 0.921875q-0.796875 0.90625 -0.796875 2.765625zm12.875732 3.375l0.234375 1.453125q-0.6875 0.140625 -1.234375 0.140625q-0.890625 0 -1.390625 -0.28125q-0.484375 -0.28125 -0.6875 -0.734375q-0.203125 -0.46875 -0.203125 -1.9375l0 -5.578125l-1.203125 0l0 -1.265625l1.203125 0l0 -2.390625l1.625 -0.984375l0 3.375l1.65625 0l0 1.265625l-1.65625 0l0 5.671875q0 0.6875 0.078125 0.890625q0.09375 0.203125 0.28125 0.328125q0.203125 0.109375 0.578125 0.109375q0.265625 0 0.71875 -0.0625zm8.230164 -1.640625l1.6875 0.203125q-0.40625 1.484375 -1.484375 2.3125q-1.078125 0.8125 -2.765625 0.8125q-2.125 0 -3.375 -1.296875q-1.234375 -1.3125 -1.234375 -3.671875q0 -2.453125 1.25 -3.796875q1.265625 -1.34375 3.265625 -1.34375q1.9375 0 3.15625 1.328125q1.234375 1.3125 1.234375 3.703125q0 0.15625 0 0.4375l-7.21875 0q0.09375 1.59375 0.90625 2.453125q0.8125 0.84375 2.015625 0.84375q0.90625 0 1.546875 -0.46875q0.640625 -0.484375 1.015625 -1.515625zm-5.390625 -2.65625l5.40625 0q-0.109375 -1.21875 -0.625 -1.828125q-0.78125 -0.953125 -2.03125 -0.953125q-1.125 0 -1.90625 0.765625q-0.765625 0.75 -0.84375 2.015625zm9.141357 5.765625l0 -9.671875l1.46875 0l0 1.359375q0.453125 -0.71875 1.203125 -1.140625q0.765625 -0.4375 1.71875 -0.4375q1.078125 0 1.765625 0.453125q0.6875 0.4375 0.96875 1.234375q1.15625 -1.6875 2.984375 -1.6875q1.453125 0 2.21875 0.796875q0.78125 0.796875 0.78125 2.453125l0 6.640625l-1.640625 0l0 -6.09375q0 -0.984375 -0.15625 -1.40625q-0.15625 -0.4375 -0.578125 -0.703125q-0.421875 -0.265625 -0.984375 -0.265625q-1.015625 0 -1.6875 0.6875q-0.671875 0.671875 -0.671875 2.15625l0 5.625l-1.640625 0l0 -6.28125q0 -1.09375 -0.40625 -1.640625q-0.40625 -0.546875 -1.3125 -0.546875q-0.6875 0 -1.28125 0.359375q-0.59375 0.359375 -0.859375 1.0625q-0.25 0.703125 -0.25 2.03125l0 5.015625l-1.640625 0zm20.927185 0l0 -13.359375l4.609375 0q1.546875 0 2.375 0.203125q1.140625 0.25 1.953125 0.953125q1.0625 0.890625 1.578125 2.28125q0.53125 1.390625 0.53125 3.171875q0 1.515625 -0.359375 2.703125q-0.359375 1.171875 -0.921875 1.9375q-0.546875 0.765625 -1.203125 1.21875q-0.65625 0.4375 -1.59375 0.671875q-0.9375 0.21875 -2.140625 0.21875l-4.828125 0zm1.765625 -1.578125l2.859375 0q1.3125 0 2.0625 -0.234375q0.75 -0.25 1.203125 -0.703125q0.625 -0.625 0.96875 -1.6875q0.359375 -1.0625 0.359375 -2.578125q0 -2.09375 -0.6875 -3.21875q-0.6875 -1.125 -1.671875 -1.5q-0.703125 -0.28125 -2.28125 -0.28125l-2.8125 0l0 10.203125zm21.238586 -3.109375l1.765625 0.453125q-0.5625 2.171875 -2.0 3.328125q-1.4375 1.140625 -3.53125 1.140625q-2.15625 0 -3.515625 -0.875q-1.34375 -0.890625 -2.0625 -2.546875q-0.703125 -1.671875 -0.703125 -3.59375q0 -2.078125 0.796875 -3.625q0.796875 -1.5625 2.265625 -2.359375q1.484375 -0.8125 3.25 -0.8125q2.0 0 3.359375 1.015625q1.375 1.015625 1.90625 2.875l-1.734375 0.40625q-0.46875 -1.453125 -1.359375 -2.109375q-0.875 -0.671875 -2.203125 -0.671875q-1.546875 0 -2.578125 0.734375q-1.03125 0.734375 -1.453125 1.984375q-0.421875 1.234375 -0.421875 2.5625q0 1.703125 0.5 2.96875q0.5 1.265625 1.546875 1.90625q1.046875 0.625 2.265625 0.625q1.484375 0 2.515625 -0.859375q1.03125 -0.859375 1.390625 -2.546875zm14.640625 4.6875l-1.640625 0l0 -10.453125q-0.59375 0.5625 -1.5625 1.140625q-0.953125 0.5625 -1.71875 0.84375l0 -1.59375q1.375 -0.640625 2.40625 -1.5625q1.03125 -0.921875 1.453125 -1.78125l1.0625 0l0 13.40625zm12.813232 -1.578125l0 1.578125l-8.828125 0q-0.015625 -0.59375 0.1875 -1.140625q0.34375 -0.90625 1.078125 -1.78125q0.75 -0.875 2.15625 -2.015625q2.171875 -1.78125 2.9375 -2.828125q0.765625 -1.046875 0.765625 -1.96875q0 -0.984375 -0.703125 -1.640625q-0.6875 -0.671875 -1.8125 -0.671875q-1.1875 0 -1.90625 0.71875q-0.703125 0.703125 -0.703125 1.953125l-1.6875 -0.171875q0.171875 -1.890625 1.296875 -2.875q1.140625 -0.984375 3.03125 -0.984375q1.921875 0 3.046875 1.0625q1.125 1.0625 1.125 2.640625q0 0.796875 -0.328125 1.578125q-0.328125 0.78125 -1.09375 1.640625q-0.75 0.84375 -2.53125 2.34375q-1.46875 1.234375 -1.890625 1.6875q-0.421875 0.4375 -0.6875 0.875l6.546875 0zm2.6726074 1.578125l0 -1.875l1.875 0l0 1.875l-1.875 0zm4.2770386 -6.59375q0 -2.359375 0.484375 -3.796875q0.484375 -1.453125 1.4375 -2.234375q0.96875 -0.78125 2.421875 -0.78125q1.078125 0 1.890625 0.4375q0.8125 0.421875 1.328125 1.25q0.53125 0.8125 0.828125 1.984375q0.3125 1.15625 0.3125 3.140625q0 2.359375 -0.484375 3.8125q-0.484375 1.4375 -1.453125 2.234375q-0.953125 0.78125 -2.421875 0.78125q-1.921875 0 -3.03125 -1.390625q-1.3125 -1.671875 -1.3125 -5.4375zm1.671875 0q0 3.296875 0.765625 4.390625q0.78125 1.078125 1.90625 1.078125q1.140625 0 1.90625 -1.09375q0.765625 -1.09375 0.765625 -4.375q0 -3.296875 -0.765625 -4.375q-0.765625 -1.078125 -1.921875 -1.078125q-1.125 0 -1.796875 0.953125q-0.859375 1.21875 -0.859375 4.5zm13.172546 6.59375l-5.171875 -13.359375l1.921875 0l3.46875 9.703125q0.421875 1.171875 0.703125 2.1875q0.3125 -1.09375 0.71875 -2.1875l3.609375 -9.703125l1.796875 0l-5.234375 13.359375l-1.8125 0zm21.767517 -1.578125l0 1.578125l-8.828125 0q-0.015625 -0.59375 0.1875 -1.140625q0.34375 -0.90625 1.078125 -1.78125q0.75 -0.875 2.15625 -2.015625q2.171875 -1.78125 2.9375 -2.828125q0.765625 -1.046875 0.765625 -1.96875q0 -0.984375 -0.703125 -1.640625q-0.6875 -0.671875 -1.8125 -0.671875q-1.1875 0 -1.90625 0.71875q-0.703125 0.703125 -0.703125 1.953125l-1.6875 -0.171875q0.171875 -1.890625 1.296875 -2.875q1.140625 -0.984375 3.03125 -0.984375q1.921875 0 3.046875 1.0625q1.125 1.0625 1.125 2.640625q0 0.796875 -0.328125 1.578125q-0.328125 0.78125 -1.09375 1.640625q-0.75 0.84375 -2.53125 2.34375q-1.46875 1.234375 -1.890625 1.6875q-0.421875 0.4375 -0.6875 0.875l6.546875 0zm7.0163574 1.578125l0 -3.203125l-5.796875 0l0 -1.5l6.09375 -8.65625l1.34375 0l0 8.65625l1.796875 0l0 1.5l-1.796875 0l0 3.203125l-1.640625 0zm0 -4.703125l0 -6.015625l-4.1875 6.015625l4.1875 0zm5.1257324 1.203125l1.71875 -0.140625q0.1875 1.25 0.875 1.890625q0.703125 0.625 1.6875 0.625q1.1875 0 2.0 -0.890625q0.828125 -0.890625 0.828125 -2.359375q0 -1.40625 -0.796875 -2.21875q-0.78125 -0.8125 -2.0625 -0.8125q-0.78125 0 -1.421875 0.359375q-0.640625 0.359375 -1.0 0.9375l-1.546875 -0.203125l1.296875 -6.859375l6.640625 0l0 1.5625l-5.328125 0l-0.71875 3.59375q1.203125 -0.84375 2.515625 -0.84375q1.75 0 2.953125 1.21875q1.203125 1.203125 1.203125 3.109375q0 1.8125 -1.046875 3.140625q-1.296875 1.625 -3.515625 1.625q-1.8125 0 -2.96875 -1.015625q-1.15625 -1.03125 -1.3125 -2.71875zm15.996521 3.5l0 -9.671875l1.46875 0l0 1.46875q0.5625 -1.03125 1.03125 -1.359375q0.484375 -0.328125 1.0625 -0.328125q0.828125 0 1.6875 0.53125l-0.5625 1.515625q-0.609375 -0.359375 -1.203125 -0.359375q-0.546875 0 -0.96875 0.328125q-0.421875 0.328125 -0.609375 0.890625q-0.28125 0.875 -0.28125 1.921875l0 5.0625l-1.625 0zm6.2282715 3.703125l0 -13.375l1.484375 0l0 1.25q0.53125 -0.734375 1.1875 -1.09375q0.671875 -0.375 1.625 -0.375q1.234375 0 2.171875 0.640625q0.953125 0.625 1.4375 1.796875q0.484375 1.15625 0.484375 2.546875q0 1.484375 -0.53125 2.671875q-0.53125 1.1875 -1.546875 1.828125q-1.015625 0.625 -2.140625 0.625q-0.8125 0 -1.46875 -0.34375q-0.65625 -0.34375 -1.0625 -0.875l0 4.703125l-1.640625 0zm1.484375 -8.484375q0 1.859375 0.75 2.765625q0.765625 0.890625 1.828125 0.890625q1.09375 0 1.875 -0.921875q0.78125 -0.9375 0.78125 -2.875q0 -1.84375 -0.765625 -2.765625q-0.75 -0.921875 -1.8125 -0.921875q-1.046875 0 -1.859375 0.984375q-0.796875 0.96875 -0.796875 2.84375zm8.891357 4.78125l0 -9.671875l1.46875 0l0 1.359375q0.453125 -0.71875 1.203125 -1.140625q0.765625 -0.4375 1.71875 -0.4375q1.078125 0 1.765625 0.453125q0.6875 0.4375 0.96875 1.234375q1.15625 -1.6875 2.984375 -1.6875q1.453125 0 2.21875 0.796875q0.78125 0.796875 0.78125 2.453125l0 6.640625l-1.640625 0l0 -6.09375q0 -0.984375 -0.15625 -1.40625q-0.15625 -0.4375 -0.578125 -0.703125q-0.421875 -0.265625 -0.984375 -0.265625q-1.015625 0 -1.6875 0.6875q-0.671875 0.671875 -0.671875 2.15625l0 5.625l-1.640625 0l0 -6.28125q0 -1.09375 -0.40625 -1.640625q-0.40625 -0.546875 -1.3125 -0.546875q-0.6875 0 -1.28125 0.359375q-0.59375 0.359375 -0.859375 1.0625q-0.25 0.703125 -0.25 2.03125l0 5.015625l-1.640625 0z" fill-rule="nonzero"/>
    <path fill="#000000" fill-opacity="0.0" d="m162.87401 164.49081l0 -135.33858" fill-rule="evenodd"/>
    <path stroke="#000000" stroke-width="1.0" stroke-linejoin="round" stroke-linecap="butt" d="m162.87401 164.49081l0 -135.33858" fill-rule="evenodd"/>
    <path fill="#000000" fill-opacity="0.0" d="m163.80676 33.149605l160.75589 0" fill-rule="evenodd"/>
    <path stroke="#000000" stroke-width="1.0" stroke-linejoin="round" stroke-linecap="butt" d="m167.23384 33.149605l153.90175 0" fill-rule="evenodd"/>
    <path fill="#000000" stroke="#000000" stroke-width="1.0" stroke-linecap="butt" d="m167.23384 33.149605l1.124588 -1.1245804l-3.0897675 1.1245804l3.0897675 1.1245842z" fill-rule="evenodd"/>
    <path fill="#000000" stroke="#000000" stroke-width="1.0" stroke-linecap="butt" d="m321.1356 33.149605l-1.1246033 1.1245842l3.0897827 -1.1245842l-3.0897827 -1.1245804z" fill-rule="evenodd"/>
    <path fill="#000000" fill-opacity="0.0" d="m193.78741 6.0656166l79.212585 0l0 37.165356l-79.212585 0z" fill-rule="evenodd"/>
    <path fill="#000000" d="m210.16241 27.911242l0 1.234375l-6.9375 0q-0.015625 -0.46875 0.15625 -0.890625q0.265625 -0.71875 0.84375 -1.40625q0.59375 -0.6875 1.6875 -1.578125q1.71875 -1.40625 2.3125 -2.21875q0.609375 -0.828125 0.609375 -1.5625q0 -0.765625 -0.5625 -1.28125q-0.546875 -0.53125 -1.421875 -0.53125q-0.921875 0 -1.484375 0.5625q-0.5625 0.5625 -0.5625 1.546875l-1.328125 -0.140625q0.140625 -1.484375 1.015625 -2.25q0.890625 -0.78125 2.390625 -0.78125q1.515625 0 2.390625 0.84375q0.875 0.828125 0.875 2.0625q0 0.640625 -0.265625 1.25q-0.25 0.59375 -0.84375 1.265625q-0.59375 0.671875 -1.984375 1.859375q-1.15625 0.96875 -1.484375 1.3125q-0.328125 0.34375 -0.546875 0.703125l5.140625 0zm6.229233 1.234375l-1.28125 0l0 -8.203125q-0.46875 0.4375 -1.21875 0.890625q-0.75 0.4375 -1.359375 0.65625l0 -1.25q1.078125 -0.5 1.890625 -1.21875q0.8125 -0.734375 1.140625 -1.40625l0.828125 0l0 10.53125zm3.9948578 0l0 -1.46875l1.46875 0l0 1.46875q0 0.8125 -0.28125 1.296875q-0.28125 0.5 -0.90625 0.78125l-0.359375 -0.546875q0.40625 -0.1875 0.59375 -0.53125q0.203125 -0.34375 0.21875 -1.0l-0.734375 0zm3.3844757 -5.171875q0 -1.859375 0.375 -2.984375q0.390625 -1.140625 1.140625 -1.75q0.765625 -0.625 1.90625 -0.625q0.84375 0 1.46875 0.34375q0.640625 0.328125 1.0625 0.96875q0.421875 0.640625 0.65625 1.5625q0.234375 0.921875 0.234375 2.484375q0 1.84375 -0.390625 2.984375q-0.375 1.125 -1.125 1.75q-0.75 0.609375 -1.90625 0.609375q-1.515625 0 -2.390625 -1.078125q-1.03125 -1.3125 -1.03125 -4.265625zm1.328125 0q0 2.578125 0.59375 3.4375q0.609375 0.859375 1.5 0.859375q0.890625 0 1.484375 -0.859375q0.609375 -0.859375 0.609375 -3.4375q0 -2.59375 -0.609375 -3.4375q-0.59375 -0.859375 -1.5 -0.859375q-0.890625 0 -1.421875 0.75q-0.65625 0.96875 -0.65625 3.546875zm9.619858 3.3125l0 -2.890625l-2.84375 0l0 -1.1875l2.84375 0l0 -2.859375l1.21875 0l0 2.859375l2.859375 0l0 1.1875l-2.859375 0l0 2.890625l-1.21875 0zm4.078125 1.859375l-6.921875 0l0 -1.203125l6.921875 0l0 1.203125zm1.1687622 -5.171875q0 -1.859375 0.375 -2.984375q0.390625 -1.140625 1.140625 -1.75q0.765625 -0.625 1.90625 -0.625q0.84375 0 1.46875 0.34375q0.640625 0.328125 1.0625 0.96875q0.421875 0.640625 0.65625 1.5625q0.234375 0.921875 0.234375 2.484375q0 1.84375 -0.390625 2.984375q-0.375 1.125 -1.125 1.75q-0.75 0.609375 -1.90625 0.609375q-1.515625 0 -2.390625 -1.078125q-1.03125 -1.3125 -1.03125 -4.265625zm1.328125 0q0 2.578125 0.59375 3.4375q0.609375 0.859375 1.5 0.859375q0.890625 0 1.484375 -0.859375q0.609375 -0.859375 0.609375 -3.4375q0 -2.59375 -0.609375 -3.4375q-0.59375 -0.859375 -1.5 -0.859375q-0.890625 0 -1.421875 0.75q-0.65625 0.96875 -0.65625 3.546875zm7.510483 5.171875l0 -1.46875l1.46875 0l0 1.46875q0 0.8125 -0.28125 1.296875q-0.28125 0.5 -0.90625 0.78125l-0.359375 -0.546875q0.40625 -0.1875 0.59375 -0.53125q0.203125 -0.34375 0.21875 -1.0l-0.734375 0zm3.3844757 -2.75l1.34375 -0.109375q0.15625 0.984375 0.703125 1.484375q0.546875 0.5 1.328125 0.5q0.921875 0 1.5625 -0.703125q0.65625 -0.703125 0.65625 -1.859375q0 -1.109375 -0.625 -1.734375q-0.625 -0.640625 -1.625 -0.640625q-0.625 0 -1.125 0.28125q-0.5 0.28125 -0.78125 0.734375l-1.203125 -0.15625l1.015625 -5.390625l5.21875 0l0 1.21875l-4.1875 0l-0.578125 2.828125q0.953125 -0.65625 1.984375 -0.65625q1.375 0 2.3125 0.953125q0.953125 0.953125 0.953125 2.4375q0 1.4375 -0.828125 2.46875q-1.015625 1.265625 -2.75 1.265625q-1.4375 0 -2.34375 -0.796875q-0.90625 -0.796875 -1.03125 -2.125z" fill-rule="nonzero"/>
    <path fill="#000000" fill-opacity="0.0" d="m274.16272 163.26509l0 -86.708664" fill-rule="evenodd"/>
    <path stroke="#000000" stroke-width="1.0" stroke-linejoin="round" stroke-linecap="butt" d="m274.16272 163.26509l0 -86.708664" fill-rule="evenodd"/>
    <path fill="#000000" fill-opacity="0.0" d="m163.37402 83.51194l109.76376 0" fill-rule="evenodd"/>
    <path stroke="#000000" stroke-width="1.0" stroke-linejoin="round" stroke-linecap="butt" d="m166.8011 83.51195l102.90962 0" fill-rule="evenodd"/>
    <path fill="#000000" stroke="#000000" stroke-width="1.0" stroke-linecap="butt" d="m166.8011 83.51195l1.124588 -1.124588l-3.0897675 1.124588l3.0897675 1.1245804z" fill-rule="evenodd"/>
    <path fill="#000000" stroke="#000000" stroke-width="1.0" stroke-linecap="butt" d="m269.71072 83.51195l-1.1246033 1.1245804l3.0897827 -1.1245804l-3.0897827 -1.124588z" fill-rule="evenodd"/>
    <path fill="#000000" fill-opacity="0.0" d="m196.35706 56.845146l48.44095 0l0 37.16535l-48.44095 0z" fill-rule="evenodd"/>
    <path fill="#000000" d="m217.87955 79.92515l-1.28125 0l0 -8.203125q-0.46875 0.4375 -1.21875 0.890625q-0.75 0.4375 -1.359375 0.65625l0 -1.25q1.078125 -0.5 1.890625 -1.21875q0.8125 -0.734375 1.140625 -1.40625l0.828125 0l0 10.53125zm10.072983 -1.234375l0 1.234375l-6.9375 0q-0.015625 -0.46875 0.15625 -0.890625q0.265625 -0.71875 0.84375 -1.40625q0.59375 -0.6875 1.6875 -1.578125q1.71875 -1.40625 2.3125 -2.21875q0.609375 -0.828125 0.609375 -1.5625q0 -0.765625 -0.5625 -1.28125q-0.546875 -0.53125 -1.421875 -0.53125q-0.921875 0 -1.484375 0.5625q-0.5625 0.5625 -0.5625 1.546875l-1.328125 -0.140625q0.140625 -1.484375 1.015625 -2.25q0.890625 -0.78125 2.390625 -0.78125q1.515625 0 2.390625 0.84375q0.875 0.828125 0.875 2.0625q0 0.640625 -0.265625 1.25q-0.25 0.59375 -0.84375 1.265625q-0.59375 0.671875 -1.984375 1.859375q-1.15625 0.96875 -1.484375 1.3125q-0.328125 0.34375 -0.546875 0.703125l5.140625 0z" fill-rule="nonzero"/>
    <path fill="#000000" fill-opacity="0.0" d="m287.4777 148.979l0 -72.40945" fill-rule="evenodd"/>
    <path stroke="#000000" stroke-width="1.0" stroke-linejoin="round" stroke-linecap="butt" d="m287.4777 148.979l0 -72.40945" fill-rule="evenodd"/>
    <path fill="#000000" fill-opacity="0.0" d="m283.22318 66.95677l48.44095 0l0 35.55906l-48.44095 0z" fill-rule="evenodd"/>
    <path fill="#000000" d="m310.3624 81.55365l-1.15625 0.09375q-0.15625 -0.6875 -0.4375 -1.0q-0.484375 -0.5 -1.171875 -0.5q-0.5625 0 -0.984375 0.3125q-0.5625 0.390625 -0.890625 1.171875q-0.3125 0.765625 -0.3125 2.203125q0.421875 -0.640625 1.03125 -0.953125q0.609375 -0.3125 1.28125 -0.3125q1.171875 0 1.984375 0.859375q0.828125 0.859375 0.828125 2.234375q0 0.890625 -0.390625 1.671875q-0.375 0.765625 -1.0625 1.171875q-0.671875 0.40625 -1.53125 0.40625q-1.46875 0 -2.390625 -1.0625q-0.921875 -1.078125 -0.921875 -3.5625q0 -2.765625 1.015625 -4.015625q0.90625 -1.09375 2.40625 -1.09375q1.125 0 1.84375 0.640625q0.71875 0.625 0.859375 1.734375zm-4.78125 4.109375q0 0.609375 0.25 1.171875q0.265625 0.546875 0.71875 0.84375q0.46875 0.28125 0.984375 0.28125q0.734375 0 1.265625 -0.59375q0.546875 -0.609375 0.546875 -1.640625q0 -0.984375 -0.53125 -1.546875q-0.53125 -0.578125 -1.328125 -0.578125q-0.796875 0 -1.359375 0.578125q-0.546875 0.5625 -0.546875 1.484375z" fill-rule="nonzero"/>
    <path fill="#000000" fill-opacity="0.0" d="m287.83728 91.666664l36.724396 0" fill-rule="evenodd"/>
    <path stroke="#000000" stroke-width="1.0" stroke-linejoin="round" stroke-linecap="butt" d="m291.26434 91.666664l29.87024 0" fill-rule="evenodd"/>
    <path fill="#000000" stroke="#000000" stroke-width="1.0" stroke-linecap="butt" d="m291.26434 91.666664l1.1246033 -1.1245804l-3.0897827 1.1245804l3.0897827 1.124588z" fill-rule="evenodd"/>
    <path fill="#000000" stroke="#000000" stroke-width="1.0" stroke-linecap="butt" d="m321.13458 91.666664l-1.1245728 1.124588l3.0897827 -1.124588l-3.0897827 -1.1245804z" fill-rule="evenodd"/>
    <path fill="#000000" fill-opacity="0.0" d="m326.62466 218.2336l0 -65.51181l37.165375 0l0 65.51181z" fill-rule="evenodd"/>
    <path fill="#202124" d="m341.57968 190.12862l6.484375 6.421875q1.078125 -1.265625 1.078125 -2.953125q0 -1.890625 -1.328125 -3.234375q-1.34375 -1.34375 -3.234375 -1.34375q-1.71875 0 -3.0 1.109375zm5.921875 6.96875l-6.421875 -6.4375q-1.078125 1.28125 -1.078125 2.9375q0 1.890625 1.34375 3.234375q1.34375 1.328125 3.234375 1.328125q1.65625 0 2.921875 -1.0625zm-8.328125 -8.34375l0.5 -0.53125l1.34375 1.34375q1.5 -1.359375 3.5625 -1.359375q2.21875 0 3.796875 1.578125q1.578125 1.578125 1.578125 3.8125q0 2.03125 -1.328125 3.53125l1.4375 1.421875l-0.546875 0.53125l-1.4375 -1.421875q-1.5 1.3125 -3.5 1.3125q-2.234375 0 -3.8125 -1.578125q-1.578125 -1.578125 -1.578125 -3.796875q0 -2.0 1.3125 -3.515625l-1.328125 -1.328125z" fill-rule="nonzero"/>
    <path fill="#000000" d="m349.70468 182.1446l0 1.28125l-8.203125 0q0.4375 0.46875 0.890625 1.21875q0.4375 0.75 0.65625 1.359375l-1.25 0q-0.5 -1.078125 -1.21875 -1.890625q-0.734375 -0.8125 -1.40625 -1.140625l0 -0.828125l10.53125 0zm-1.234375 -10.072983l1.234375 0l0 6.9375q-0.46875 0.015625 -0.890625 -0.15625q-0.71875 -0.265625 -1.40625 -0.84375q-0.6875 -0.59375 -1.578125 -1.6875q-1.40625 -1.71875 -2.21875 -2.3125q-0.828125 -0.609375 -1.5625 -0.609375q-0.765625 0 -1.28125 0.5625q-0.53125 0.546875 -0.53125 1.421875q0 0.921875 0.5625 1.484375q0.5625 0.5625 1.546875 0.5625l-0.140625 1.328125q-1.484375 -0.140625 -2.25 -1.015625q-0.78125 -0.890625 -0.78125 -2.390625q0 -1.515625 0.84375 -2.390625q0.828125 -0.875 2.0625 -0.875q0.640625 0 1.25 0.265625q0.59375 0.25 1.265625 0.84375q0.671875 0.59375 1.859375 1.984375q0.96875 1.15625 1.3125 1.484375q0.34375 0.328125 0.703125 0.546875l0 -5.140625z" fill-rule="nonzero"/>
    <path fill="#000000" fill-opacity="0.0" d="m327.441 152.72388l31.307068 0" fill-rule="evenodd"/>
    <path stroke="#000000" stroke-width="1.0" stroke-linejoin="round" stroke-linecap="butt" d="m327.441 152.72388l31.307068 0" fill-rule="evenodd"/>
    <path fill="#000000" fill-opacity="0.0" d="m327.441 218.20822l31.307068 0" fill-rule="evenodd"/>
    <path stroke="#000000" stroke-width="1.0" stroke-linejoin="round" stroke-linecap="butt" d="m327.441 218.20822l31.307068 0" fill-rule="evenodd"/>
    <path fill="#000000" fill-opacity="0.0" d="m354.86615 153.14174l0 64.94487" fill-rule="evenodd"/>
    <path stroke="#000000" stroke-width="1.0" stroke-linejoin="round" stroke-linecap="butt" d="m354.86615 156.56882l0 58.090714" fill-rule="evenodd"/>
    <path fill="#000000" stroke="#000000" stroke-width="1.0" stroke-linecap="butt" d="m354.86615 156.56882l1.1245728 1.124588l-1.1245728 -3.0897675l-1.1246033 3.0897675z" fill-rule="evenodd"/>
    <path fill="#000000" stroke="#000000" stroke-width="1.0" stroke-linecap="butt" d="m354.86615 214.65953l-1.1246033 -1.124588l1.1246033 3.0897675l1.1245728 -3.0897675z" fill-rule="evenodd"/>
    <path fill="#000000" fill-opacity="0.0" d="m99.12336 203.91339l0 -37.385834l35.55906 0l0 37.385834z" fill-rule="evenodd"/>
    <path fill="#202124" d="m113.53273 185.75496l5.890625 5.828125q1.0 -1.140625 1.0 -2.6875q0 -1.71875 -1.21875 -2.9375q-1.234375 -1.21875 -2.953125 -1.21875q-1.546875 0 -2.71875 1.015625zm5.390625 6.328125l-5.84375 -5.859375q-0.984375 1.15625 -0.984375 2.671875q0 1.71875 1.21875 2.9375q1.21875 1.21875 2.9375 1.21875q1.515625 0 2.671875 -0.96875zm-7.578125 -7.59375l0.46875 -0.46875l1.203125 1.203125q1.375 -1.21875 3.234375 -1.21875q2.03125 0 3.46875 1.4375q1.4375 1.421875 1.4375 3.453125q0 1.84375 -1.21875 3.203125l1.296875 1.296875l-0.484375 0.5l-1.3125 -1.296875q-1.359375 1.1875 -3.1875 1.1875q-2.015625 0 -3.453125 -1.421875q-1.4375 -1.4375 -1.4375 -3.46875q0 -1.8125 1.1875 -3.203125l-1.203125 -1.203125z" fill-rule="nonzero"/>
    <path fill="#000000" d="m113.72023 176.8172l0.09375 1.15625q-0.6875 0.15625 -1.0 0.4375q-0.5 0.484375 -0.5 1.171875q0 0.5625 0.3125 0.984375q0.390625 0.5625 1.171875 0.890625q0.765625 0.3125 2.203125 0.3125q-0.640625 -0.421875 -0.953125 -1.03125q-0.3125 -0.609375 -0.3125 -1.28125q0 -1.171875 0.859375 -1.984375q0.859375 -0.828125 2.234375 -0.828125q0.890625 0 1.671875 0.390625q0.765625 0.375 1.171875 1.0625q0.40625 0.671875 0.40625 1.53125q0 1.46875 -1.0625 2.390625q-1.078125 0.921875 -3.5625 0.921875q-2.765625 0 -4.015625 -1.015625q-1.09375 -0.90625 -1.09375 -2.40625q0 -1.125 0.640625 -1.84375q0.625 -0.71875 1.734375 -0.859375zm4.109375 4.78125q0.609375 0 1.171875 -0.25q0.546875 -0.265625 0.84375 -0.71875q0.28125 -0.46875 0.28125 -0.984375q0 -0.734375 -0.59375 -1.265625q-0.609375 -0.546875 -1.640625 -0.546875q-0.984375 0 -1.546875 0.53125q-0.578125 0.53125 -0.578125 1.328125q0 0.796875 0.578125 1.359375q0.5625 0.546875 1.484375 0.546875z" fill-rule="nonzero"/>
    <path fill="#000000" fill-opacity="0.0" d="m269.87665 166.7559l-147.49606 0" fill-rule="evenodd"/>
    <path stroke="#000000" stroke-width="1.0" stroke-linejoin="round" stroke-linecap="butt" d="m269.87665 166.7559l-147.49606 0" fill-rule="evenodd"/>
    <path fill="#000000" fill-opacity="0.0" d="m157.93439 203.66667l-35.55906 0" fill-rule="evenodd"/>
    <path stroke="#000000" stroke-width="1.0" stroke-linejoin="round" stroke-linecap="butt" d="m157.93439 203.66667l-35.55906 0" fill-rule="evenodd"/>
    <path fill="#000000" fill-opacity="0.0" d="m125.4397 167.12263l0 36.72441" fill-rule="evenodd"/>
    <path stroke="#000000" stroke-width="1.0" stroke-linejoin="round" stroke-linecap="butt" d="m125.439705 170.54971l0 29.87024" fill-rule="evenodd"/>
    <path fill="#000000" stroke="#000000" stroke-width="1.0" stroke-linecap="butt" d="m125.439705 170.54971l1.1245804 1.124588l-1.1245804 -3.0897675l-1.1245804 3.0897675z" fill-rule="evenodd"/>
    <path fill="#000000" stroke="#000000" stroke-width="1.0" stroke-linecap="butt" d="m125.439705 200.41994l-1.1245804 -1.1245728l1.1245804 3.0897675l1.1245804 -3.0897675z" fill-rule="evenodd"/>
    <path fill="#000000" fill-opacity="0.0" d="m123.12336 207.37927l0 -35.370087l32.314964 0l0 35.370087z" fill-rule="evenodd"/>
    <path fill="#202124" d="m140.36336 196.66354l-0.078125 -0.984375q0.71875 -0.109375 1.078125 -0.5q0.359375 -0.40625 0.359375 -0.96875q0 -0.671875 -0.5 -1.140625q-0.515625 -0.46875 -1.359375 -0.46875q-0.796875 0 -1.265625 0.453125q-0.46875 0.4375 -0.46875 1.171875q0 0.453125 0.21875 0.8125q0.203125 0.359375 0.53125 0.578125l-0.125 0.875l-3.921875 -0.734375l0 -3.796875l0.90625 0l0 3.046875l2.046875 0.40625q-0.484375 -0.6875 -0.484375 -1.4375q0 -1.0 0.703125 -1.6875q0.6875 -0.6875 1.765625 -0.6875q1.046875 0 1.796875 0.609375q0.921875 0.734375 0.921875 2.0q0 1.03125 -0.578125 1.703125q-0.578125 0.65625 -1.546875 0.75zm2.0 -6.4421234l-1.0625 0l0 -1.0625l1.0625 0q0.59375 0 0.953125 0.21875q0.359375 0.203125 0.5625 0.65625l-0.40625 0.25q-0.125 -0.296875 -0.390625 -0.4375q-0.25 -0.140625 -0.71875 -0.15625l0 0.53125zm-2.015625 -2.4606476l-0.125 -0.9375q0.796875 -0.15625 1.15625 -0.546875q0.34375 -0.390625 0.34375 -0.9375q0 -0.65625 -0.453125 -1.109375q-0.46875 -0.46875 -1.140625 -0.46875q-0.640625 0 -1.0625 0.421875q-0.421875 0.421875 -0.421875 1.078125q0 0.265625 0.109375 0.65625l-0.828125 -0.109375q0.015625 -0.09375 0.015625 -0.140625q0 -0.59375 -0.3125 -1.078125q-0.3125 -0.484375 -0.96875 -0.484375q-0.515625 0 -0.84375 0.359375q-0.34375 0.34375 -0.34375 0.890625q0 0.546875 0.34375 0.921875q0.34375 0.359375 1.03125 0.453125l-0.171875 0.9375q-0.9375 -0.171875 -1.453125 -0.78125q-0.515625 -0.609375 -0.515625 -1.5q0 -0.625 0.265625 -1.15625q0.265625 -0.53125 0.734375 -0.796875q0.453125 -0.28125 0.984375 -0.28125q0.484375 0 0.890625 0.265625q0.40625 0.265625 0.65625 0.78125q0.15625 -0.671875 0.65625 -1.046875q0.484375 -0.375 1.21875 -0.375q1.0 0 1.703125 0.734375q0.6875 0.71875 0.6875 1.828125q0 1.0 -0.59375 1.671875q-0.609375 0.65625 -1.5625 0.75z" fill-rule="nonzero"/>
    <path fill="#000000" fill-opacity="0.0" d="m159.44025 174.67639l-21.354324 0" fill-rule="evenodd"/>
    <path stroke="#000000" stroke-width="1.0" stroke-linejoin="round" stroke-linecap="butt" d="m159.44025 174.67639l-21.354324 0" fill-rule="evenodd"/>
    <path fill="#000000" fill-opacity="0.0" d="m147.92671 175.45967l0 28.37796" fill-rule="evenodd"/>
    <path stroke="#000000" stroke-width="1.0" stroke-linejoin="round" stroke-linecap="butt" d="m147.92671 178.88675l0 21.523788" fill-rule="evenodd"/>
    <path fill="#000000" stroke="#000000" stroke-width="1.0" stroke-linecap="butt" d="m147.92671 178.88675l1.124588 1.124588l-1.124588 -3.0897675l-1.124588 3.0897675z" fill-rule="evenodd"/>
    <path fill="#000000" stroke="#000000" stroke-width="1.0" stroke-linecap="butt" d="m147.92671 200.41054l-1.124588 -1.124588l1.124588 3.0897675l1.124588 -3.0897675z" fill-rule="evenodd"/>
    <path fill="#000000" fill-opacity="0.0" d="m245.55643 497.3047l0 0c0 -18.194977 14.749939 -32.944885 32.944885 -32.944885l0 0c8.737518 0 17.117188 3.4709473 23.295563 9.6493225c6.1783447 6.1783752 9.6493225 14.558014 9.6493225 23.295563l0 0c0 18.194946 -14.749939 32.944885 -32.944885 32.944885l0 0c-18.194946 0 -32.944885 -14.749939 -32.944885 -32.944885z" fill-rule="evenodd"/>
    <path stroke="#000000" stroke-width="1.0" stroke-linejoin="round" stroke-linecap="butt" d="m245.55643 497.3047l0 0c0 -18.194977 14.749939 -32.944885 32.944885 -32.944885l0 0c8.737518 0 17.117188 3.4709473 23.295563 9.6493225c6.1783447 6.1783752 9.6493225 14.558014 9.6493225 23.295563l0 0c0 18.194946 -14.749939 32.944885 -32.944885 32.944885l0 0c-18.194946 0 -32.944885 -14.749939 -32.944885 -32.944885z" fill-rule="evenodd"/>
    <path fill="#000000" fill-opacity="0.0" d="m259.91864 497.3047l0 0c0 -10.262939 8.319733 -18.582703 18.582672 -18.582703l0 0c4.9284363 0 9.654999 1.9578247 13.139923 5.442749c3.4849548 3.4849243 5.442749 8.211517 5.442749 13.139954l0 0c0 10.262909 -8.319733 18.582642 -18.582672 18.582642l0 0c-10.262939 0 -18.582672 -8.319733 -18.582672 -18.582642z" fill-rule="evenodd"/>
    <path stroke="#000000" stroke-width="1.0" stroke-linejoin="round" stroke-linecap="butt" d="m259.91864 497.3047l0 0c0 -10.262939 8.319733 -18.582703 18.582672 -18.582703l0 0c4.9284363 0 9.654999 1.9578247 13.139923 5.442749c3.4849548 3.4849243 5.442749 8.211517 5.442749 13.139954l0 0c0 10.262909 -8.319733 18.582642 -18.582672 18.582642l0 0c-10.262939 0 -18.582672 -8.319733 -18.582672 -18.582642z" fill-rule="evenodd"/>
    <path fill="#000000" fill-opacity="0.0" d="m265.3614 484.16473l26.2677 0" fill-rule="evenodd"/>
    <path stroke="#000000" stroke-width="1.0" stroke-linejoin="round" stroke-linecap="butt" d="m265.3614 484.16473l26.2677 0" fill-rule="evenodd"/>
    <path fill="#000000" fill-opacity="0.0" d="m267.81894 667.6573l0 0c0 -5.8881226 4.773285 -10.661377 10.661438 -10.661377l0 0c2.8275757 0 5.539337 1.12323 7.5387573 3.1226196c1.9993896 1.9994507 3.1226501 4.7111816 3.1226501 7.5387573l0 0c0 5.8881836 -4.773285 10.661438 -10.661407 10.661438l0 0c-5.888153 0 -10.661438 -4.7732544 -10.661438 -10.661438z" fill-rule="evenodd"/>
    <path stroke="#000000" stroke-width="1.0" stroke-linejoin="round" stroke-linecap="butt" d="m267.81894 667.6573l0 0c0 -5.8881226 4.773285 -10.661377 10.661438 -10.661377l0 0c2.8275757 0 5.539337 1.12323 7.5387573 3.1226196c1.9993896 1.9994507 3.1226501 4.7111816 3.1226501 7.5387573l0 0c0 5.8881836 -4.773285 10.661438 -10.661407 10.661438l0 0c-5.888153 0 -10.661438 -4.7732544 -10.661438 -10.661438z" fill-rule="evenodd"/>
    <path fill="#000000" fill-opacity="0.0" d="m271.9821 663.2473l1.9762268 -1.9761963l4.5520935 4.552124l4.5520935 -4.552124l1.9762268 1.9761963l-4.5520935 4.552124l4.5520935 4.552124l-1.9762268 1.9761963l-4.5520935 -4.552124l-4.5520935 4.552124l-1.9762268 -1.9761963l4.552124 -4.552124z" fill-rule="evenodd"/>
    <path stroke="#000000" stroke-width="1.0" stroke-linejoin="round" stroke-linecap="butt" d="m271.9821 663.2473l1.9762268 -1.9761963l4.5520935 4.552124l4.5520935 -4.552124l1.9762268 1.9761963l-4.5520935 4.552124l4.5520935 4.552124l-1.9762268 1.9761963l-4.5520935 -4.552124l-4.5520935 4.552124l-1.9762268 -1.9761963l4.552124 -4.552124z" fill-rule="evenodd"/>
    <path fill="#000000" fill-opacity="0.0" d="m378.22693 538.8975l0 0c0 -5.522827 4.477173 -10.0 10.0 -10.0l0 0c2.6521606 0 5.195709 1.0535889 7.0710754 2.928955c1.8753662 1.8753052 2.9289246 4.4188843 2.9289246 7.071045l0 0c0 5.522827 -4.4771423 10.0 -10.0 10.0l0 0c-5.522827 0 -10.0 -4.477173 -10.0 -10.0zm1.2156067 0l0 0c0 4.8515015 3.9329224 8.784363 8.784393 8.784363c4.8515015 0 8.784393 -3.9328613 8.784393 -8.784363l0 0c0 -4.8515015 -3.9328918 -8.784424 -8.784393 -8.784424l0 0c-4.851471 0 -8.784393 3.9329224 -8.784393 8.784424z" fill-rule="evenodd"/>
    <path stroke="#000000" stroke-width="1.0" stroke-linejoin="round" stroke-linecap="butt" d="m378.22693 538.8975l0 0c0 -5.522827 4.477173 -10.0 10.0 -10.0l0 0c2.6521606 0 5.195709 1.0535889 7.0710754 2.928955c1.8753662 1.8753052 2.9289246 4.4188843 2.9289246 7.071045l0 0c0 5.522827 -4.4771423 10.0 -10.0 10.0l0 0c-5.522827 0 -10.0 -4.477173 -10.0 -10.0zm1.2156067 0l0 0c0 4.8515015 3.9329224 8.784363 8.784393 8.784363c4.8515015 0 8.784393 -3.9328613 8.784393 -8.784363l0 0c0 -4.8515015 -3.9328918 -8.784424 -8.784393 -8.784424l0 0c-4.851471 0 -8.784393 3.9329224 -8.784393 8.784424z" fill-rule="evenodd"/>
    <path fill="#000000" fill-opacity="0.0" d="m323.91864 497.25845l125.5748 0" fill-rule="evenodd"/>
    <path stroke="#000000" stroke-width="1.0" stroke-linejoin="round" stroke-linecap="butt" d="m323.91864 497.25845l125.5748 0" fill-rule="evenodd"/>
    <path fill="#000000" fill-opacity="0.0" d="m409.4658 538.89777l38.80316 0" fill-rule="evenodd"/>
    <path stroke="#000000" stroke-width="1.0" stroke-linejoin="round" stroke-linecap="butt" d="m409.4658 538.89777l38.80316 0" fill-rule="evenodd"/>
    <path fill="#000000" fill-opacity="0.0" d="m417.0656 538.2306l0 -40.409424l37.165344 0l0 40.409424z" fill-rule="evenodd"/>
    <path fill="#202124" d="m431.02063 521.41394l-1.234375 0l0 -6.796875l1.0 0q1.078125 1.0 2.84375 1.984375q1.765625 0.984375 3.625 1.515625q1.328125 0.390625 2.890625 0.5l0 1.328125q-1.234375 -0.03125 -2.984375 -0.484375q-1.765625 -0.46875 -3.390625 -1.34375q-1.625 -0.875 -2.75 -1.84375l0 5.140625z" fill-rule="nonzero"/>
    <path fill="#000000" fill-opacity="0.0" d="m443.75854 497.75592l0 40.22046" fill-rule="evenodd"/>
    <path stroke="#000000" stroke-width="1.0" stroke-linejoin="round" stroke-linecap="butt" d="m443.75854 501.18298l0 33.366333" fill-rule="evenodd"/>
    <path fill="#000000" stroke="#000000" stroke-width="1.0" stroke-linecap="butt" d="m443.75854 501.18298l1.1245728 1.1246033l-1.1245728 -3.0897827l-1.1246033 3.0897827z" fill-rule="evenodd"/>
    <path fill="#000000" stroke="#000000" stroke-width="1.0" stroke-linecap="butt" d="m443.75854 534.5493l-1.1246033 -1.1246338l1.1246033 3.0897827l1.1245728 -3.0897827z" fill-rule="evenodd"/>
    <path fill="#000000" fill-opacity="0.0" d="m776.0026 315.2651l0 -36.53546" fill-rule="evenodd"/>
    <path stroke="#000000" stroke-width="1.0" stroke-linejoin="round" stroke-linecap="butt" d="m776.0026 315.2651l0 -36.53546" fill-rule="evenodd"/>
    <path fill="#000000" fill-opacity="0.0" d="m745.75525 282.89764l38.204712 0l0 35.55905l-38.204712 0z" fill-rule="evenodd"/>
    <path fill="#000000" d="m761.71387 302.182l1.171875 -0.15625q0.203125 1.0 0.6875 1.4375q0.484375 0.4375 1.171875 0.4375q0.828125 0 1.390625 -0.578125q0.578125 -0.578125 0.578125 -1.421875q0 -0.796875 -0.53125 -1.3125q-0.515625 -0.53125 -1.328125 -0.53125q-0.34375 0 -0.828125 0.125l0.125 -1.03125q0.125 0.015625 0.1875 0.015625q0.75 0 1.34375 -0.390625q0.609375 -0.390625 0.609375 -1.203125q0 -0.640625 -0.4375 -1.0625q-0.4375 -0.421875 -1.125 -0.421875q-0.6875 0 -1.140625 0.4375q-0.453125 0.421875 -0.59375 1.28125l-1.171875 -0.21875q0.21875 -1.171875 0.984375 -1.8125q0.765625 -0.65625 1.890625 -0.65625q0.78125 0 1.4375 0.34375q0.65625 0.328125 1.0 0.90625q0.359375 0.578125 0.359375 1.234375q0 0.609375 -0.34375 1.125q-0.328125 0.5 -0.96875 0.796875q0.84375 0.203125 1.3125 0.828125q0.46875 0.609375 0.46875 1.53125q0 1.25 -0.921875 2.125q-0.90625 0.859375 -2.296875 0.859375q-1.25 0 -2.09375 -0.75q-0.828125 -0.75 -0.9375 -1.9375z" fill-rule="nonzero"/>
    <path fill="#000000" fill-opacity="0.0" d="m752.5302 310.91602l23.055115 0" fill-rule="evenodd"/>
    <path stroke="#000000" stroke-width="1.0" stroke-linejoin="round" stroke-linecap="butt" d="m755.9573 310.91602l16.200928 0" fill-rule="evenodd"/>
    <path fill="#000000" stroke="#000000" stroke-width="1.0" stroke-linecap="butt" d="m755.9573 310.91602l1.1245728 -1.1246033l-3.0897827 1.1246033l3.0897827 1.1245728z" fill-rule="evenodd"/>
    <path fill="#000000" stroke="#000000" stroke-width="1.0" stroke-linecap="butt" d="m772.1582 310.91602l-1.1245728 1.1245728l3.0897827 -1.1245728l-3.0897827 -1.1246033z" fill-rule="evenodd"/>
    <path fill="#000000" fill-opacity="0.0" d="m742.93964 135.021l0 229.38583" fill-rule="evenodd"/>
    <path stroke="#000000" stroke-width="1.0" stroke-linejoin="round" stroke-linecap="butt" d="m742.93964 135.021l0 229.38583" fill-rule="evenodd"/>
    <path fill="#000000" fill-opacity="0.0" d="m439.4526 121.53543l0 255.37009" fill-rule="evenodd"/>
    <path stroke="#000000" stroke-width="1.0" stroke-linejoin="round" stroke-linecap="butt" d="m439.45264 124.96252l0 248.5159" fill-rule="evenodd"/>
    <path fill="#000000" stroke="#000000" stroke-width="1.0" stroke-linecap="butt" d="m439.45264 124.96252l1.1245728 1.124588l-1.1245728 -3.0897675l-1.1245728 3.0897675z" fill-rule="evenodd"/>
    <path fill="#000000" stroke="#000000" stroke-width="1.0" stroke-linecap="butt" d="m439.45264 373.47842l-1.1245728 -1.1245728l1.1245728 3.0897522l1.1245728 -3.0897522z" fill-rule="evenodd"/>
    <path fill="#000000" fill-opacity="0.0" d="m413.14435 279.5099l0 -61.32283l37.165375 0l0 61.32283z" fill-rule="evenodd"/>
    <path fill="#202124" d="m428.09937 253.4994l6.484375 6.4218903q1.078125 -1.265625 1.078125 -2.953125q0 -1.8906403 -1.328125 -3.2343903q-1.34375 -1.34375 -3.234375 -1.34375q-1.71875 0 -3.0 1.109375zm5.921875 6.9687653l-6.421875 -6.4375153q-1.078125 1.28125 -1.078125 2.9375153q0 1.890625 1.34375 3.234375q1.34375 1.328125 3.234375 1.328125q1.65625 0 2.921875 -1.0625zm-8.328125 -8.343765l0.5 -0.53125l1.34375 1.34375q1.5 -1.359375 3.5625 -1.359375q2.21875 0 3.796875 1.578125q1.578125 1.578125 1.578125 3.8125153q0 2.03125 -1.328125 3.53125l1.4375 1.421875l-0.546875 0.53125l-1.4375 -1.421875q-1.5 1.3125 -3.5 1.3125q-2.234375 0 -3.8125 -1.578125q-1.578125 -1.578125 -1.578125 -3.796875q0 -2.0000153 1.3125 -3.5156403l-1.328125 -1.328125z" fill-rule="nonzero"/>
    <path fill="#000000" d="m433.45874 250.35915l-0.171875 -1.296875q1.09375 -0.21875 1.578125 -0.75q0.484375 -0.53125 0.484375 -1.296875q0 -0.90625 -0.625 -1.53125q-0.640625 -0.640625 -1.5625 -0.640625q-0.890625 0 -1.46875 0.59375q-0.578125 0.578125 -0.578125 1.46875q0 0.359375 0.140625 0.90625l-1.125 -0.140625q0.015625 -0.125 0.015625 -0.203125q0 -0.828125 -0.421875 -1.484375q-0.4375 -0.65625 -1.34375 -0.65625q-0.703125 0 -1.15625 0.484375q-0.46875 0.46875 -0.46875 1.234375q0 0.75 0.46875 1.25q0.46875 0.5 1.421875 0.640625l-0.234375 1.28125q-1.296875 -0.234375 -2.0 -1.0625q-0.71875 -0.84375 -0.71875 -2.09375q0 -0.859375 0.375 -1.578125q0.359375 -0.71875 1.0 -1.09375q0.640625 -0.390625 1.34375 -0.390625q0.6875 0 1.25 0.375q0.546875 0.359375 0.875 1.0625q0.21875 -0.921875 0.90625 -1.4375q0.671875 -0.515625 1.6875 -0.515625q1.375 0 2.328125 1.0q0.953125 1.0 0.953125 2.53125q0 1.390625 -0.8125 2.296875q-0.828125 0.90625 -2.140625 1.046875zm-6.359375 -8.229233l-1.234375 0l0 -6.796875l1.0 0q1.078125 1.0 2.84375 1.984375q1.765625 0.984375 3.625 1.515625q1.328125 0.390625 2.890625 0.5l0 1.328125q-1.234375 -0.03125 -2.984375 -0.484375q-1.765625 -0.46875 -3.390625 -1.34375q-1.625 -0.875 -2.75 -1.84375l0 5.140625z" fill-rule="nonzero"/>
    <path fill="#000000" fill-opacity="0.0" d="m158.78862 538.8975l0 0c0 -5.522827 4.4771423 -10.0 10.0 -10.0l0 0c2.6521606 0 5.195694 1.0535889 7.07106 2.928955c1.8753662 1.8753052 2.9289398 4.4188843 2.9289398 7.071045l0 0c0 5.522827 -4.4771576 10.0 -10.0 10.0l0 0c-5.5228577 0 -10.0 -4.477173 -10.0 -10.0zm1.2155914 0l0 0c0 4.8515015 3.9329224 8.784363 8.784409 8.784363c4.851486 0 8.784393 -3.9328613 8.784393 -8.784363l0 0c0 -4.8515015 -3.932907 -8.784424 -8.784393 -8.784424l0 0c-4.851486 0 -8.784409 3.9329224 -8.784409 8.784424z" fill-rule="evenodd"/>
    <path stroke="#000000" stroke-width="1.0" stroke-linejoin="round" stroke-linecap="butt" d="m158.78862 538.8975l0 0c0 -5.522827 4.4771423 -10.0 10.0 -10.0l0 0c2.6521606 0 5.195694 1.0535889 7.07106 2.928955c1.8753662 1.8753052 2.9289398 4.4188843 2.9289398 7.071045l0 0c0 5.522827 -4.4771576 10.0 -10.0 10.0l0 0c-5.5228577 0 -10.0 -4.477173 -10.0 -10.0zm1.2155914 0l0 0c0 4.8515015 3.9329224 8.784363 8.784409 8.784363c4.851486 0 8.784393 -3.9328613 8.784393 -8.784363l0 0c0 -4.8515015 -3.932907 -8.784424 -8.784393 -8.784424l0 0c-4.851486 0 -8.784409 3.9329224 -8.784409 8.784424z" fill-rule="evenodd"/>
    <path fill="#000000" fill-opacity="0.0" d="m177.96063 493.215l0 0c0 -5.8881226 4.7732697 -10.661407 10.661423 -10.661407l0 0c2.8275757 0 5.5393524 1.12323 7.5387573 3.1226501c1.9994049 1.9993896 3.1226501 4.7111816 3.1226501 7.5387573l0 0c0 5.888153 -4.7732697 10.661407 -10.661407 10.661407l0 0c-5.888153 0 -10.661423 -4.7732544 -10.661423 -10.661407z" fill-rule="evenodd"/>
    <path stroke="#000000" stroke-width="1.0" stroke-linejoin="round" stroke-linecap="butt" d="m177.96063 493.215l0 0c0 -5.8881226 4.7732697 -10.661407 10.661423 -10.661407l0 0c2.8275757 0 5.5393524 1.12323 7.5387573 3.1226501c1.9994049 1.9993896 3.1226501 4.7111816 3.1226501 7.5387573l0 0c0 5.888153 -4.7732697 10.661407 -10.661407 10.661407l0 0c-5.888153 0 -10.661423 -4.7732544 -10.661423 -10.661407z" fill-rule="evenodd"/>
    <path fill="#000000" fill-opacity="0.0" d="m182.12378 488.80502l1.9762115 -1.9761963l4.5520935 4.5520935l4.552109 -4.5520935l1.9762115 1.9761963l-4.552109 4.5520935l4.552109 4.552124l-1.9762115 1.9761963l-4.552109 -4.5520935l-4.5520935 4.5520935l-1.9762115 -1.9761963l4.5520935 -4.552124z" fill-rule="evenodd"/>
    <path stroke="#000000" stroke-width="1.0" stroke-linejoin="round" stroke-linecap="butt" d="m182.12378 488.80502l1.9762115 -1.9761963l4.5520935 4.5520935l4.552109 -4.5520935l1.9762115 1.9761963l-4.552109 4.5520935l4.552109 4.552124l-1.9762115 1.9761963l-4.552109 -4.5520935l-4.5520935 4.5520935l-1.9762115 -1.9761963l4.5520935 -4.552124z" fill-rule="evenodd"/>
    <path fill="#000000" fill-opacity="0.0" d="m357.68927 493.28625l0 0c0 -5.8881226 4.773285 -10.661407 10.661407 -10.661407l0 0c2.8276062 0 5.5393677 1.1232605 7.5387573 3.1226501c1.9994202 1.9994202 3.1226807 4.7111816 3.1226807 7.5387573l0 0c0 5.888153 -4.773285 10.661438 -10.661438 10.661438l0 0c-5.8881226 0 -10.661407 -4.773285 -10.661407 -10.661438z" fill-rule="evenodd"/>
    <path stroke="#000000" stroke-width="1.0" stroke-linejoin="round" stroke-linecap="butt" d="m357.68927 493.28625l0 0c0 -5.8881226 4.773285 -10.661407 10.661407 -10.661407l0 0c2.8276062 0 5.5393677 1.1232605 7.5387573 3.1226501c1.9994202 1.9994202 3.1226807 4.7111816 3.1226807 7.5387573l0 0c0 5.888153 -4.773285 10.661438 -10.661438 10.661438l0 0c-5.8881226 0 -10.661407 -4.773285 -10.661407 -10.661438z" fill-rule="evenodd"/>
    <path fill="#000000" fill-opacity="0.0" d="m361.85242 488.8763l1.9762268 -1.9762268l4.5520935 4.5520935l4.5520935 -4.5520935l1.9761963 1.9762268l-4.5520935 4.5520935l4.5520935 4.5520935l-1.9761963 1.9761963l-4.5520935 -4.5520935l-4.5520935 4.5520935l-1.9762268 -1.9761963l4.5520935 -4.5520935z" fill-rule="evenodd"/>
    <path stroke="#000000" stroke-width="1.0" stroke-linejoin="round" stroke-linecap="butt" d="m361.85242 488.8763l1.9762268 -1.9762268l4.5520935 4.5520935l4.5520935 -4.5520935l1.9761963 1.9762268l-4.5520935 4.5520935l4.5520935 4.5520935l-1.9761963 1.9761963l-4.5520935 -4.5520935l-4.5520935 4.5520935l-1.9762268 -1.9761963l4.5520935 -4.5520935z" fill-rule="evenodd"/>
    <path fill="#000000" fill-opacity="0.0" d="m316.11407 457.90274l0 0c0 -5.5228577 4.4771423 -10.0 10.0 -10.0l0 0c2.6521606 0 5.195709 1.0535583 7.0710754 2.9289246c1.8753662 1.8753662 2.9289246 4.418915 2.9289246 7.0710754l0 0c0 5.5228577 -4.4771423 10.0 -10.0 10.0l0 0c-5.5228577 0 -10.0 -4.4771423 -10.0 -10.0zm1.2156067 0l0 0c0 4.8515015 3.9328918 8.784393 8.784393 8.784393c4.8515015 0 8.784393 -3.9328918 8.784393 -8.784393l0 0c0 -4.8515015 -3.9328918 -8.784393 -8.784393 -8.784393l0 0c-4.8515015 0 -8.784393 3.9328918 -8.784393 8.784393z" fill-rule="evenodd"/>
    <path stroke="#000000" stroke-width="1.0" stroke-linejoin="round" stroke-linecap="butt" d="m316.11407 457.90274l0 0c0 -5.5228577 4.4771423 -10.0 10.0 -10.0l0 0c2.6521606 0 5.195709 1.0535583 7.0710754 2.9289246c1.8753662 1.8753662 2.9289246 4.418915 2.9289246 7.0710754l0 0c0 5.5228577 -4.4771423 10.0 -10.0 10.0l0 0c-5.5228577 0 -10.0 -4.4771423 -10.0 -10.0zm1.2156067 0l0 0c0 4.8515015 3.9328918 8.784393 8.784393 8.784393c4.8515015 0 8.784393 -3.9328918 8.784393 -8.784393l0 0c0 -4.8515015 -3.9328918 -8.784393 -8.784393 -8.784393l0 0c-4.8515015 0 -8.784393 3.9328918 -8.784393 8.784393z" fill-rule="evenodd"/>
    <path fill="#000000" fill-opacity="0.0" d="m220.891 455.36847l0 0c0 -5.5228577 4.4771576 -10.0 10.0 -10.0l0 0c2.6521606 0 5.195709 1.0535583 7.07106 2.9289246c1.8753662 1.8753662 2.9289398 4.4188843 2.9289398 7.0710754l0 0c0 5.522827 -4.4771576 10.0 -10.0 10.0l0 0c-5.5228424 0 -10.0 -4.477173 -10.0 -10.0zm1.2156067 0l0 0c0 4.851471 3.932907 8.784393 8.784393 8.784393c4.851486 0 8.784393 -3.9329224 8.784393 -8.784393l0 0c0 -4.8515015 -3.932907 -8.784424 -8.784393 -8.784424l0 0c-4.851486 0 -8.784393 3.9329224 -8.784393 8.784424z" fill-rule="evenodd"/>
    <path stroke="#000000" stroke-width="1.0" stroke-linejoin="round" stroke-linecap="butt" d="m220.891 455.36847l0 0c0 -5.5228577 4.4771576 -10.0 10.0 -10.0l0 0c2.6521606 0 5.195709 1.0535583 7.07106 2.9289246c1.8753662 1.8753662 2.9289398 4.4188843 2.9289398 7.0710754l0 0c0 5.522827 -4.4771576 10.0 -10.0 10.0l0 0c-5.5228424 0 -10.0 -4.477173 -10.0 -10.0zm1.2156067 0l0 0c0 4.851471 3.932907 8.784393 8.784393 8.784393c4.851486 0 8.784393 -3.9329224 8.784393 -8.784393l0 0c0 -4.8515015 -3.932907 -8.784424 -8.784393 -8.784424l0 0c-4.851486 0 -8.784393 3.9329224 -8.784393 8.784424z" fill-rule="evenodd"/>
    <path fill="#000000" fill-opacity="0.0" d="m331.664 649.5517l0 0c0 -5.522827 4.4771423 -10.0 10.0 -10.0l0 0c2.6521606 0 5.195709 1.0535889 7.0710754 2.928955c1.8753662 1.8753662 2.9289246 4.4188843 2.9289246 7.071045l0 0c0 5.522827 -4.4771423 10.0 -10.0 10.0l0 0c-5.5228577 0 -10.0 -4.477173 -10.0 -10.0zm1.2156067 0l0 0c0 4.8515015 3.9328918 8.784424 8.784393 8.784424c4.8515015 0 8.784393 -3.9329224 8.784393 -8.784424l0 0c0 -4.8515015 -3.9328918 -8.784424 -8.784393 -8.784424l0 0c-4.8515015 0 -8.784393 3.9329224 -8.784393 8.784424z" fill-rule="evenodd"/>
    <path stroke="#000000" stroke-width="1.0" stroke-linejoin="round" stroke-linecap="butt" d="m331.664 649.5517l0 0c0 -5.522827 4.4771423 -10.0 10.0 -10.0l0 0c2.6521606 0 5.195709 1.0535889 7.0710754 2.928955c1.8753662 1.8753662 2.9289246 4.4188843 2.9289246 7.071045l0 0c0 5.522827 -4.4771423 10.0 -10.0 10.0l0 0c-5.5228577 0 -10.0 -4.477173 -10.0 -10.0zm1.2156067 0l0 0c0 4.8515015 3.9328918 8.784424 8.784393 8.784424c4.8515015 0 8.784393 -3.9329224 8.784393 -8.784424l0 0c0 -4.8515015 -3.9328918 -8.784424 -8.784393 -8.784424l0 0c-4.8515015 0 -8.784393 3.9329224 -8.784393 8.784424z" fill-rule="evenodd"/>
    <path fill="#000000" fill-opacity="0.0" d="m206.81229 649.5516l0 0c0 -5.522827 4.4771576 -10.0 10.0 -10.0l0 0c2.652176 0 5.195709 1.0535889 7.0710754 2.928955c1.8753662 1.8753662 2.9289246 4.4188843 2.9289246 7.071045l0 0c0 5.522888 -4.4771423 10.0 -10.0 10.0l0 0c-5.5228424 0 -10.0 -4.477112 -10.0 -10.0zm1.2156067 0l0 0c0 4.8515015 3.932907 8.784424 8.784393 8.784424c4.8515015 0 8.784409 -3.9329224 8.784409 -8.784424l0 0c0 -4.8514404 -3.932907 -8.784363 -8.784409 -8.784363l0 0c-4.851486 0 -8.784393 3.9329224 -8.784393 8.784363z" fill-rule="evenodd"/>
    <path stroke="#000000" stroke-width="1.0" stroke-linejoin="round" stroke-linecap="butt" d="m206.81229 649.5516l0 0c0 -5.522827 4.4771576 -10.0 10.0 -10.0l0 0c2.652176 0 5.195709 1.0535889 7.0710754 2.928955c1.8753662 1.8753662 2.9289246 4.4188843 2.9289246 7.071045l0 0c0 5.522888 -4.4771423 10.0 -10.0 10.0l0 0c-5.5228424 0 -10.0 -4.477112 -10.0 -10.0zm1.2156067 0l0 0c0 4.8515015 3.932907 8.784424 8.784393 8.784424c4.8515015 0 8.784409 -3.9329224 8.784409 -8.784424l0 0c0 -4.8514404 -3.932907 -8.784363 -8.784409 -8.784363l0 0c-4.851486 0 -8.784393 3.9329224 -8.784393 8.784363z" fill-rule="evenodd"/>
    <path fill="#000000" fill-opacity="0.0" d="m331.13498 481.84937l0 0c33.197052 23.054932 47.517334 65.0318 35.330566 103.564026c-12.186798 38.532227 -48.042175 64.6452 -88.461365 64.42511c-40.419174 -0.22003174 -75.987976 -26.721924 -87.7543 -65.38458c-11.766327 -38.66266 3.0103455 -80.48105 36.45659 -103.17316l51.800095 76.32294z" fill-rule="evenodd"/>
    <path fill="#000000" fill-opacity="0.0" d="m331.13498 481.84937l0 0c33.197052 23.054932 47.517334 65.0318 35.330566 103.564026c-12.186798 38.532227 -48.042175 64.6452 -88.461365 64.42511c-40.419174 -0.22003174 -75.987976 -26.721924 -87.7543 -65.38458c-11.766327 -38.66266 3.0103455 -80.48105 36.45659 -103.17316" fill-rule="evenodd"/>
    <path stroke="#000000" stroke-width="1.0" stroke-linejoin="round" stroke-linecap="butt" d="m331.13498 481.84937l0 0c33.197052 23.054932 47.517334 65.0318 35.330566 103.564026c-12.186798 38.532227 -48.042175 64.6452 -88.461365 64.42511c-40.419174 -0.22003174 -75.987976 -26.721924 -87.7543 -65.38458c-11.766327 -38.66266 3.0103455 -80.48105 36.45659 -103.17316" fill-rule="evenodd"/>
    <path fill="#000000" fill-opacity="0.0" d="m330.73798 481.20776l0 0c7.652466 22.499207 -0.371521 47.305298 -19.808258 61.237c-19.436707 13.931763 -45.774933 13.755615 -65.01929 -0.4348755c-19.244354 -14.19043 -26.928238 -39.101593 -18.968658 -61.49637l51.777374 17.993164z" fill-rule="evenodd"/>
    <path fill="#000000" fill-opacity="0.0" d="m330.73798 481.20776l0 0c7.652466 22.499207 -0.371521 47.305298 -19.808258 61.237c-19.436707 13.931763 -45.774933 13.755615 -65.01929 -0.4348755c-19.244354 -14.19043 -26.928238 -39.101593 -18.968658 -61.49637" fill-rule="evenodd"/>
    <path stroke="#000000" stroke-width="1.0" stroke-linejoin="round" stroke-linecap="butt" d="m330.73798 481.20776l0 0c7.652466 22.499207 -0.371521 47.305298 -19.808258 61.237c-19.436707 13.931763 -45.774933 13.755615 -65.01929 -0.4348755c-19.244354 -14.19043 -26.928238 -39.101593 -18.968658 -61.49637" fill-rule="evenodd"/>
    <path fill="#000000" fill-opacity="0.0" d="m155.72122 538.89764l13.066177 0l0 -13.066162l0 0l0 13.066162l13.066177 0l0 0l-13.066177 0l0 13.066162l0 0l0 -13.066162l-13.066177 0z" fill-rule="evenodd"/>
    <path stroke="#000000" stroke-width="1.0" stroke-linejoin="round" stroke-linecap="butt" d="m155.72122 538.89764l13.066177 0l0 -13.066162l0 0l0 13.066162l13.066177 0l0 0l-13.066177 0l0 13.066162l0 0l0 -13.066162l-13.066177 0z" fill-rule="evenodd"/>
    <path fill="#000000" fill-opacity="0.0" d="m375.58475 538.89764l13.066162 0l0 -13.066162l0 0l0 13.066162l13.066193 0l0 0l-13.066193 0l0 13.066162l0 0l0 -13.066162l-13.066162 0z" fill-rule="evenodd"/>
    <path stroke="#000000" stroke-width="1.0" stroke-linejoin="round" stroke-linecap="butt" d="m375.58475 538.89764l13.066162 0l0 -13.066162l0 0l0 13.066162l13.066193 0l0 0l-13.066193 0l0 13.066162l0 0l0 -13.066162l-13.066162 0z" fill-rule="evenodd"/>
    <path fill="#000000" fill-opacity="0.0" d="m238.86096 497.3034l39.858185 0l0 -39.858215l0 0l0 39.858215l39.858215 0l0 0l-39.858215 0l0 39.858154l0 0l0 -39.858154l-39.858185 0z" fill-rule="evenodd"/>
    <path stroke="#000000" stroke-width="1.0" stroke-linejoin="round" stroke-linecap="butt" d="m238.86096 497.3034l39.858185 0l0 -39.858215l0 0l0 39.858215l39.858215 0l0 0l-39.858215 0l0 39.858154l0 0l0 -39.858154l-39.858185 0z" fill-rule="evenodd"/>
    <path fill="#000000" fill-opacity="0.0" d="m261.38248 538.89764l17.33667 0l0 -17.336731l0 0l0 17.336731l17.3367 0l0 0l-17.3367 0l0 17.33667l0 0l0 -17.33667l-17.33667 0z" fill-rule="evenodd"/>
    <path stroke="#000000" stroke-width="1.0" stroke-linejoin="round" stroke-linecap="butt" d="m261.38248 538.89764l17.33667 0l0 -17.336731l0 0l0 17.336731l17.3367 0l0 0l-17.3367 0l0 17.33667l0 0l0 -17.33667l-17.33667 0z" fill-rule="evenodd"/>
    <path fill="#000000" fill-opacity="0.0" d="m223.96774 443.44968l14.047241 24.346466" fill-rule="evenodd"/>
    <path stroke="#000000" stroke-width="1.0" stroke-linejoin="round" stroke-linecap="butt" d="m223.96774 443.44968l14.047241 24.346466" fill-rule="evenodd"/>
    <path fill="#000000" fill-opacity="0.0" d="m318.5643 470.90552l14.551178 -25.196869" fill-rule="evenodd"/>
    <path stroke="#000000" stroke-width="1.0" stroke-linejoin="round" stroke-linecap="butt" d="m318.5643 470.90552l14.551178 -25.196869" fill-rule="evenodd"/>
    <path fill="#000000" fill-opacity="0.0" d="m213.36745 425.3281l8.314972 14.393677" fill-rule="evenodd"/>
    <path stroke="#000000" stroke-width="1.0" stroke-linejoin="round" stroke-linecap="butt" d="m213.36745 425.3281l8.314972 14.393677" fill-rule="evenodd"/>
    <path fill="#000000" fill-opacity="0.0" d="m148.58543 538.89764l-16.472427 0" fill-rule="evenodd"/>
    <path stroke="#000000" stroke-width="1.0" stroke-linejoin="round" stroke-linecap="butt" d="m148.58543 538.89764l-16.472427 0" fill-rule="evenodd"/>
    <path fill="#000000" fill-opacity="0.0" d="m134.79375 539.16l0 0c6.1778107 -48.20862 36.08162 -90.12262 79.657104 -111.64966l64.268295 130.09338z" fill-rule="evenodd"/>
    <path fill="#000000" fill-opacity="0.0" d="m134.79375 539.16l0 0c6.1778107 -48.20862 36.08162 -90.12262 79.657104 -111.64966" fill-rule="evenodd"/>
    <path stroke="#000000" stroke-width="1.0" stroke-linejoin="round" stroke-linecap="butt" d="m135.12955 536.70984l0.13754272 -0.9289551c0.056915283 -0.37426758 0.11526489 -0.74816895 0.17503357 -1.121582c0.23908997 -1.4937744 0.5010376 -2.981018 0.785553 -4.4612427c0.5690155 -2.9603882 1.2282562 -5.8928223 1.9752655 -8.793762c1.4940338 -5.801819 3.3391418 -11.477783 5.515686 -17.000336c4.3531036 -11.045166 10.031982 -21.476685 16.879547 -31.074402c6.8475494 -9.597717 14.863785 -18.361664 23.891586 -26.071594c4.513916 -3.85495 9.280716 -7.4464417 14.280792 -10.746887c2.5000153 -1.650238 5.0583496 -3.2276917 7.6725616 -4.7289734c1.3071136 -0.75061035 2.6281586 -1.4822083 3.9628906 -2.1943054c0.3336792 -0.17800903 0.66822815 -0.3548584 1.0036011 -0.530426l0.83366394 -0.43234253" fill-rule="evenodd"/>
    <path fill="#000000" stroke="#000000" stroke-width="1.0" stroke-linecap="butt" d="m135.12955 536.70984l-0.4947052 -0.65185547l0.35740662 1.6536255l0.7891388 -1.49646z" fill-rule="evenodd"/>
    <path fill="#000000" stroke="#000000" stroke-width="1.0" stroke-linecap="butt" d="m212.24329 428.62506l-0.2557068 0.77731323l1.1582947 -1.2330933l-1.6799164 0.20007324z" fill-rule="evenodd"/>
    <path fill="#000000" fill-opacity="0.0" d="m130.30399 467.29532l31.40158 -37.66928l28.53543 23.779541l-31.40158 37.66928z" fill-rule="evenodd"/>
    <path fill="#000000" d="m155.22615 461.0718l-0.74838257 1.0441895q-0.68621826 -0.34814453 -1.1503906 -0.32815552q-0.7602844 0.05795288 -1.250534 0.6460571q-0.3901825 0.4680481 -0.42625427 1.0481873q-0.054092407 0.7481384 0.37599182 1.5743408q0.42807007 0.8041992 1.6304169 1.826477q-0.25201416 -0.8201599 -0.085876465 -1.5563049q0.1661377 -0.736145 0.6363678 -1.3002319q0.83039856 -0.9961548 2.1428833 -1.0820923q1.3125 -0.0859375 2.4648285 0.87435913q0.7562256 0.630188 1.1362762 1.5163879q0.37805176 0.8641968 0.2459259 1.7303772q-0.13414001 0.8441467 -0.74443054 1.5762634q-1.0305023 1.236206 -2.5810852 1.2660828q-1.5625763 0.019927979 -3.6511688 -1.720581q-2.340683 -1.9505615 -2.6766357 -3.6949463q-0.29396057 -1.5263367 0.7665558 -2.798523q0.79039 -0.94815063 1.8407898 -1.1101074q1.0383911 -0.17196655 2.0747223 0.4882202zm0.097351074 6.9354553q0.51615906 0.43011475 1.1643829 0.604187q0.6482086 0.17410278 1.2204437 9.1552734E-5q0.5702362 -0.19598389 0.93040466 -0.62805176q0.5202484 -0.624115 0.3862915 -1.4882812q-0.13597107 -0.88619995 -1.0002136 -1.6064148q-0.8402405 -0.7001953 -1.690567 -0.65625q-0.8503113 0.043945312 -1.4105835 0.71606445q-0.5602722 0.6720886 -0.47032166 1.5402832q0.08995056 0.8681946 0.87016296 1.5183716zm2.9524078 -6.299164q-1.4284058 -1.1903381 -2.052536 -2.198578q-0.62612915 -1.0302734 -0.61402893 -1.99646q0.010101318 -0.9882202 0.740448 -1.8643494q0.54026794 -0.6481018 1.2045288 -0.9081116q0.6622772 -0.28201294 1.4245453 -0.19592285q0.7622833 0.08605957 1.6205597 0.49621582q0.85827637 0.41012573 2.0586243 1.4104309q1.4163971 1.1803284 2.0425262 2.2105713q0.62413025 1.0082703 0.6240387 1.9844666q-0.01210022 0.9661865 -0.75245667 1.8543396q-0.97047424 1.164154 -2.3589783 1.1460571q-1.6686096 -0.048095703 -3.937271 -1.9386597zm0.8504181 -1.0201416q1.9805756 1.6504822 3.0209503 1.7445679q1.0503693 0.08206177 1.6206512 -0.60202026q0.570282 -0.68411255 0.29026794 -1.6903381q-0.269989 -1.018219 -2.2505646 -2.6687012q-1.992569 -1.660492 -3.0309448 -1.7325745q-1.0403748 -0.09408569 -1.6206665 0.60202026q-0.5702667 0.68411255 -0.3342743 1.5722961q0.32400513 1.1242676 2.3045807 2.7747498z" fill-rule="nonzero"/>
    <path fill="#010000" fill-opacity="0.0" d="m156.88542 450.7322l3.7528992 -4.5019836l12.947037 10.789215l-3.7529144 4.5019836l-12.9470215 -10.789215z" fill-rule="nonzero"/>
    <path fill="#202124" d="m160.99448 452.95642q-0.6361847 -0.53015137 -0.7101288 -1.3443298q-0.07394409 -0.81417847 0.44630432 -1.4382629q0.54026794 -0.6481018 1.3545685 -0.7220459q0.81430054 -0.07397461 1.4504852 0.45617676q0.6361847 0.53015137 0.7001343 1.3563232q0.07394409 0.81417847 -0.4563141 1.4502869q-0.5202484 0.6240845 -1.3345642 0.6980591q-0.81430054 0.07394409 -1.4504852 -0.45620728zm0.50024414 -0.60009766q0.3841095 0.32009888 0.8802948 0.2861328q0.4941864 -0.05596924 0.8143463 -0.44003296q0.3201599 -0.38406372 0.27618408 -0.86816406q-0.045959473 -0.5061035 -0.43008423 -0.8262024q-0.3841095 -0.32009888 -0.8782959 -0.26412964q-0.4961853 0.033996582 -0.8163452 0.4180298q-0.32014465 0.38406372 -0.27418518 0.89016724q0.04397583 0.48413086 0.42808533 0.8041992z" fill-rule="nonzero"/>
    <path fill="#000000" fill-opacity="0.0" d="m160.63832 446.23022l0 0l12.947037 10.789215l0 0l-12.947037 -10.789215z" fill-rule="nonzero"/>
    <path fill="#000000" fill-opacity="0.0" d="m354.86023 122.40945l0 30.20472" fill-rule="evenodd"/>
    <path stroke="#000000" stroke-width="1.0" stroke-linejoin="round" stroke-linecap="butt" d="m354.86023 125.83653l0 23.350555" fill-rule="evenodd"/>
    <path fill="#000000" stroke="#000000" stroke-width="1.0" stroke-linecap="butt" d="m354.86023 125.83653l1.1246033 1.124588l-1.1246033 -3.0897675l-1.1245728 3.0897675z" fill-rule="evenodd"/>
    <path fill="#000000" stroke="#000000" stroke-width="1.0" stroke-linecap="butt" d="m354.86023 149.18709l-1.1245728 -1.124588l1.1245728 3.0897675l1.1246033 -3.0897675z" fill-rule="evenodd"/>
    <path fill="#000000" fill-opacity="0.0" d="m326.62466 161.90755l0 -50.204727l37.165375 0l0 50.204727z" fill-rule="evenodd"/>
    <path fill="#202124" d="m346.95468 146.3829l-0.109375 -1.34375q0.984375 -0.15625 1.484375 -0.703125q0.5 -0.546875 0.5 -1.328125q0 -0.921875 -0.703125 -1.5625q-0.703125 -0.65625 -1.859375 -0.65625q-1.109375 0 -1.734375 0.625q-0.640625 0.625 -0.640625 1.625q0 0.625 0.28125 1.125q0.28125 0.5 0.734375 0.78125l-0.15625 1.203125l-5.390625 -1.015625l0 -5.21875l1.21875 0l0 4.1875l2.828125 0.578125q-0.65625 -0.953125 -0.65625 -1.984375q0 -1.375 0.953125 -2.3125q0.953125 -0.953125 2.4375 -0.953125q1.4375 0 2.46875 0.828125q1.265625 1.015625 1.265625 2.75q0 1.4375 -0.796875 2.34375q-0.796875 0.90625 -2.125 1.03125zm2.75 -8.838608l-1.46875 0l0 -1.46875l1.46875 0q0.8125 0 1.296875 0.28125q0.5 0.28125 0.78125 0.90625l-0.546875 0.359375q-0.1875 -0.40625 -0.53125 -0.59375q-0.34375 -0.203125 -1.0 -0.21875l0 0.734375zm-2.75 -3.3844757l-0.109375 -1.34375q0.984375 -0.15625 1.484375 -0.703125q0.5 -0.546875 0.5 -1.328125q0 -0.921875 -0.703125 -1.5625q-0.703125 -0.65625 -1.859375 -0.65625q-1.109375 0 -1.734375 0.625q-0.640625 0.625 -0.640625 1.625q0 0.625 0.28125 1.125q0.28125 0.5 0.734375 0.78125l-0.15625 1.203125l-5.390625 -1.015625l0 -5.21875l1.21875 0l0 4.1875l2.828125 0.578125q-0.65625 -0.953125 -0.65625 -1.984375q0 -1.375 0.953125 -2.3125q0.953125 -0.953125 2.4375 -0.953125q1.4375 0 2.46875 0.828125q1.265625 1.015625 1.265625 2.75q0 1.4375 -0.796875 2.34375q-0.796875 0.90625 -2.125 1.03125z" fill-rule="nonzero"/>
  </g>
</svg>
