<?xml version="1.0"?>
<svg xmlns:xlink="http://www.w3.org/1999/xlink" xmlns="http://www.w3.org/2000/svg" version="1.1" viewBox="0.0 0.0 960.0 720.0" fill="none" stroke="none" stroke-linecap="square" stroke-miterlimit="10">
  <clipPath id="p.0">
    <path d="m0 0l960.0 0l0 720.0l-960.0 0l0 -720.0z" clip-rule="nonzero"/>
  </clipPath>
  <g clip-path="url(#p.0)">
    <path fill="#ffffff" d="m0 0l960.0 0l0 720.0l-960.0 0z" fill-rule="evenodd"/>
    <path fill="#000000" fill-opacity="0.0" d="m208.20131 121.53602l224.9764 0l0 255.37009l-224.9764 0z" fill-rule="evenodd"/>
    <path stroke="#000000" stroke-width="1.0" stroke-linejoin="round" stroke-linecap="butt" d="m208.20131 121.53602l224.9764 0l0 255.37009l-224.9764 0z" fill-rule="evenodd"/>
    <path fill="#000000" fill-opacity="0.0" d="m844.126 276.70078l0 -54.99211l37.165344 0l0 54.99211z" fill-rule="evenodd"/>
    <path fill="#202124" d="m859.081 255.89163l6.484375 6.421875q1.078125 -1.265625 1.078125 -2.953125q0 -1.890625 -1.328125 -3.234375q-1.34375 -1.34375 -3.234375 -1.34375q-1.71875 0 -3.0 1.109375zm5.921875 6.96875l-6.421875 -6.4375q-1.078125 1.28125 -1.078125 2.9375q0 1.890625 1.34375 3.234375q1.34375 1.328125 3.234375 1.328125q1.65625 0 2.921875 -1.0625zm-8.328125 -8.34375l0.5 -0.53125l1.34375 1.34375q1.5 -1.359375 3.5625 -1.359375q2.21875 0 3.796875 1.578125q1.578125 1.578125 1.578125 3.8125q0 2.03125 -1.328125 3.53125l1.4375 1.421875l-0.546875 0.53125l-1.4375 -1.421875q-1.5 1.3125 -3.5 1.3125q-2.234375 0 -3.8125 -1.578125q-1.578125 -1.578125 -1.578125 -3.796875q0 -2.0 1.3125 -3.515625l-1.328125 -1.328125z" fill-rule="nonzero"/>
    <path fill="#000000" d="m859.2841 246.06387l0.09375 1.28125q-0.75 0.171875 -1.09375 0.484375q-0.546875 0.53125 -0.546875 1.296875q0 0.609375 0.34375 1.078125q0.4375 0.609375 1.296875 0.96875q0.84375 0.34375 2.421875 0.359375q-0.71875 -0.46875 -1.0625 -1.140625q-0.34375 -0.671875 -0.34375 -1.40625q0 -1.296875 0.953125 -2.203125q0.953125 -0.90625 2.453125 -0.90625q0.984375 0 1.84375 0.4375q0.84375 0.421875 1.296875 1.171875q0.4375 0.734375 0.4375 1.6875q0 1.609375 -1.171875 2.625q-1.1875 1.015625 -3.90625 1.015625q-3.046875 0 -4.421875 -1.125q-1.203125 -0.984375 -1.203125 -2.640625q0 -1.234375 0.703125 -2.03125q0.6875 -0.796875 1.90625 -0.953125zm4.515625 5.265625q0.671875 0 1.28125 -0.28125q0.609375 -0.28125 0.9375 -0.78125q0.3125 -0.515625 0.3125 -1.078125q0 -0.8125 -0.65625 -1.390625q-0.671875 -0.59375 -1.796875 -0.59375q-1.09375 0 -1.71875 0.578125q-0.625 0.578125 -0.625 1.453125q0 0.875 0.625 1.484375q0.625 0.609375 1.640625 0.609375zm3.40625 -7.416733l-1.46875 0l0 -1.46875l1.46875 0q0.8125 0 1.296875 0.28125q0.5 0.28125 0.78125 0.90625l-0.546875 0.359375q-0.1875 -0.40625 -0.53125 -0.59375q-0.34375 -0.203125 -1.0 -0.21875l0 0.734375zm0 -7.5094757l-2.515625 0l0 4.546875l-1.171875 0l-6.796875 -4.78125l0 -1.0625l6.796875 0l0 -1.40625l1.171875 0l0 1.40625l2.515625 0l0 1.296875zm-3.6875 0l-4.734375 0l4.734375 3.28125l0 -3.28125z" fill-rule="nonzero"/>
    <path fill="#000000" fill-opacity="0.0" d="m266.39658 121.53602l108.566925 0l0 255.37009l-108.566925 0z" fill-rule="evenodd"/>
    <path stroke="#000000" stroke-width="1.0" stroke-linejoin="round" stroke-linecap="butt" d="m266.39658 121.53602l108.566925 0l0 255.37009l-108.566925 0z" fill-rule="evenodd"/>
    <path fill="#000000" fill-opacity="0.0" d="m433.15952 369.70688l0 -240.48463c0 -2.1994705 0.87371826 -4.308853 2.4289856 -5.864113c1.5552673 -1.5552597 3.6646423 -2.4290009 5.864105 -2.4290009l387.80136 0c0.0012207031 0 0.0021972656 9.613037E-4 0.0021972656 0.0021438599l-0.0021972656 257.06873l0 0c0 0.0011901855 -9.1552734E-4 0.0021362305 -0.0021362305 0.0021362305l-387.79922 -0.0021362305l0 0c-4.580139 0 -8.293091 -3.7129517 -8.293091 -8.293121z" fill-rule="evenodd"/>
    <path stroke="#000000" stroke-width="1.0" stroke-linejoin="round" stroke-linecap="butt" d="m433.15952 369.70688l0 -240.48463c0 -2.1994705 0.87371826 -4.308853 2.4289856 -5.864113c1.5552673 -1.5552597 3.6646423 -2.4290009 5.864105 -2.4290009l387.80136 0c0.0012207031 0 0.0021972656 9.613037E-4 0.0021972656 0.0021438599l-0.0021972656 257.06873l0 0c0 0.0011901855 -9.1552734E-4 0.0021362305 -0.0021362305 0.0021362305l-387.79922 -0.0021362305l0 0c-4.580139 0 -8.293091 -3.7129517 -8.293091 -8.293121z" fill-rule="evenodd"/>
    <path fill="#000000" fill-opacity="0.0" d="m182.28384 216.72107l25.88977 0l0 65.51181l-25.88977 0z" fill-rule="evenodd"/>
    <path stroke="#000000" stroke-width="1.0" stroke-linejoin="round" stroke-linecap="butt" d="m182.28384 216.72107l25.88977 0l0 65.51181l-25.88977 0z" fill-rule="evenodd"/>
    <path fill="#000000" fill-opacity="0.0" d="m182.28442 267.91333l-115.41041 0l0 -29.024094l102.99581 0l0 -8.367096l12.414597 0z" fill-rule="evenodd"/>
    <path stroke="#000000" stroke-width="1.0" stroke-linejoin="round" stroke-linecap="butt" d="m182.28442 267.91333l-115.41041 0l0 -29.024094l102.99581 0l0 -8.367096l12.414597 0z" fill-rule="evenodd"/>
    <path fill="#000000" fill-opacity="0.0" d="m841.17255 226.87192l0 44.629974c0 1.2780457 -0.5076904 2.5037231 -1.411377 3.4074402c-0.90374756 0.90371704 -2.1294556 1.411438 -3.4074707 1.411438l-7.08667 0c-2.4414062E-4 0 -4.272461E-4 -2.1362305E-4 -4.272461E-4 -4.5776367E-4l4.272461E-4 -54.267273l0 0c0 -2.4414062E-4 2.4414062E-4 -4.5776367E-4 4.8828125E-4 -4.5776367E-4l7.0861816 4.5776367E-4l0 0c2.661377 0 4.8188477 2.157486 4.8188477 4.818878z" fill-rule="evenodd"/>
    <path stroke="#000000" stroke-width="1.0" stroke-linejoin="round" stroke-linecap="butt" d="m841.17255 226.87192l0 44.629974c0 1.2780457 -0.5076904 2.5037231 -1.411377 3.4074402c-0.90374756 0.90371704 -2.1294556 1.411438 -3.4074707 1.411438l-7.08667 0c-2.4414062E-4 0 -4.272461E-4 -2.1362305E-4 -4.272461E-4 -4.5776367E-4l4.272461E-4 -54.267273l0 0c0 -2.4414062E-4 2.4414062E-4 -4.5776367E-4 4.8828125E-4 -4.5776367E-4l7.0861816 4.5776367E-4l0 0c2.661377 0 4.8188477 2.157486 4.8188477 4.818878z" fill-rule="evenodd"/>
    <path fill="#000000" fill-opacity="0.0" d="m855.18567 339.4042l0 2.8796997l0 0c0 1.6229248 -0.6446533 3.1793518 -1.7922363 4.326935c-1.147583 1.147583 -2.7040405 1.7922668 -4.3269653 1.7922668l-19.770569 0c-6.1035156E-5 0 -1.2207031E-4 -6.1035156E-5 -1.2207031E-4 -1.2207031E-4l1.2207031E-4 -15.117981l0 0c0 -6.1035156E-5 6.1035156E-5 -1.2207031E-4 1.8310547E-4 -1.2207031E-4l19.770386 1.2207031E-4l0 0c3.3795776 0 6.1192017 2.7396545 6.1192017 6.1192017z" fill-rule="evenodd"/>
    <path stroke="#000000" stroke-width="1.0" stroke-linejoin="round" stroke-linecap="butt" d="m855.18567 339.4042l0 2.8796997l0 0c0 1.6229248 -0.6446533 3.1793518 -1.7922363 4.326935c-1.147583 1.147583 -2.7040405 1.7922668 -4.3269653 1.7922668l-19.770569 0c-6.1035156E-5 0 -1.2207031E-4 -6.1035156E-5 -1.2207031E-4 -1.2207031E-4l1.2207031E-4 -15.117981l0 0c0 -6.1035156E-5 6.1035156E-5 -1.2207031E-4 1.8310547E-4 -1.2207031E-4l19.770386 1.2207031E-4l0 0c3.3795776 0 6.1192017 2.7396545 6.1192017 6.1192017z" fill-rule="evenodd"/>
    <path fill="#000000" fill-opacity="0.0" d="m855.18567 156.1226l0 2.8796844l0 0c0 1.6229248 -0.6446533 3.179367 -1.7922363 4.326935c-1.147583 1.147583 -2.7040405 1.7922821 -4.3269653 1.7922821l-19.770569 0c-6.1035156E-5 0 -1.2207031E-4 -6.1035156E-5 -1.2207031E-4 -1.373291E-4l1.2207031E-4 -15.117981l0 0c0 -6.1035156E-5 6.1035156E-5 -1.2207031E-4 1.8310547E-4 -1.2207031E-4l19.770386 1.2207031E-4l0 0c3.3795776 0 6.1192017 2.7396698 6.1192017 6.119217z" fill-rule="evenodd"/>
    <path stroke="#000000" stroke-width="1.0" stroke-linejoin="round" stroke-linecap="butt" d="m855.18567 156.1226l0 2.8796844l0 0c0 1.6229248 -0.6446533 3.179367 -1.7922363 4.326935c-1.147583 1.147583 -2.7040405 1.7922821 -4.3269653 1.7922821l-19.770569 0c-6.1035156E-5 0 -1.2207031E-4 -6.1035156E-5 -1.2207031E-4 -1.373291E-4l1.2207031E-4 -15.117981l0 0c0 -6.1035156E-5 6.1035156E-5 -1.2207031E-4 1.8310547E-4 -1.2207031E-4l19.770386 1.2207031E-4l0 0c3.3795776 0 6.1192017 2.7396698 6.1192017 6.119217z" fill-rule="evenodd"/>
    <path fill="#000000" fill-opacity="0.0" d="m844.126 222.05304l31.307068 0" fill-rule="evenodd"/>
    <path stroke="#000000" stroke-width="1.0" stroke-linejoin="round" stroke-linecap="butt" d="m844.126 222.05304l31.307068 0" fill-rule="evenodd"/>
    <path fill="#000000" fill-opacity="0.0" d="m844.126 276.33685l31.307068 0" fill-rule="evenodd"/>
    <path stroke="#000000" stroke-width="1.0" stroke-linejoin="round" stroke-linecap="butt" d="m844.126 276.33685l31.307068 0" fill-rule="evenodd"/>
    <path fill="#000000" fill-opacity="0.0" d="m872.3687 222.59157l0 53.98427" fill-rule="evenodd"/>
    <path stroke="#000000" stroke-width="1.0" stroke-linejoin="round" stroke-linecap="butt" d="m872.3687 226.01866l0 47.13008" fill-rule="evenodd"/>
    <path fill="#000000" stroke="#000000" stroke-width="1.0" stroke-linecap="butt" d="m872.3687 226.01866l1.1245728 1.124588l-1.1245728 -3.0897675l-1.1246338 3.0897675z" fill-rule="evenodd"/>
    <path fill="#000000" stroke="#000000" stroke-width="1.0" stroke-linecap="butt" d="m872.3687 273.14874l-1.1246338 -1.1245728l1.1246338 3.0897522l1.1245728 -3.0897522z" fill-rule="evenodd"/>
    <path fill="#000000" fill-opacity="0.0" d="m832.7008 120.926506l88.724365 0" fill-rule="evenodd"/>
    <path stroke="#000000" stroke-width="1.0" stroke-linejoin="round" stroke-linecap="butt" d="m832.7008 120.926506l88.724365 0" fill-rule="evenodd"/>
    <path fill="#000000" fill-opacity="0.0" d="m832.7008 376.87228l88.724365 0" fill-rule="evenodd"/>
    <path stroke="#000000" stroke-width="1.0" stroke-linejoin="round" stroke-linecap="butt" d="m832.7008 376.87228l88.724365 0" fill-rule="evenodd"/>
    <path fill="#000000" fill-opacity="0.0" d="m917.4164 123.46565l0 254.5197" fill-rule="evenodd"/>
    <path stroke="#000000" stroke-width="1.0" stroke-linejoin="round" stroke-linecap="butt" d="m917.4163 126.89274l0 247.6655" fill-rule="evenodd"/>
    <path fill="#000000" stroke="#000000" stroke-width="1.0" stroke-linecap="butt" d="m917.4163 126.89274l1.1245728 1.1245804l-1.1245728 -3.0897598l-1.1245728 3.0897598z" fill-rule="evenodd"/>
    <path fill="#000000" stroke="#000000" stroke-width="1.0" stroke-linecap="butt" d="m917.4163 374.55823l-1.1245728 -1.1245728l1.1245728 3.0897522l1.1245728 -3.0897522z" fill-rule="evenodd"/>
    <path fill="#000000" fill-opacity="0.0" d="m888.2021 280.39633l0 -61.70079l37.165344 0l0 61.70079z" fill-rule="evenodd"/>
    <path fill="#202124" d="m903.1571 260.3084l6.484375 6.421875q1.078125 -1.265625 1.078125 -2.953125q0 -1.890625 -1.328125 -3.234375q-1.34375 -1.34375 -3.234375 -1.34375q-1.71875 0 -3.0 1.109375zm5.921875 6.96875l-6.421875 -6.4375q-1.078125 1.28125 -1.078125 2.9375q0 1.890625 1.34375 3.234375q1.34375 1.328125 3.234375 1.328125q1.65625 0 2.921875 -1.0625zm-8.328125 -8.34375l0.5 -0.53125l1.34375 1.34375q1.5 -1.359375 3.5625 -1.359375q2.21875 0 3.796875 1.578125q1.578125 1.578125 1.578125 3.8125q0 2.03125 -1.328125 3.53125l1.4375 1.421875l-0.546875 0.53125l-1.4375 -1.421875q-1.5 1.3125 -3.5 1.3125q-2.234375 0 -3.8125 -1.578125q-1.578125 -1.578125 -1.578125 -3.796875q0 -2.0 1.3125 -3.515625l-1.328125 -1.328125z" fill-rule="nonzero"/>
    <path fill="#000000" d="m910.0477 250.40251l1.234375 0l0 6.9375153q-0.46875 0.015625 -0.890625 -0.15625q-0.71875 -0.265625 -1.40625 -0.84375q-0.6875 -0.59376526 -1.578125 -1.6875153q-1.40625 -1.71875 -2.21875 -2.3125q-0.828125 -0.609375 -1.5625 -0.609375q-0.765625 0 -1.28125 0.5625q-0.53125 0.546875 -0.53125 1.421875q0 0.921875 0.5625 1.484375q0.5625 0.5625 1.546875 0.5625l-0.140625 1.3281403q-1.484375 -0.140625 -2.25 -1.015625q-0.78125 -0.89064026 -0.78125 -2.3906403q0 -1.515625 0.84375 -2.390625q0.828125 -0.875 2.0625 -0.875q0.640625 0 1.25 0.265625q0.59375 0.25 1.265625 0.84375q0.671875 0.59375 1.859375 1.984375q0.96875 1.15625 1.3125 1.484375q0.34375 0.328125 0.703125 0.546875l0 -5.140625zm1.234375 -5.510483l-2.515625 0l0 4.546875l-1.171875 0l-6.796875 -4.78125l0 -1.0625l6.796875 0l0 -1.40625l1.171875 0l0 1.40625l2.515625 0l0 1.296875zm-3.6875 0l-4.734375 0l4.734375 3.28125l0 -3.28125zm3.6875 -4.713608l-1.46875 0l0 -1.46875l1.46875 0q0.8125 0 1.296875 0.28125q0.5 0.28125 0.78125 0.90625l-0.546875 0.359375q-0.1875 -0.40625 -0.53125 -0.59375q-0.34375 -0.203125 -1.0 -0.21875l0 0.734375zm0 -7.5094757l-2.515625 0l0 4.546875l-1.171875 0l-6.796875 -4.78125l0 -1.0625l6.796875 0l0 -1.40625l1.171875 0l0 1.40625l2.515625 0l0 1.296875zm-3.6875 0l-4.734375 0l4.734375 3.28125l0 -3.28125z" fill-rule="nonzero"/>
    <path fill="#000000" fill-opacity="0.0" d="m433.17807 117.79002l0 -88.72441" fill-rule="evenodd"/>
    <path stroke="#000000" stroke-width="1.0" stroke-linejoin="round" stroke-linecap="butt" d="m433.17807 117.79002l0 -88.72441" fill-rule="evenodd"/>
    <path fill="#000000" fill-opacity="0.0" d="m827.55743 117.79002l0 -88.72441" fill-rule="evenodd"/>
    <path stroke="#000000" stroke-width="1.0" stroke-linejoin="round" stroke-linecap="butt" d="m827.55743 117.79002l0 -88.72441" fill-rule="evenodd"/>
    <path fill="#000000" fill-opacity="0.0" d="m434.09055 33.07444l392.189 0" fill-rule="evenodd"/>
    <path stroke="#000000" stroke-width="1.0" stroke-linejoin="round" stroke-linecap="butt" d="m437.51764 33.07444l385.33478 0" fill-rule="evenodd"/>
    <path fill="#000000" stroke="#000000" stroke-width="1.0" stroke-linecap="butt" d="m437.51764 33.07444l1.1245728 -1.1245823l-3.0897522 1.1245823l3.0897522 1.1245842z" fill-rule="evenodd"/>
    <path fill="#000000" stroke="#000000" stroke-width="1.0" stroke-linecap="butt" d="m822.8524 33.07444l-1.1245728 1.1245842l3.0897827 -1.1245842l-3.0897827 -1.1245823z" fill-rule="evenodd"/>
    <path fill="#000000" fill-opacity="0.0" d="m600.23883 5.0656166l65.88977 0l0 37.165356l-65.88977 0z" fill-rule="evenodd"/>
    <path fill="#000000" d="m619.53046 25.379992l1.296875 -0.171875q0.21875 1.09375 0.75 1.578125q0.53125 0.484375 1.296875 0.484375q0.90625 0 1.53125 -0.625q0.640625 -0.640625 0.640625 -1.5625q0 -0.890625 -0.59375 -1.46875q-0.578125 -0.578125 -1.46875 -0.578125q-0.359375 0 -0.90625 0.140625l0.140625 -1.125q0.125 0.015625 0.203125 0.015625q0.828125 0 1.484375 -0.421875q0.65625 -0.4375 0.65625 -1.34375q0 -0.703125 -0.484375 -1.15625q-0.46875 -0.46875 -1.234375 -0.46875q-0.75 0 -1.25 0.46875q-0.5 0.46875 -0.640625 1.421875l-1.28125 -0.234375q0.234375 -1.296875 1.0625 -2.0q0.84375 -0.71875 2.09375 -0.71875q0.859375 0 1.578125 0.375q0.71875 0.359375 1.09375 1.0q0.390625 0.640625 0.390625 1.34375q0 0.6875 -0.375 1.25q-0.359375 0.546875 -1.0625 0.875q0.921875 0.21875 1.4375 0.90625q0.515625 0.671875 0.515625 1.6875q0 1.375 -1.0 2.328125q-1.0 0.953125 -2.53125 0.953125q-1.390625 0 -2.296875 -0.8125q-0.90625 -0.828125 -1.046875 -2.140625zm8.151123 -2.40625q0 -1.859375 0.375 -2.984375q0.390625 -1.140625 1.140625 -1.75q0.765625 -0.625 1.90625 -0.625q0.84375 0 1.46875 0.34375q0.640625 0.328125 1.0625 0.96875q0.421875 0.640625 0.65625 1.5625q0.234375 0.921875 0.234375 2.484375q0 1.84375 -0.390625 2.984375q-0.375 1.125 -1.125 1.75q-0.75 0.609375 -1.90625 0.609375q-1.515625 0 -2.390625 -1.078125q-1.03125 -1.3125 -1.03125 -4.265625zm1.328125 0q0 2.578125 0.59375 3.4375q0.609375 0.859375 1.5 0.859375q0.890625 0 1.484375 -0.859375q0.609375 -0.859375 0.609375 -3.4375q0 -2.59375 -0.609375 -3.4375q-0.59375 -0.859375 -1.5 -0.859375q-0.890625 0 -1.421875 0.75q-0.65625 0.96875 -0.65625 3.546875zm7.510498 5.171875l0 -1.46875l1.46875 0l0 1.46875q0 0.8125 -0.28125 1.296875q-0.28125 0.5 -0.90625 0.78125l-0.359375 -0.546875q0.40625 -0.1875 0.59375 -0.53125q0.203125 -0.34375 0.21875 -1.0l-0.734375 0zm5.3688354 -5.6875q-0.796875 -0.296875 -1.1875 -0.84375q-0.390625 -0.546875 -0.390625 -1.296875q0 -1.140625 0.8125 -1.921875q0.828125 -0.78125 2.203125 -0.78125q1.375 0 2.203125 0.796875q0.84375 0.796875 0.84375 1.9375q0 0.734375 -0.390625 1.28125q-0.375 0.53125 -1.15625 0.828125q0.96875 0.3125 1.46875 1.015625q0.5 0.703125 0.5 1.671875q0 1.34375 -0.953125 2.265625q-0.9375 0.90625 -2.5 0.90625q-1.546875 0 -2.5 -0.90625q-0.953125 -0.921875 -0.953125 -2.296875q0 -1.03125 0.515625 -1.71875q0.515625 -0.6875 1.484375 -0.9375zm-0.265625 -2.1875q0 0.75 0.484375 1.21875q0.484375 0.46875 1.25 0.46875q0.734375 0 1.203125 -0.46875q0.484375 -0.46875 0.484375 -1.140625q0 -0.71875 -0.5 -1.1875q-0.484375 -0.484375 -1.203125 -0.484375q-0.734375 0 -1.234375 0.46875q-0.484375 0.46875 -0.484375 1.125zm-0.40625 4.84375q0 0.5625 0.25 1.078125q0.265625 0.5 0.78125 0.796875q0.515625 0.28125 1.109375 0.28125q0.921875 0 1.515625 -0.59375q0.609375 -0.59375 0.609375 -1.515625q0 -0.9375 -0.625 -1.53125q-0.609375 -0.609375 -1.546875 -0.609375q-0.90625 0 -1.5 0.609375q-0.59375 0.59375 -0.59375 1.484375z" fill-rule="nonzero"/>
    <path fill="#000000" fill-opacity="0.0" d="m208.20267 117.79002l0 -88.72441" fill-rule="evenodd"/>
    <path stroke="#000000" stroke-width="1.0" stroke-linejoin="round" stroke-linecap="butt" d="m208.20267 117.79002l0 -88.72441" fill-rule="evenodd"/>
    <path fill="#000000" fill-opacity="0.0" d="m209.70079 33.07349l223.08662 0" fill-rule="evenodd"/>
    <path stroke="#000000" stroke-width="1.0" stroke-linejoin="round" stroke-linecap="butt" d="m213.12787 33.07349l216.23245 0" fill-rule="evenodd"/>
    <path fill="#000000" stroke="#000000" stroke-width="1.0" stroke-linecap="butt" d="m213.12787 33.07349l1.124588 -1.1245823l-3.0897675 1.1245823l3.0897675 1.1245842z" fill-rule="evenodd"/>
    <path fill="#000000" stroke="#000000" stroke-width="1.0" stroke-linecap="butt" d="m429.36032 33.07349l-1.1246033 1.1245842l3.0897827 -1.1245842l-3.0897827 -1.1245823z" fill-rule="evenodd"/>
    <path fill="#000000" fill-opacity="0.0" d="m287.74542 5.4908137l65.88974 0l0 37.16535l-65.88974 0z" fill-rule="evenodd"/>
    <path fill="#000000" d="m311.88077 28.570814l-1.28125 0l0 -8.203125q-0.46875 0.4375 -1.21875 0.890625q-0.75 0.4375 -1.359375 0.65625l0 -1.25q1.078125 -0.5 1.890625 -1.21875q0.8125 -0.734375 1.140625 -1.40625l0.828125 0l0 10.53125zm3.494873 -2.421875l1.25 -0.125q0.15625 0.875 0.59375 1.28125q0.4375 0.390625 1.140625 0.390625q0.59375 0 1.03125 -0.265625q0.453125 -0.28125 0.734375 -0.734375q0.296875 -0.453125 0.484375 -1.21875q0.1875 -0.78125 0.1875 -1.59375q0 -0.078125 0 -0.25q-0.390625 0.609375 -1.0625 1.0q-0.65625 0.375 -1.4375 0.375q-1.3125 0 -2.21875 -0.9375q-0.890625 -0.953125 -0.890625 -2.484375q0 -1.609375 0.9375 -2.578125q0.9375 -0.96875 2.359375 -0.96875q1.03125 0 1.875 0.546875q0.84375 0.546875 1.28125 1.578125q0.4375 1.015625 0.4375 2.953125q0 2.0 -0.4375 3.203125q-0.421875 1.1875 -1.296875 1.8125q-0.859375 0.609375 -2.015625 0.609375q-1.234375 0 -2.015625 -0.671875q-0.78125 -0.6875 -0.9375 -1.921875zm5.28125 -4.640625q0 -1.109375 -0.59375 -1.75q-0.59375 -0.65625 -1.421875 -0.65625q-0.859375 0 -1.5 0.703125q-0.625 0.703125 -0.625 1.8125q0 1.0 0.59375 1.640625q0.609375 0.625 1.5 0.625q0.890625 0 1.46875 -0.625q0.578125 -0.640625 0.578125 -1.75zm3.3698425 7.0625l0 -1.46875l1.46875 0l0 1.46875q0 0.8125 -0.28125 1.296875q-0.28125 0.5 -0.90625 0.78125l-0.359375 -0.546875q0.40625 -0.1875 0.59375 -0.53125q0.203125 -0.34375 0.21875 -1.0l-0.734375 0zm3.384491 -5.171875q0 -1.859375 0.375 -2.984375q0.390625 -1.140625 1.140625 -1.75q0.765625 -0.625 1.90625 -0.625q0.84375 0 1.46875 0.34375q0.640625 0.328125 1.0625 0.96875q0.421875 0.640625 0.65625 1.5625q0.234375 0.921875 0.234375 2.484375q0 1.84375 -0.390625 2.984375q-0.375 1.125 -1.125 1.75q-0.75 0.609375 -1.90625 0.609375q-1.515625 0 -2.390625 -1.078125q-1.03125 -1.3125 -1.03125 -4.265625zm1.328125 0q0 2.578125 0.59375 3.4375q0.609375 0.859375 1.5 0.859375q0.890625 0 1.484375 -0.859375q0.609375 -0.859375 0.609375 -3.4375q0 -2.59375 -0.609375 -3.4375q-0.59375 -0.859375 -1.5 -0.859375q-0.890625 0 -1.421875 0.75q-0.65625 0.96875 -0.65625 3.546875z" fill-rule="nonzero"/>
    <path fill="#000000" fill-opacity="0.0" d="m510.67978 222.05249l245.0079 0l0 64.62991l-245.0079 0z" fill-rule="evenodd"/>
    <path fill="#000000" d="m576.76495 244.28499l1.765625 0.453125q-0.5625 2.171875 -2.0 3.328125q-1.4375 1.140625 -3.53125 1.140625q-2.15625 0 -3.515625 -0.875q-1.34375 -0.890625 -2.0625 -2.546875q-0.703125 -1.671875 -0.703125 -3.59375q0 -2.078125 0.796875 -3.625q0.796875 -1.5625 2.265625 -2.359375q1.484375 -0.8125 3.25 -0.8125q2.0 0 3.359375 1.015625q1.375 1.015625 1.90625 2.875l-1.734375 0.40625q-0.46875 -1.453125 -1.359375 -2.109375q-0.875 -0.671875 -2.203125 -0.671875q-1.546875 0 -2.578125 0.734375q-1.03125 0.734375 -1.453125 1.984375q-0.421875 1.234375 -0.421875 2.5625q0 1.703125 0.5 2.96875q0.5 1.265625 1.546875 1.90625q1.046875 0.625 2.265625 0.625q1.484375 0 2.515625 -0.859375q1.03125 -0.859375 1.390625 -2.546875zm4.0042114 4.6875l0 -13.359375l1.765625 0l0 5.484375l6.9375 0l0 -5.484375l1.765625 0l0 13.359375l-1.765625 0l0 -6.296875l-6.9375 0l0 6.296875l-1.765625 0zm13.441711 0l0 -13.359375l5.921875 0q1.78125 0 2.703125 0.359375q0.9375 0.359375 1.484375 1.28125q0.5625 0.90625 0.5625 2.015625q0 1.40625 -0.921875 2.390625q-0.921875 0.96875 -2.84375 1.234375q0.703125 0.34375 1.078125 0.671875q0.765625 0.703125 1.453125 1.765625l2.328125 3.640625l-2.21875 0l-1.765625 -2.78125q-0.78125 -1.203125 -1.28125 -1.828125q-0.5 -0.640625 -0.90625 -0.890625q-0.390625 -0.265625 -0.796875 -0.359375q-0.296875 -0.078125 -0.984375 -0.078125l-2.046875 0l0 5.9375l-1.765625 0zm1.765625 -7.453125l3.796875 0q1.21875 0 1.890625 -0.25q0.6875 -0.265625 1.046875 -0.8125q0.359375 -0.546875 0.359375 -1.1875q0 -0.953125 -0.6875 -1.5625q-0.6875 -0.609375 -2.1875 -0.609375l-4.21875 0l0 4.421875zm10.832336 3.4375l0 -1.640625l5.03125 0l0 1.640625l-5.03125 0zm13.3063965 -1.21875l0 -1.578125l5.65625 0l0 4.953125q-1.296875 1.046875 -2.6875 1.578125q-1.375 0.515625 -2.84375 0.515625q-1.96875 0 -3.578125 -0.84375q-1.609375 -0.84375 -2.421875 -2.4375q-0.8125 -1.59375 -0.8125 -3.5625q0 -1.953125 0.8125 -3.640625q0.8125 -1.6875 2.34375 -2.5q1.53125 -0.828125 3.515625 -0.828125q1.453125 0 2.625 0.46875q1.171875 0.46875 1.828125 1.3125q0.671875 0.828125 1.015625 2.171875l-1.59375 0.4375q-0.296875 -1.015625 -0.75 -1.59375q-0.4375 -0.59375 -1.265625 -0.9375q-0.828125 -0.34375 -1.84375 -0.34375q-1.203125 0 -2.09375 0.375q-0.890625 0.359375 -1.4375 0.96875q-0.53125 0.59375 -0.828125 1.3125q-0.515625 1.234375 -0.515625 2.6875q0 1.78125 0.609375 2.984375q0.625 1.203125 1.796875 1.796875q1.171875 0.578125 2.5 0.578125q1.140625 0 2.234375 -0.4375q1.09375 -0.453125 1.65625 -0.953125l0 -2.484375l-3.921875 0zm8.214539 5.234375l0 -13.359375l2.65625 0l3.15625 9.453125q0.4375 1.328125 0.640625 1.984375q0.234375 -0.734375 0.703125 -2.140625l3.203125 -9.296875l2.375 0l0 13.359375l-1.703125 0l0 -11.171875l-3.875 11.171875l-1.59375 0l-3.859375 -11.375l0 11.375l-1.703125 0zm23.540833 -1.578125l0 1.578125l-8.828125 0q-0.015625 -0.59375 0.1875 -1.140625q0.34375 -0.90625 1.078125 -1.78125q0.75 -0.875 2.15625 -2.015625q2.171875 -1.78125 2.9375 -2.828125q0.765625 -1.046875 0.765625 -1.96875q0 -0.984375 -0.703125 -1.640625q-0.6875 -0.671875 -1.8125 -0.671875q-1.1875 0 -1.90625 0.71875q-0.703125 0.703125 -0.703125 1.953125l-1.6875 -0.171875q0.171875 -1.890625 1.296875 -2.875q1.140625 -0.984375 3.03125 -0.984375q1.921875 0 3.046875 1.0625q1.125 1.0625 1.125 2.640625q0 0.796875 -0.328125 1.578125q-0.328125 0.78125 -1.09375 1.640625q-0.75 0.84375 -2.53125 2.34375q-1.46875 1.234375 -1.890625 1.6875q-0.421875 0.4375 -0.6875 0.875l6.546875 0zm1.7663574 -1.921875l1.71875 -0.140625q0.1875 1.25 0.875 1.890625q0.703125 0.625 1.6875 0.625q1.1875 0 2.0 -0.890625q0.828125 -0.890625 0.828125 -2.359375q0 -1.40625 -0.796875 -2.21875q-0.78125 -0.8125 -2.0625 -0.8125q-0.78125 0 -1.421875 0.359375q-0.640625 0.359375 -1.0 0.9375l-1.546875 -0.203125l1.296875 -6.859375l6.640625 0l0 1.5625l-5.328125 0l-0.71875 3.59375q1.203125 -0.84375 2.515625 -0.84375q1.75 0 2.953125 1.21875q1.203125 1.203125 1.203125 3.109375q0 1.8125 -1.046875 3.140625q-1.296875 1.625 -3.515625 1.625q-1.8125 0 -2.96875 -1.015625q-1.15625 -1.03125 -1.3125 -2.71875zm10.188171 -0.515625l0 -1.640625l5.03125 0l0 1.640625l-5.03125 0zm6.4002075 0.484375l1.640625 -0.21875q0.28125 1.40625 0.953125 2.015625q0.6875 0.609375 1.65625 0.609375q1.15625 0 1.953125 -0.796875q0.796875 -0.796875 0.796875 -1.984375q0 -1.125 -0.734375 -1.859375q-0.734375 -0.734375 -1.875 -0.734375q-0.46875 0 -1.15625 0.171875l0.1875 -1.4375q0.15625 0.015625 0.265625 0.015625q1.046875 0 1.875 -0.546875q0.84375 -0.546875 0.84375 -1.671875q0 -0.90625 -0.609375 -1.5q-0.609375 -0.59375 -1.578125 -0.59375q-0.953125 0 -1.59375 0.609375q-0.640625 0.59375 -0.8125 1.796875l-1.640625 -0.296875q0.296875 -1.640625 1.359375 -2.546875q1.0625 -0.90625 2.65625 -0.90625q1.09375 0 2.0 0.46875q0.921875 0.46875 1.40625 1.28125q0.5 0.8125 0.5 1.71875q0 0.859375 -0.46875 1.578125q-0.46875 0.703125 -1.375 1.125q1.1875 0.28125 1.84375 1.140625q0.65625 0.859375 0.65625 2.15625q0 1.734375 -1.28125 2.953125q-1.265625 1.21875 -3.21875 1.21875q-1.765625 0 -2.921875 -1.046875q-1.15625 -1.046875 -1.328125 -2.71875zm10.485107 -8.078125l0 -1.578125l8.640625 0l0 1.28125q-1.28125 1.359375 -2.53125 3.609375q-1.25 2.25 -1.9375 4.625q-0.484375 1.671875 -0.625 3.671875l-1.6875 0q0.03125 -1.578125 0.625 -3.8125q0.59375 -2.234375 1.6875 -4.296875q1.109375 -2.078125 2.359375 -3.5l-6.53125 0zm10.266296 5.015625q0 -2.359375 0.484375 -3.796875q0.484375 -1.453125 1.4375 -2.234375q0.96875 -0.78125 2.421875 -0.78125q1.078125 0 1.890625 0.4375q0.8125 0.421875 1.328125 1.25q0.53125 0.8125 0.828125 1.984375q0.3125 1.15625 0.3125 3.140625q0 2.359375 -0.484375 3.8125q-0.484375 1.4375 -1.453125 2.234375q-0.953125 0.78125 -2.421875 0.78125q-1.921875 0 -3.03125 -1.390625q-1.3125 -1.671875 -1.3125 -5.4375zm1.671875 0q0 3.296875 0.765625 4.390625q0.78125 1.078125 1.90625 1.078125q1.140625 0 1.90625 -1.09375q0.765625 -1.09375 0.765625 -4.375q0 -3.296875 -0.765625 -4.375q-0.765625 -1.078125 -1.921875 -1.078125q-1.125 0 -1.796875 0.953125q-0.859375 1.21875 -0.859375 4.5z" fill-rule="nonzero"/>
    <path fill="#000000" d="m532.7815 271.3725l0 -11.78125l-4.40625 0l0 -1.578125l10.578125 0l0 1.578125l-4.40625 0l0 11.78125l-1.765625 0zm5.1082153 -4.84375q0 -2.6875 1.484375 -3.96875q1.25 -1.078125 3.046875 -1.078125q2.0 0 3.265625 1.3125q1.265625 1.296875 1.265625 3.609375q0 1.859375 -0.5625 2.9375q-0.5625 1.0625 -1.640625 1.65625q-1.0625 0.59375 -2.328125 0.59375q-2.03125 0 -3.28125 -1.296875q-1.25 -1.3125 -1.25 -3.765625zm1.6875 0q0 1.859375 0.796875 2.796875q0.8125 0.921875 2.046875 0.921875q1.21875 0 2.03125 -0.921875q0.8125 -0.9375 0.8125 -2.84375q0 -1.796875 -0.8125 -2.71875q-0.8125 -0.921875 -2.03125 -0.921875q-1.234375 0 -2.046875 0.921875q-0.796875 0.90625 -0.796875 2.765625zm12.875732 3.375l0.234375 1.453125q-0.6875 0.140625 -1.234375 0.140625q-0.890625 0 -1.390625 -0.28125q-0.484375 -0.28125 -0.6875 -0.734375q-0.203125 -0.46875 -0.203125 -1.9375l0 -5.578125l-1.203125 0l0 -1.265625l1.203125 0l0 -2.390625l1.625 -0.984375l0 3.375l1.65625 0l0 1.265625l-1.65625 0l0 5.671875q0 0.6875 0.078125 0.890625q0.09375 0.203125 0.28125 0.328125q0.203125 0.109375 0.578125 0.109375q0.265625 0 0.71875 -0.0625zm8.230164 -1.640625l1.6875 0.203125q-0.40625 1.484375 -1.484375 2.3125q-1.078125 0.8125 -2.765625 0.8125q-2.125 0 -3.375 -1.296875q-1.234375 -1.3125 -1.234375 -3.671875q0 -2.453125 1.25 -3.796875q1.265625 -1.34375 3.265625 -1.34375q1.9375 0 3.15625 1.328125q1.234375 1.3125 1.234375 3.703125q0 0.15625 0 0.4375l-7.21875 0q0.09375 1.59375 0.90625 2.453125q0.8125 0.84375 2.015625 0.84375q0.90625 0 1.546875 -0.46875q0.640625 -0.484375 1.015625 -1.515625zm-5.390625 -2.65625l5.40625 0q-0.109375 -1.21875 -0.625 -1.828125q-0.78125 -0.953125 -2.03125 -0.953125q-1.125 0 -1.90625 0.765625q-0.765625 0.75 -0.84375 2.015625zm9.141357 5.765625l0 -9.671875l1.46875 0l0 1.359375q0.453125 -0.71875 1.203125 -1.140625q0.765625 -0.4375 1.71875 -0.4375q1.078125 0 1.765625 0.453125q0.6875 0.4375 0.96875 1.234375q1.15625 -1.6875 2.984375 -1.6875q1.453125 0 2.21875 0.796875q0.78125 0.796875 0.78125 2.453125l0 6.640625l-1.640625 0l0 -6.09375q0 -0.984375 -0.15625 -1.40625q-0.15625 -0.4375 -0.578125 -0.703125q-0.421875 -0.265625 -0.984375 -0.265625q-1.015625 0 -1.6875 0.6875q-0.671875 0.671875 -0.671875 2.15625l0 5.625l-1.640625 0l0 -6.28125q0 -1.09375 -0.40625 -1.640625q-0.40625 -0.546875 -1.3125 -0.546875q-0.6875 0 -1.28125 0.359375q-0.59375 0.359375 -0.859375 1.0625q-0.25 0.703125 -0.25 2.03125l0 5.015625l-1.640625 0zm20.927185 0l0 -13.359375l4.609375 0q1.546875 0 2.375 0.203125q1.140625 0.25 1.953125 0.953125q1.0625 0.890625 1.578125 2.28125q0.53125 1.390625 0.53125 3.171875q0 1.515625 -0.359375 2.703125q-0.359375 1.171875 -0.921875 1.9375q-0.546875 0.765625 -1.203125 1.21875q-0.65625 0.4375 -1.59375 0.671875q-0.9375 0.21875 -2.140625 0.21875l-4.828125 0zm1.765625 -1.578125l2.859375 0q1.3125 0 2.0625 -0.234375q0.75 -0.25 1.203125 -0.703125q0.625 -0.625 0.96875 -1.6875q0.359375 -1.0625 0.359375 -2.578125q0 -2.09375 -0.6875 -3.21875q-0.6875 -1.125 -1.671875 -1.5q-0.703125 -0.28125 -2.28125 -0.28125l-2.8125 0l0 10.203125zm21.238586 -3.109375l1.765625 0.453125q-0.5625 2.171875 -2.0 3.328125q-1.4375 1.140625 -3.53125 1.140625q-2.15625 0 -3.515625 -0.875q-1.34375 -0.890625 -2.0625 -2.546875q-0.703125 -1.671875 -0.703125 -3.59375q0 -2.078125 0.796875 -3.625q0.796875 -1.5625 2.265625 -2.359375q1.484375 -0.8125 3.25 -0.8125q2.0 0 3.359375 1.015625q1.375 1.015625 1.90625 2.875l-1.734375 0.40625q-0.46875 -1.453125 -1.359375 -2.109375q-0.875 -0.671875 -2.203125 -0.671875q-1.546875 0 -2.578125 0.734375q-1.03125 0.734375 -1.453125 1.984375q-0.421875 1.234375 -0.421875 2.5625q0 1.703125 0.5 2.96875q0.5 1.265625 1.546875 1.90625q1.046875 0.625 2.265625 0.625q1.484375 0 2.515625 -0.859375q1.03125 -0.859375 1.390625 -2.546875zm14.640625 4.6875l-1.640625 0l0 -10.453125q-0.59375 0.5625 -1.5625 1.140625q-0.953125 0.5625 -1.71875 0.84375l0 -1.59375q1.375 -0.640625 2.40625 -1.5625q1.03125 -0.921875 1.453125 -1.78125l1.0625 0l0 13.40625zm12.813232 -1.578125l0 1.578125l-8.828125 0q-0.015625 -0.59375 0.1875 -1.140625q0.34375 -0.90625 1.078125 -1.78125q0.75 -0.875 2.15625 -2.015625q2.171875 -1.78125 2.9375 -2.828125q0.765625 -1.046875 0.765625 -1.96875q0 -0.984375 -0.703125 -1.640625q-0.6875 -0.671875 -1.8125 -0.671875q-1.1875 0 -1.90625 0.71875q-0.703125 0.703125 -0.703125 1.953125l-1.6875 -0.171875q0.171875 -1.890625 1.296875 -2.875q1.140625 -0.984375 3.03125 -0.984375q1.921875 0 3.046875 1.0625q1.125 1.0625 1.125 2.640625q0 0.796875 -0.328125 1.578125q-0.328125 0.78125 -1.09375 1.640625q-0.75 0.84375 -2.53125 2.34375q-1.46875 1.234375 -1.890625 1.6875q-0.421875 0.4375 -0.6875 0.875l6.546875 0zm2.6726074 1.578125l0 -1.875l1.875 0l0 1.875l-1.875 0zm4.2770386 -6.59375q0 -2.359375 0.484375 -3.796875q0.484375 -1.453125 1.4375 -2.234375q0.96875 -0.78125 2.421875 -0.78125q1.078125 0 1.890625 0.4375q0.8125 0.421875 1.328125 1.25q0.53125 0.8125 0.828125 1.984375q0.3125 1.15625 0.3125 3.140625q0 2.359375 -0.484375 3.8125q-0.484375 1.4375 -1.453125 2.234375q-0.953125 0.78125 -2.421875 0.78125q-1.921875 0 -3.03125 -1.390625q-1.3125 -1.671875 -1.3125 -5.4375zm1.671875 0q0 3.296875 0.765625 4.390625q0.78125 1.078125 1.90625 1.078125q1.140625 0 1.90625 -1.09375q0.765625 -1.09375 0.765625 -4.375q0 -3.296875 -0.765625 -4.375q-0.765625 -1.078125 -1.921875 -1.078125q-1.125 0 -1.796875 0.953125q-0.859375 1.21875 -0.859375 4.5zm13.172607 6.59375l-5.171875 -13.359375l1.921875 0l3.46875 9.703125q0.421875 1.171875 0.703125 2.1875q0.3125 -1.09375 0.71875 -2.1875l3.609375 -9.703125l1.796875 0l-5.234375 13.359375l-1.8125 0zm18.408081 0l0 -3.203125l-5.796875 0l0 -1.5l6.09375 -8.65625l1.34375 0l0 8.65625l1.796875 0l0 1.5l-1.796875 0l0 3.203125l-1.640625 0zm0 -4.703125l0 -6.015625l-4.1875 6.015625l4.1875 0zm5.1257324 -1.890625q0 -2.359375 0.484375 -3.796875q0.484375 -1.453125 1.4375 -2.234375q0.96875 -0.78125 2.421875 -0.78125q1.078125 0 1.890625 0.4375q0.8125 0.421875 1.328125 1.25q0.53125 0.8125 0.828125 1.984375q0.3125 1.15625 0.3125 3.140625q0 2.359375 -0.484375 3.8125q-0.484375 1.4375 -1.453125 2.234375q-0.953125 0.78125 -2.421875 0.78125q-1.921875 0 -3.03125 -1.390625q-1.3125 -1.671875 -1.3125 -5.4375zm1.671875 0q0 3.296875 0.765625 4.390625q0.78125 1.078125 1.90625 1.078125q1.140625 0 1.90625 -1.09375q0.765625 -1.09375 0.765625 -4.375q0 -3.296875 -0.765625 -4.375q-0.765625 -1.078125 -1.921875 -1.078125q-1.125 0 -1.796875 0.953125q-0.859375 1.21875 -0.859375 4.5zm8.703857 0q0 -2.359375 0.484375 -3.796875q0.484375 -1.453125 1.4375 -2.234375q0.96875 -0.78125 2.421875 -0.78125q1.078125 0 1.890625 0.4375q0.8125 0.421875 1.328125 1.25q0.53125 0.8125 0.828125 1.984375q0.3125 1.15625 0.3125 3.140625q0 2.359375 -0.484375 3.8125q-0.484375 1.4375 -1.453125 2.234375q-0.953125 0.78125 -2.421875 0.78125q-1.921875 0 -3.03125 -1.390625q-1.3125 -1.671875 -1.3125 -5.4375zm1.671875 0q0 3.296875 0.765625 4.390625q0.78125 1.078125 1.90625 1.078125q1.140625 0 1.90625 -1.09375q0.765625 -1.09375 0.765625 -4.375q0 -3.296875 -0.765625 -4.375q-0.765625 -1.078125 -1.921875 -1.078125q-1.125 0 -1.796875 0.953125q-0.859375 1.21875 -0.859375 4.5zm14.324646 6.59375l0 -9.671875l1.46875 0l0 1.46875q0.5625 -1.03125 1.03125 -1.359375q0.484375 -0.328125 1.0625 -0.328125q0.828125 0 1.6875 0.53125l-0.5625 1.515625q-0.609375 -0.359375 -1.203125 -0.359375q-0.546875 0 -0.96875 0.328125q-0.421875 0.328125 -0.609375 0.890625q-0.28125 0.875 -0.28125 1.921875l0 5.0625l-1.625 0zm6.2282715 3.703125l0 -13.375l1.484375 0l0 1.25q0.53125 -0.734375 1.1875 -1.09375q0.671875 -0.375 1.625 -0.375q1.234375 0 2.171875 0.640625q0.953125 0.625 1.4375 1.796875q0.484375 1.15625 0.484375 2.546875q0 1.484375 -0.53125 2.671875q-0.53125 1.1875 -1.546875 1.828125q-1.015625 0.625 -2.140625 0.625q-0.8125 0 -1.46875 -0.34375q-0.65625 -0.34375 -1.0625 -0.875l0 4.703125l-1.640625 0zm1.484375 -8.484375q0 1.859375 0.75 2.765625q0.765625 0.890625 1.828125 0.890625q1.09375 0 1.875 -0.921875q0.78125 -0.9375 0.78125 -2.875q0 -1.84375 -0.765625 -2.765625q-0.75 -0.921875 -1.8125 -0.921875q-1.046875 0 -1.859375 0.984375q-0.796875 0.96875 -0.796875 2.84375zm8.891357 4.78125l0 -9.671875l1.46875 0l0 1.359375q0.453125 -0.71875 1.203125 -1.140625q0.765625 -0.4375 1.71875 -0.4375q1.078125 0 1.765625 0.453125q0.6875 0.4375 0.96875 1.234375q1.15625 -1.6875 2.984375 -1.6875q1.453125 0 2.21875 0.796875q0.78125 0.796875 0.78125 2.453125l0 6.640625l-1.640625 0l0 -6.09375q0 -0.984375 -0.15625 -1.40625q-0.15625 -0.4375 -0.578125 -0.703125q-0.421875 -0.265625 -0.984375 -0.265625q-1.015625 0 -1.6875 0.6875q-0.671875 0.671875 -0.671875 2.15625l0 5.625l-1.640625 0l0 -6.28125q0 -1.09375 -0.40625 -1.640625q-0.40625 -0.546875 -1.3125 -0.546875q-0.6875 0 -1.28125 0.359375q-0.59375 0.359375 -0.859375 1.0625q-0.25 0.703125 -0.25 2.03125l0 5.015625l-1.640625 0z" fill-rule="nonzero"/>
    <path fill="#000000" fill-opacity="0.0" d="m66.874016 227.0l0 -197.85826" fill-rule="evenodd"/>
    <path stroke="#000000" stroke-width="1.0" stroke-linejoin="round" stroke-linecap="butt" d="m66.874016 227.0l0 -197.85826" fill-rule="evenodd"/>
    <path fill="#000000" fill-opacity="0.0" d="m67.80676 33.149605l138.89764 0" fill-rule="evenodd"/>
    <path stroke="#000000" stroke-width="1.0" stroke-linejoin="round" stroke-linecap="butt" d="m71.23385 33.149605l132.04346 0" fill-rule="evenodd"/>
    <path fill="#000000" stroke="#000000" stroke-width="1.0" stroke-linecap="butt" d="m71.23385 33.149605l1.124588 -1.1245804l-3.0897675 1.1245804l3.0897675 1.1245842z" fill-rule="evenodd"/>
    <path fill="#000000" stroke="#000000" stroke-width="1.0" stroke-linecap="butt" d="m203.27731 33.149605l-1.124588 1.1245842l3.0897675 -1.1245842l-3.0897675 -1.1245804z" fill-rule="evenodd"/>
    <path fill="#000000" fill-opacity="0.0" d="m97.78741 6.0656166l79.21261 0l0 37.165356l-79.21261 0z" fill-rule="evenodd"/>
    <path fill="#000000" d="m112.24053 29.145617l-1.28125 0l0 -8.203125q-0.46875 0.4375 -1.21875 0.890625q-0.75 0.4375 -1.359375 0.65625l0 -1.25q1.078125 -0.5 1.890625 -1.21875q0.8125 -0.734375 1.140625 -1.40625l0.828125 0l0 10.53125zm10.072983 -1.234375l0 1.234375l-6.9375 0q-0.015625 -0.46875 0.15625 -0.890625q0.265625 -0.71875 0.84375 -1.40625q0.59375 -0.6875 1.6875 -1.578125q1.71875 -1.40625 2.3125 -2.21875q0.609375 -0.828125 0.609375 -1.5625q0 -0.765625 -0.5625 -1.28125q-0.546875 -0.53125 -1.421875 -0.53125q-0.921875 0 -1.484375 0.5625q-0.5625 0.5625 -0.5625 1.546875l-1.328125 -0.140625q0.140625 -1.484375 1.015625 -2.25q0.890625 -0.78125 2.390625 -0.78125q1.515625 0 2.390625 0.84375q0.875 0.828125 0.875 2.0625q0 0.640625 -0.265625 1.25q-0.25 0.59375 -0.84375 1.265625q-0.59375 0.671875 -1.984375 1.859375q-1.15625 0.96875 -1.484375 1.3125q-0.328125 0.34375 -0.546875 0.703125l5.140625 0zm2.0729828 1.234375l0 -1.46875l1.46875 0l0 1.46875q0 0.8125 -0.28125 1.296875q-0.28125 0.5 -0.90625 0.78125l-0.359375 -0.546875q0.40625 -0.1875 0.59375 -0.53125q0.203125 -0.34375 0.21875 -1.0l-0.734375 0zm3.3844757 -5.171875q0 -1.859375 0.37500763 -2.984375q0.390625 -1.140625 1.140625 -1.75q0.765625 -0.625 1.90625 -0.625q0.84375 0 1.46875 0.34375q0.640625 0.328125 1.0625 0.96875q0.421875 0.640625 0.65625 1.5625q0.234375 0.921875 0.234375 2.484375q0 1.84375 -0.390625 2.984375q-0.375 1.125 -1.125 1.75q-0.75 0.609375 -1.90625 0.609375q-1.515625 0 -2.390625 -1.078125q-1.0312576 -1.3125 -1.0312576 -4.265625zm1.3281326 0q0 2.578125 0.59375 3.4375q0.609375 0.859375 1.5 0.859375q0.890625 0 1.484375 -0.859375q0.609375 -0.859375 0.609375 -3.4375q0 -2.59375 -0.609375 -3.4375q-0.59375 -0.859375 -1.5 -0.859375q-0.890625 0 -1.421875 0.75q-0.65625 0.96875 -0.65625 3.546875zm9.619858 3.3125l0 -2.890625l-2.84375 0l0 -1.1875l2.84375 0l0 -2.859375l1.21875 0l0 2.859375l2.859375 0l0 1.1875l-2.859375 0l0 2.890625l-1.21875 0zm4.078125 1.859375l-6.921875 0l0 -1.203125l6.921875 0l0 1.203125zm1.1687622 -5.171875q0 -1.859375 0.375 -2.984375q0.390625 -1.140625 1.140625 -1.75q0.765625 -0.625 1.90625 -0.625q0.84375 0 1.46875 0.34375q0.640625 0.328125 1.0625 0.96875q0.421875 0.640625 0.65625 1.5625q0.234375 0.921875 0.234375 2.484375q0 1.84375 -0.390625 2.984375q-0.375 1.125 -1.125 1.75q-0.75 0.609375 -1.90625 0.609375q-1.515625 0 -2.390625 -1.078125q-1.03125 -1.3125 -1.03125 -4.265625zm1.328125 0q0 2.578125 0.59375 3.4375q0.609375 0.859375 1.5 0.859375q0.890625 0 1.484375 -0.859375q0.609375 -0.859375 0.609375 -3.4375q0 -2.59375 -0.609375 -3.4375q-0.59375 -0.859375 -1.5 -0.859375q-0.890625 0 -1.421875 0.75q-0.65625 0.96875 -0.65625 3.546875zm7.510483 5.171875l0 -1.46875l1.46875 0l0 1.46875q0 0.8125 -0.28125 1.296875q-0.28125 0.5 -0.90625 0.78125l-0.359375 -0.546875q0.40625 -0.1875 0.59375 -0.53125q0.203125 -0.34375 0.21875 -1.0l-0.734375 0zm3.3844757 -2.75l1.34375 -0.109375q0.15625 0.984375 0.703125 1.484375q0.546875 0.5 1.328125 0.5q0.921875 0 1.5625 -0.703125q0.65625 -0.703125 0.65625 -1.859375q0 -1.109375 -0.625 -1.734375q-0.625 -0.640625 -1.625 -0.640625q-0.625 0 -1.125 0.28125q-0.5 0.28125 -0.78125 0.734375l-1.203125 -0.15625l1.015625 -5.390625l5.21875 0l0 1.21875l-4.1875 0l-0.578125 2.828125q0.953125 -0.65625 1.984375 -0.65625q1.375 0 2.3125 0.953125q0.953125 0.953125 0.953125 2.4375q0 1.4375 -0.828125 2.46875q-1.015625 1.265625 -2.75 1.265625q-1.4375 0 -2.34375 -0.796875q-0.90625 -0.796875 -1.03125 -2.125z" fill-rule="nonzero"/>
    <path fill="#000000" fill-opacity="0.0" d="m170.0 227.50131l0 -150.92914" fill-rule="evenodd"/>
    <path stroke="#000000" stroke-width="1.0" stroke-linejoin="round" stroke-linecap="butt" d="m170.0 227.50131l0 -150.92914" fill-rule="evenodd"/>
    <path fill="#000000" fill-opacity="0.0" d="m67.37402 83.51194l102.01575 0" fill-rule="evenodd"/>
    <path stroke="#000000" stroke-width="1.0" stroke-linejoin="round" stroke-linecap="butt" d="m70.80111 83.51195l95.16157 0" fill-rule="evenodd"/>
    <path fill="#000000" stroke="#000000" stroke-width="1.0" stroke-linecap="butt" d="m70.80111 83.51195l1.1245804 -1.124588l-3.0897675 1.124588l3.0897675 1.1245804z" fill-rule="evenodd"/>
    <path fill="#000000" stroke="#000000" stroke-width="1.0" stroke-linecap="butt" d="m165.96268 83.51195l-1.124588 1.1245804l3.0897675 -1.1245804l-3.0897675 -1.124588z" fill-rule="evenodd"/>
    <path fill="#000000" fill-opacity="0.0" d="m100.35706 56.845146l48.44094 0l0 37.16535l-48.44094 0z" fill-rule="evenodd"/>
    <path fill="#000000" d="m123.095726 74.23765q-0.796875 -0.296875 -1.1875 -0.84375q-0.390625 -0.546875 -0.390625 -1.296875q0 -1.140625 0.8125 -1.921875q0.828125 -0.78125 2.203125 -0.78125q1.375 0 2.203125 0.796875q0.84375 0.796875 0.84375 1.9375q0 0.734375 -0.390625 1.28125q-0.375 0.53125 -1.15625 0.828125q0.96875 0.3125 1.46875 1.015625q0.5000076 0.703125 0.5000076 1.671875q0 1.34375 -0.9531326 2.265625q-0.9375 0.90625 -2.5 0.90625q-1.546875 0 -2.5 -0.90625q-0.953125 -0.921875 -0.953125 -2.296875q0 -1.03125 0.515625 -1.71875q0.515625 -0.6875 1.484375 -0.9375zm-0.265625 -2.1875q0 0.75 0.484375 1.21875q0.484375 0.46875 1.25 0.46875q0.734375 0 1.203125 -0.46875q0.484375 -0.46875 0.484375 -1.140625q0 -0.71875 -0.5 -1.1875q-0.484375 -0.484375 -1.203125 -0.484375q-0.734375 0 -1.234375 0.46875q-0.484375 0.46875 -0.484375 1.125zm-0.40625 4.84375q0 0.5625 0.25 1.078125q0.265625 0.5 0.78125 0.796875q0.515625 0.28125 1.109375 0.28125q0.921875 0 1.515625 -0.59375q0.609375 -0.59375 0.609375 -1.515625q0 -0.9375 -0.625 -1.53125q-0.609375 -0.609375 -1.546875 -0.609375q-0.90625 0 -1.5 0.609375q-0.59375 0.59375 -0.59375 1.484375z" fill-rule="nonzero"/>
    <path fill="#000000" fill-opacity="0.0" d="m182.5 213.5328l0 -135.52756" fill-rule="evenodd"/>
    <path stroke="#000000" stroke-width="1.0" stroke-linejoin="round" stroke-linecap="butt" d="m182.5 213.5328l0 -135.52756" fill-rule="evenodd"/>
    <path fill="#000000" fill-opacity="0.0" d="m171.10902 67.345146l48.44095 0l0 35.55905l-48.44095 0z" fill-rule="evenodd"/>
    <path fill="#000000" d="m192.76866 88.02014l0 1.125l-6.296875 0q-0.015625 -0.421875 0.140625 -0.8125q0.234375 -0.640625 0.765625 -1.265625q0.53125 -0.625 1.53125 -1.453125q1.5625 -1.265625 2.109375 -2.015625q0.546875 -0.75 0.546875 -1.40625q0 -0.703125 -0.5 -1.171875q-0.5 -0.484375 -1.296875 -0.484375q-0.859375 0 -1.375 0.515625q-0.5 0.5 -0.5 1.390625l-1.203125 -0.109375q0.125 -1.359375 0.921875 -2.0625q0.8125 -0.703125 2.171875 -0.703125q1.375 0 2.171875 0.765625q0.8125 0.75 0.8125 1.875q0 0.578125 -0.234375 1.140625q-0.234375 0.546875 -0.78125 1.15625q-0.546875 0.609375 -1.8125 1.671875q-1.046875 0.890625 -1.359375 1.21875q-0.296875 0.3125 -0.484375 0.625l4.671875 0zm1.8968506 1.125l0 -1.328125l1.328125 0l0 1.328125q0 0.734375 -0.265625 1.1875q-0.25 0.453125 -0.8125 0.703125l-0.328125 -0.5q0.375 -0.171875 0.546875 -0.484375q0.171875 -0.3125 0.1875 -0.90625l-0.65625 0zm3.0623627 -2.5l1.234375 -0.109375q0.140625 0.90625 0.640625 1.359375q0.5 0.453125 1.203125 0.453125q0.84375 0 1.421875 -0.640625q0.59375 -0.640625 0.59375 -1.6875q0 -1.0 -0.5625 -1.578125q-0.5625 -0.59375 -1.484375 -0.59375q-0.5625 0 -1.015625 0.265625q-0.453125 0.25 -0.71875 0.671875l-1.09375 -0.15625l0.921875 -4.890625l4.75 0l0 1.109375l-3.8125 0l-0.515625 2.5625q0.859375 -0.59375 1.796875 -0.59375q1.25 0 2.109375 0.875q0.859375 0.859375 0.859375 2.21875q0 1.296875 -0.75 2.234375q-0.921875 1.15625 -2.5 1.15625q-1.3125 0 -2.140625 -0.71875q-0.8125 -0.734375 -0.9375 -1.9375z" fill-rule="nonzero"/>
    <path fill="#000000" fill-opacity="0.0" d="m183.72835 99.01325l24.283463 0" fill-rule="evenodd"/>
    <path stroke="#000000" stroke-width="1.0" stroke-linejoin="round" stroke-linecap="butt" d="m187.15543 99.01326l17.429306 0" fill-rule="evenodd"/>
    <path fill="#000000" stroke="#000000" stroke-width="1.0" stroke-linecap="butt" d="m187.15543 99.01326l1.124588 -1.124588l-3.0897675 1.124588l3.0897675 1.1245804z" fill-rule="evenodd"/>
    <path fill="#000000" stroke="#000000" stroke-width="1.0" stroke-linecap="butt" d="m204.58473 99.01326l-1.124588 1.1245804l3.0897675 -1.1245804l-3.0897675 -1.124588z" fill-rule="evenodd"/>
    <path fill="#000000" fill-opacity="0.0" d="m214.62468 282.23358l0 -65.511795l37.165344 0l0 65.511795z" fill-rule="evenodd"/>
    <path fill="#202124" d="m229.57967 250.05305l6.484375 6.4218903q1.078125 -1.2656403 1.078125 -2.9531403q0 -1.890625 -1.328125 -3.234375q-1.34375 -1.34375 -3.234375 -1.34375q-1.71875 0 -3.0 1.109375zm5.921875 6.9687653l-6.421875 -6.4375153q-1.078125 1.28125 -1.078125 2.9375q0 1.890625 1.34375 3.2343903q1.34375 1.328125 3.234375 1.328125q1.65625 0 2.921875 -1.0625zm-8.328125 -8.343765l0.5 -0.53125l1.34375 1.34375q1.5 -1.359375 3.5625 -1.359375q2.21875 0 3.796875 1.578125q1.578125 1.578125 1.578125 3.8125q0 2.03125 -1.328125 3.5312653l1.4375 1.421875l-0.546875 0.53125l-1.4375 -1.421875q-1.5 1.3125 -3.5 1.3125q-2.234375 0 -3.8125 -1.578125q-1.578125 -1.5781403 -1.578125 -3.7968903q0 -2.0 1.3125 -3.515625l-1.328125 -1.328125z" fill-rule="nonzero"/>
    <path fill="#000000" d="m228.57967 246.83467l-1.234375 0l0 -6.796875l1.0 0q1.078125 1.0 2.84375 1.984375q1.765625 0.984375 3.625 1.515625q1.328125 0.390625 2.890625 0.5l0 1.328125q-1.234375 -0.03125 -2.984375 -0.484375q-1.765625 -0.46875 -3.390625 -1.34375q-1.625 -0.875 -2.75 -1.84375l0 5.140625z" fill-rule="nonzero"/>
    <path fill="#000000" fill-opacity="0.0" d="m214.62466 217.13205l31.307098 0" fill-rule="evenodd"/>
    <path stroke="#000000" stroke-width="1.0" stroke-linejoin="round" stroke-linecap="butt" d="m214.62466 217.13205l31.307098 0" fill-rule="evenodd"/>
    <path fill="#000000" fill-opacity="0.0" d="m214.62466 281.80005l31.307098 0" fill-rule="evenodd"/>
    <path stroke="#000000" stroke-width="1.0" stroke-linejoin="round" stroke-linecap="butt" d="m214.62466 281.80005l31.307098 0" fill-rule="evenodd"/>
    <path fill="#000000" fill-opacity="0.0" d="m242.86739 217.77359l0 64.31497" fill-rule="evenodd"/>
    <path stroke="#000000" stroke-width="1.0" stroke-linejoin="round" stroke-linecap="butt" d="m242.86739 221.20067l0 57.4608" fill-rule="evenodd"/>
    <path fill="#000000" stroke="#000000" stroke-width="1.0" stroke-linecap="butt" d="m242.86739 221.20067l1.124588 1.124588l-1.124588 -3.0897675l-1.1245728 3.0897675z" fill-rule="evenodd"/>
    <path fill="#000000" stroke="#000000" stroke-width="1.0" stroke-linecap="butt" d="m242.86739 278.66147l-1.1245728 -1.1246033l1.1245728 3.0897827l1.124588 -3.0897827z" fill-rule="evenodd"/>
    <path fill="#000000" fill-opacity="0.0" d="m3.1233597 267.9134l0 -37.385834l35.559055 0l0 37.385834z" fill-rule="evenodd"/>
    <path fill="#202124" d="m17.532734 249.75496l5.890625 5.828125q1.0 -1.140625 1.0 -2.6875q0 -1.71875 -1.21875 -2.9375q-1.234375 -1.21875 -2.953125 -1.21875q-1.546875 0 -2.71875 1.015625zm5.390625 6.3281403l-5.84375 -5.8593903q-0.984375 1.15625 -0.984375 2.671875q0 1.71875 1.21875 2.9375q1.21875 1.2187653 2.9375 1.2187653q1.515625 0 2.671875 -0.96875zm-7.578125 -7.5937653l0.46875 -0.46875l1.203125 1.203125q1.375 -1.21875 3.234375 -1.21875q2.03125 0 3.46875 1.4375q1.4375 1.421875 1.4375 3.453125q0 1.84375 -1.21875 3.2031403l1.296875 1.296875l-0.484375 0.5l-1.3125 -1.296875q-1.359375 1.1875 -3.1875 1.1875q-2.015625 0 -3.453125 -1.421875q-1.4375 -1.4375153 -1.4375 -3.4687653q0 -1.8125 1.1875 -3.203125l-1.203125 -1.203125z" fill-rule="nonzero"/>
    <path fill="#000000" d="m24.923359 243.1297l-2.28125 0l0 4.140625l-1.078125 0l-6.1875 -4.34375l0 -0.96875l6.1875 0l0 -1.28125l1.078125 0l0 1.28125l2.28125 0l0 1.171875zm-3.359375 0l-4.296875 0l4.296875 2.984375l0 -2.984375z" fill-rule="nonzero"/>
    <path fill="#000000" fill-opacity="0.0" d="m167.0 230.7559l-140.62991 0" fill-rule="evenodd"/>
    <path stroke="#000000" stroke-width="1.0" stroke-linejoin="round" stroke-linecap="butt" d="m167.0 230.7559l-140.62991 0" fill-rule="evenodd"/>
    <path fill="#000000" fill-opacity="0.0" d="m61.934383 267.66666l-35.559055 0" fill-rule="evenodd"/>
    <path stroke="#000000" stroke-width="1.0" stroke-linejoin="round" stroke-linecap="butt" d="m61.934383 267.66666l-35.559055 0" fill-rule="evenodd"/>
    <path fill="#000000" fill-opacity="0.0" d="m29.439701 231.12263l0 36.72441" fill-rule="evenodd"/>
    <path stroke="#000000" stroke-width="1.0" stroke-linejoin="round" stroke-linecap="butt" d="m29.439701 234.5497l0 29.870255" fill-rule="evenodd"/>
    <path fill="#000000" stroke="#000000" stroke-width="1.0" stroke-linecap="butt" d="m29.439701 234.54971l1.1245842 1.1245728l-1.1245842 -3.0897675l-1.1245823 3.0897675z" fill-rule="evenodd"/>
    <path fill="#000000" stroke="#000000" stroke-width="1.0" stroke-linecap="butt" d="m29.439701 264.41995l-1.1245823 -1.1246033l1.1245823 3.0897827l1.1245842 -3.0897827z" fill-rule="evenodd"/>
    <path fill="#000000" fill-opacity="0.0" d="m27.12336 271.37927l0 -35.370087l32.31496 0l0 35.370087z" fill-rule="evenodd"/>
    <path fill="#202124" d="m44.347733 260.64792l-0.125 -0.9375q0.796875 -0.15625 1.15625 -0.546875q0.34375 -0.390625 0.34375 -0.9375q0 -0.65625 -0.453125 -1.109375q-0.46875 -0.46875 -1.140625 -0.46875q-0.640625 0 -1.0625 0.421875q-0.421875 0.421875 -0.421875 1.078125q0 0.265625 0.109375 0.65625l-0.828125 -0.109375q0.015625 -0.09375 0.015625 -0.140625q0 -0.59375 -0.3125 -1.078125q-0.3125 -0.484375 -0.96875 -0.484375q-0.515625 0 -0.84375 0.359375q-0.34375 0.34375 -0.34375 0.890625q0 0.546875 0.34375 0.921875q0.34375 0.359375 1.03125 0.453125l-0.171875 0.9375q-0.9375 -0.171875 -1.453125 -0.78125q-0.515625 -0.609375 -0.515625 -1.5q0 -0.625 0.265625 -1.15625q0.265625 -0.53125 0.734375 -0.796875q0.453125 -0.28125 0.984375 -0.28125q0.484375 0 0.890625 0.265625q0.40625 0.265625 0.65625 0.78125q0.15625 -0.671875 0.65625 -1.046875q0.484375 -0.375 1.21875 -0.375q1.0 0 1.703125 0.734375q0.6875 0.71875 0.6875 1.828125q0 1.0 -0.59375 1.671875q-0.609375 0.65625 -1.5625 0.75zm2.015625 -6.4264984l-1.0625 0l0 -1.0625l1.0625 0q0.59375 0 0.953125 0.21875q0.359375 0.203125 0.5625 0.65625l-0.40625 0.25q-0.125 -0.296875 -0.390625 -0.4375q-0.25 -0.140625 -0.71875 -0.15625l0 0.53125zm-2.0 -2.4450226l-0.078125 -0.984375q0.71875 -0.109375 1.078125 -0.5q0.359375 -0.40625 0.359375 -0.96875q0 -0.671875 -0.5 -1.140625q-0.515625 -0.46875 -1.359375 -0.46875q-0.796875 0 -1.265625 0.453125q-0.46875 0.4375 -0.46875 1.171875q0 0.453125 0.21875 0.8125q0.203125 0.359375 0.53125 0.578125l-0.125 0.875l-3.921875 -0.734375l0 -3.796875l0.90625 0l0 3.046875l2.046875 0.40625q-0.484375 -0.6875 -0.484375 -1.4375q0 -1.0 0.703125 -1.6875q0.6875 -0.6875 1.765625 -0.6875q1.046875 0 1.796875 0.609375q0.921875 0.734375 0.921875 2.0q0 1.03125 -0.578125 1.703125q-0.578125 0.65625 -1.546875 0.75z" fill-rule="nonzero"/>
    <path fill="#000000" fill-opacity="0.0" d="m63.440247 238.67639l-21.354332 0" fill-rule="evenodd"/>
    <path stroke="#000000" stroke-width="1.0" stroke-linejoin="round" stroke-linecap="butt" d="m63.440247 238.67639l-21.354332 0" fill-rule="evenodd"/>
    <path fill="#000000" fill-opacity="0.0" d="m51.926712 239.45967l0 28.377945" fill-rule="evenodd"/>
    <path stroke="#000000" stroke-width="1.0" stroke-linejoin="round" stroke-linecap="butt" d="m51.92671 242.88675l0 21.523773" fill-rule="evenodd"/>
    <path fill="#000000" stroke="#000000" stroke-width="1.0" stroke-linecap="butt" d="m51.92671 242.88675l1.1245842 1.124588l-1.1245842 -3.0897675l-1.1245842 3.0897675z" fill-rule="evenodd"/>
    <path fill="#000000" stroke="#000000" stroke-width="1.0" stroke-linecap="butt" d="m51.92671 264.41052l-1.1245842 -1.1245728l1.1245842 3.0897522l1.1245842 -3.0897522z" fill-rule="evenodd"/>
    <path fill="#000000" fill-opacity="0.0" d="m53.965878 556.89764l0 0c0 -70.98816 57.547276 -128.53543 128.53543 -128.53543l0 0c34.08972 0 66.7832 13.542084 90.888275 37.647156c24.105072 24.105072 37.647156 56.798553 37.647156 90.888275l0 0c0 70.98816 -57.54727 128.5354 -128.53543 128.5354l0 0c-70.98816 0 -128.53543 -57.54724 -128.53543 -128.5354z" fill-rule="evenodd"/>
    <path stroke="#000000" stroke-width="1.0" stroke-linejoin="round" stroke-linecap="butt" d="m53.965878 556.89764l0 0c0 -70.98816 57.547276 -128.53543 128.53543 -128.53543l0 0c34.08972 0 66.7832 13.542084 90.888275 37.647156c24.105072 24.105072 37.647156 56.798553 37.647156 90.888275l0 0c0 70.98816 -57.54727 128.5354 -128.53543 128.5354l0 0c-70.98816 0 -128.53543 -57.54724 -128.53543 -128.5354z" fill-rule="evenodd"/>
    <path fill="#000000" fill-opacity="0.0" d="m149.55643 556.89764l0 0c0 -18.194946 14.749924 -32.944885 32.944885 -32.944885l0 0c8.737534 0 17.117188 3.4709473 23.295547 9.649353c6.17836 6.1783447 9.649338 14.557983 9.649338 23.295532l0 0c0 18.194946 -14.749924 32.944885 -32.944885 32.944885l0 0c-18.194962 0 -32.944885 -14.749939 -32.944885 -32.944885z" fill-rule="evenodd"/>
    <path stroke="#000000" stroke-width="1.0" stroke-linejoin="round" stroke-linecap="butt" d="m149.55643 556.89764l0 0c0 -18.194946 14.749924 -32.944885 32.944885 -32.944885l0 0c8.737534 0 17.117188 3.4709473 23.295547 9.649353c6.17836 6.1783447 9.649338 14.557983 9.649338 23.295532l0 0c0 18.194946 -14.749924 32.944885 -32.944885 32.944885l0 0c-18.194962 0 -32.944885 -14.749939 -32.944885 -32.944885z" fill-rule="evenodd"/>
    <path fill="#000000" fill-opacity="0.0" d="m163.91864 556.89764l0 0c0 -10.262939 8.319748 -18.582703 18.582672 -18.582703l0 0c4.9284363 0 9.655014 1.9578247 13.139938 5.442749c3.4849243 3.4849243 5.442734 8.211487 5.442734 13.139954l0 0c0 10.262939 -8.319748 18.582642 -18.582672 18.582642l0 0c-10.262924 0 -18.582672 -8.319702 -18.582672 -18.582642z" fill-rule="evenodd"/>
    <path stroke="#000000" stroke-width="1.0" stroke-linejoin="round" stroke-linecap="butt" d="m163.91864 556.89764l0 0c0 -10.262939 8.319748 -18.582703 18.582672 -18.582703l0 0c4.9284363 0 9.655014 1.9578247 13.139938 5.442749c3.4849243 3.4849243 5.442734 8.211487 5.442734 13.139954l0 0c0 10.262939 -8.319748 18.582642 -18.582672 18.582642l0 0c-10.262924 0 -18.582672 -8.319702 -18.582672 -18.582642z" fill-rule="evenodd"/>
    <path fill="#000000" fill-opacity="0.0" d="m169.36137 543.7577l26.267715 0" fill-rule="evenodd"/>
    <path stroke="#000000" stroke-width="1.0" stroke-linejoin="round" stroke-linecap="butt" d="m169.36137 543.7577l26.267715 0" fill-rule="evenodd"/>
    <path fill="#000000" fill-opacity="0.0" d="m243.93176 556.89764l0 0c0 -13.376587 10.843872 -24.220459 24.220459 -24.220459l0 0c6.4236755 0 12.584259 2.5517578 17.126465 7.093994c4.5422363 4.5422363 7.0940247 10.70282 7.0940247 17.126465l0 0c0 13.376587 -10.843872 24.220459 -24.22049 24.220459l0 0c-13.376587 0 -24.220459 -10.843872 -24.220459 -24.220459z" fill-rule="evenodd"/>
    <path stroke="#000000" stroke-width="1.0" stroke-linejoin="round" stroke-linecap="butt" d="m243.93176 556.89764l0 0c0 -13.376587 10.843872 -24.220459 24.220459 -24.220459l0 0c6.4236755 0 12.584259 2.5517578 17.126465 7.093994c4.5422363 4.5422363 7.0940247 10.70282 7.0940247 17.126465l0 0c0 13.376587 -10.843872 24.220459 -24.22049 24.220459l0 0c-13.376587 0 -24.220459 -10.843872 -24.220459 -24.220459z" fill-rule="evenodd"/>
    <path fill="#000000" fill-opacity="0.0" d="m253.38954 546.8791l4.489517 -4.489563l10.3414 10.341431l10.341431 -10.341431l4.489502 4.489563l-10.3414 10.34137l10.3414 10.341431l-4.489502 4.489502l-10.341431 -10.34137l-10.3414 10.34137l-4.489517 -4.489502l10.341415 -10.341431z" fill-rule="evenodd"/>
    <path stroke="#000000" stroke-width="1.0" stroke-linejoin="round" stroke-linecap="butt" d="m253.38954 546.8791l4.489517 -4.489563l10.3414 10.341431l10.341431 -10.341431l4.489502 4.489563l-10.3414 10.34137l10.3414 10.341431l-4.489502 4.489502l-10.341431 -10.34137l-10.3414 10.34137l-4.489517 -4.489502l10.341415 -10.341431z" fill-rule="evenodd"/>
    <path fill="#000000" fill-opacity="0.0" d="m72.561676 556.7362l0 0c0 -13.376587 10.84388 -24.220459 24.220474 -24.220459l0 0c6.423668 0 12.584244 2.5518188 17.126465 7.093994c4.5422134 4.5422363 7.0940094 10.70282 7.0940094 17.126465l0 0c0 13.376587 -10.843872 24.220459 -24.220474 24.220459l0 0c-13.376595 0 -24.220474 -10.843872 -24.220474 -24.220459z" fill-rule="evenodd"/>
    <path stroke="#000000" stroke-width="1.0" stroke-linejoin="round" stroke-linecap="butt" d="m72.561676 556.7362l0 0c0 -13.376587 10.84388 -24.220459 24.220474 -24.220459l0 0c6.423668 0 12.584244 2.5518188 17.126465 7.093994c4.5422134 4.5422363 7.0940094 10.70282 7.0940094 17.126465l0 0c0 13.376587 -10.843872 24.220459 -24.220474 24.220459l0 0c-13.376595 0 -24.220474 -10.843872 -24.220474 -24.220459z" fill-rule="evenodd"/>
    <path fill="#000000" fill-opacity="0.0" d="m82.01946 546.71765l4.489525 -4.489502l10.341408 10.34137l10.3414 -10.34137l4.4895325 4.489502l-10.3414 10.341431l10.3414 10.34137l-4.4895325 4.489563l-10.3414 -10.341431l-10.341408 10.341431l-4.489525 -4.489563l10.3414 -10.34137z" fill-rule="evenodd"/>
    <path stroke="#000000" stroke-width="1.0" stroke-linejoin="round" stroke-linecap="butt" d="m82.01946 546.71765l4.489525 -4.489502l10.341408 10.34137l10.3414 -10.34137l4.4895325 4.489502l-10.3414 10.341431l10.3414 10.34137l-4.4895325 4.489563l-10.3414 -10.341431l-10.341408 10.341431l-4.489525 -4.489563l10.3414 -10.34137z" fill-rule="evenodd"/>
    <path fill="#000000" fill-opacity="0.0" d="m163.91339 466.7874l0 0c0 -10.262939 8.319748 -18.582703 18.582672 -18.582703l0 0c4.9284363 0 9.655014 1.9578247 13.139938 5.442749c3.4849243 3.4849243 5.442734 8.211517 5.442734 13.139954l0 0c0 10.262909 -8.319748 18.582672 -18.582672 18.582672l0 0c-10.262924 0 -18.582672 -8.319763 -18.582672 -18.582672zm2.0686188 0l0 0c0 9.120453 7.3936005 16.514038 16.514053 16.514038c9.120453 0 16.514053 -7.393585 16.514053 -16.514038l0 0c0 -9.120483 -7.3936005 -16.514069 -16.514053 -16.514069l0 0c-9.120453 0 -16.514053 7.393585 -16.514053 16.514069z" fill-rule="evenodd"/>
    <path stroke="#000000" stroke-width="1.0" stroke-linejoin="round" stroke-linecap="butt" d="m163.91339 466.7874l0 0c0 -10.262939 8.319748 -18.582703 18.582672 -18.582703l0 0c4.9284363 0 9.655014 1.9578247 13.139938 5.442749c3.4849243 3.4849243 5.442734 8.211517 5.442734 13.139954l0 0c0 10.262909 -8.319748 18.582672 -18.582672 18.582672l0 0c-10.262924 0 -18.582672 -8.319763 -18.582672 -18.582672zm2.0686188 0l0 0c0 9.120453 7.3936005 16.514038 16.514053 16.514038c9.120453 0 16.514053 -7.393585 16.514053 -16.514038l0 0c0 -9.120483 -7.3936005 -16.514069 -16.514053 -16.514069l0 0c-9.120453 0 -16.514053 7.393585 -16.514053 16.514069z" fill-rule="evenodd"/>
    <path fill="#000000" fill-opacity="0.0" d="m163.91864 647.0079l0 0c0 -10.262939 8.319748 -18.582703 18.582672 -18.582703l0 0c4.9284363 0 9.655014 1.9578247 13.139938 5.442749c3.4849243 3.4849243 5.442734 8.211548 5.442734 13.139954l0 0c0 10.262939 -8.319748 18.582703 -18.582672 18.582703l0 0c-10.262924 0 -18.582672 -8.319763 -18.582672 -18.582703zm2.0686188 0l0 0c0 9.120483 7.3936005 16.514038 16.514053 16.514038c9.120453 0 16.514053 -7.3935547 16.514053 -16.514038l0 0c0 -9.120483 -7.3936005 -16.514038 -16.514053 -16.514038l0 0c-9.120453 0 -16.514053 7.3935547 -16.514053 16.514038z" fill-rule="evenodd"/>
    <path stroke="#000000" stroke-width="1.0" stroke-linejoin="round" stroke-linecap="butt" d="m163.91864 647.0079l0 0c0 -10.262939 8.319748 -18.582703 18.582672 -18.582703l0 0c4.9284363 0 9.655014 1.9578247 13.139938 5.442749c3.4849243 3.4849243 5.442734 8.211548 5.442734 13.139954l0 0c0 10.262939 -8.319748 18.582703 -18.582672 18.582703l0 0c-10.262924 0 -18.582672 -8.319763 -18.582672 -18.582703zm2.0686188 0l0 0c0 9.120483 7.3936005 16.514038 16.514053 16.514038c9.120453 0 16.514053 -7.3935547 16.514053 -16.514038l0 0c0 -9.120483 -7.3936005 -16.514038 -16.514053 -16.514038l0 0c-9.120453 0 -16.514053 7.3935547 -16.514053 16.514038z" fill-rule="evenodd"/>
    <path fill="#000000" fill-opacity="0.0" d="m212.62466 466.8819l153.7638 0" fill-rule="evenodd"/>
    <path stroke="#000000" stroke-width="1.0" stroke-linejoin="round" stroke-linecap="butt" d="m212.62466 466.8819l153.7638 0" fill-rule="evenodd"/>
    <path fill="#000000" fill-opacity="0.0" d="m212.62466 646.9052l153.7638 0" fill-rule="evenodd"/>
    <path stroke="#000000" stroke-width="1.0" stroke-linejoin="round" stroke-linecap="butt" d="m212.62466 646.9052l153.7638 0" fill-rule="evenodd"/>
    <path fill="#000000" fill-opacity="0.0" d="m360.6943 467.41785l0 179.02362" fill-rule="evenodd"/>
    <path stroke="#000000" stroke-width="1.0" stroke-linejoin="round" stroke-linecap="butt" d="m360.6943 470.8449l0 172.16943" fill-rule="evenodd"/>
    <path fill="#000000" stroke="#000000" stroke-width="1.0" stroke-linecap="butt" d="m360.6943 470.8449l1.1245728 1.1245728l-1.1245728 -3.0897522l-1.1245728 3.0897522z" fill-rule="evenodd"/>
    <path fill="#000000" stroke="#000000" stroke-width="1.0" stroke-linecap="butt" d="m360.6943 643.01434l-1.1245728 -1.1245728l1.1245728 3.0897827l1.1245728 -3.0897827z" fill-rule="evenodd"/>
    <path fill="#000000" fill-opacity="0.0" d="m331.47244 580.8976l0 -56.944885l37.165344 0l0 56.944885z" fill-rule="evenodd"/>
    <path fill="#202124" d="m354.55243 555.1231l0 1.28125l-8.203125 0q0.4375 0.46875 0.890625 1.21875q0.4375 0.75 0.65625 1.359375l-1.25 0q-0.5 -1.078125 -1.21875 -1.890625q-0.734375 -0.8125 -1.40625 -1.140625l0 -0.828125l10.53125 0zm-9.125 -3.385437l-1.234375 0l0 -6.796875l1.0 0q1.078125 1.0 2.84375 1.984375q1.765625 0.984375 3.625 1.515625q1.328125 0.390625 2.890625 0.5l0 1.328125q-1.234375 -0.03125 -2.984375 -0.484375q-1.765625 -0.46875 -3.390625 -1.34375q-1.625 -0.875 -2.75 -1.84375l0 5.140625z" fill-rule="nonzero"/>
    <path fill="#000000" fill-opacity="0.0" d="m158.29012 466.7874l24.211197 0l0 -24.211212l0 0l0 24.211212l24.211197 0l0 0l-24.211197 0l0 24.211182l0 0l0 -24.211182l-24.211197 0z" fill-rule="evenodd"/>
    <path stroke="#000000" stroke-width="1.0" stroke-linejoin="round" stroke-linecap="butt" d="m158.29012 466.7874l24.211197 0l0 -24.211212l0 0l0 24.211212l24.211197 0l0 0l-24.211197 0l0 24.211182l0 0l0 -24.211182l-24.211197 0z" fill-rule="evenodd"/>
    <path fill="#000000" fill-opacity="0.0" d="m158.28487 647.0079l24.211197 0l0 -24.211182l0 0l0 24.211182l24.211197 0l0 0l-24.211197 0l0 24.211182l0 0l0 -24.211182l-24.211197 0z" fill-rule="evenodd"/>
    <path stroke="#000000" stroke-width="1.0" stroke-linejoin="round" stroke-linecap="butt" d="m158.28487 647.0079l24.211197 0l0 -24.211182l0 0l0 24.211182l24.211197 0l0 0l-24.211197 0l0 24.211182l0 0l0 -24.211182l-24.211197 0z" fill-rule="evenodd"/>
  </g>
</svg>
