<svg width="46" height="46" viewBox="0 0 46 46" xmlns="http://www.w3.org/2000/svg" xmlns:xlink="http://www.w3.org/1999/xlink"><defs><path id="a" d="M0 0h48v48H0z"/></defs><g fill="none" fill-rule="evenodd"><mask id="b" fill="#fff"><use xlink:href="#a"/></mask><g mask="url(#b)" fill="#2D2B30"><path d="M6 6H0v2h6v6h2V8h6V6H8V0H6v6z" opacity=".08"/><path d="M8 16v2H6v-2zm0 12v2H6v-2zm0 16v2H6v-2zm0-24v2H6v-2zm0 12v2H6v-2zm0-8v2H6v-2zm0 16v2H6v-2zm0-4v2H6v-2zM46 8h-2V6h2zM34 8h-2V6h2zM18 8h-2V6h2zm24 0h-2V6h2zM30 8h-2V6h2zm8 0h-2V6h2zM22 8h-2V6h2zm4 0h-2V6h2z" opacity=".03"/></g></g></svg>