<svg width="308" height="308" viewBox="0 0 308 308" xmlns="http://www.w3.org/2000/svg"><title>F3263745-66C6-4833-A2E5-179CFA872578</title><g fill="#FFF" fill-rule="evenodd" opacity=".2"><ellipse cx="135.643" cy="26.085" rx="5.217" ry="5.217"/><ellipse cx="172.162" cy="26.085" rx="5.217" ry="5.217"/><path d="M125.208 125.208c-14.383 0-26.085 11.702-26.085 26.086 0 14.383 11.702 26.085 26.085 26.085 14.384 0 26.086-11.702 26.086-26.085 0-14.384-11.702-26.086-26.086-26.086zm0 41.737c-8.628 0-15.65-7.022-15.65-15.651 0-8.63 7.022-15.651 15.65-15.651 8.63 0 15.652 7.022 15.652 15.65 0 8.63-7.023 15.652-15.652 15.652zm78.256 0h-36.52a5.219 5.219 0 0 0-5.216 5.217 5.219 5.219 0 0 0 5.217 5.217h36.519a5.219 5.219 0 0 0 5.217-5.217 5.219 5.219 0 0 0-5.217-5.217zm0-20.868h-31.302a5.219 5.219 0 0 0-5.217 5.217 5.219 5.219 0 0 0 5.217 5.217h31.302a5.219 5.219 0 0 0 5.217-5.217 5.219 5.219 0 0 0-5.217-5.217zm0-20.869h-31.302a5.219 5.219 0 0 0-5.217 5.218 5.219 5.219 0 0 0 5.217 5.217h31.302a5.219 5.219 0 0 0 5.217-5.217 5.219 5.219 0 0 0-5.217-5.218z"/><path d="M292.122 212.896c-.334-51.95-26.106-84.891-67.79-87.437v-13.137c0-7.277-5.921-13.199-13.2-13.199h-23.32v-15.65h15.652v-11.89l15.65-5.217V52.17h16.393c2.332 8.973 10.434 15.651 20.127 15.651 11.509 0 20.868-9.36 20.868-20.868 0-11.509-9.36-20.868-20.868-20.868-9.693 0-17.795 6.678-20.127 15.651h-16.392V27.541l-15.651-5.217V18.88c0-10.408-8.473-18.88-18.88-18.88H123.22c-10.408 0-18.88 8.472-18.88 18.88v3.444L88.688 27.54v14.195H72.297c-2.332-8.973-10.434-15.65-20.127-15.65-11.509 0-20.868 9.358-20.868 20.867S40.662 67.82 52.17 67.82c9.693 0 17.795-6.678 20.127-15.65H88.69v14.195l15.651 5.217v11.89h15.651v15.65h-23.32c-7.277 0-13.199 5.922-13.199 13.2v13.136c-41.684 2.546-67.456 35.486-67.79 87.437C6.323 218.311 0 228.412 0 239.983c0 9.944 4.565 19.079 12.531 25.052a5.214 5.214 0 0 0 7.304-1.043 5.214 5.214 0 0 0-1.043-7.304c-5.311-3.986-8.358-10.074-8.358-16.705 0-11.509 9.36-20.868 20.868-20.868 11.509 0 20.868 9.36 20.868 20.868 0 6.626-3.041 12.714-8.352 16.694-2.301 1.732-2.77 5.004-1.038 7.304a5.222 5.222 0 0 0 7.303 1.038c7.956-5.973 12.521-15.098 12.521-25.036 0-11.55-6.302-21.63-15.635-27.056.172-24.582 6.902-53.12 36.503-56.114v38.669c0 6.328 4.482 11.618 10.434 12.896v10.737H83.472a5.219 5.219 0 0 0-5.217 5.217v26.085a5.219 5.219 0 0 0 5.217 5.217h10.434v15.651h-5.984c-8.206 0-14.884 6.678-14.884 14.884v6.756c0 8.201 6.678 14.88 14.884 14.88h52.938V208.68h26.085v99.124h52.937c8.206 0 14.884-6.678 14.884-14.884v-6.756c0-8.201-6.678-14.879-14.884-14.879h-5.984v-15.651h10.434a5.219 5.219 0 0 0 5.217-5.217v-26.085a5.219 5.219 0 0 0-5.217-5.217h-10.434v-10.737c5.952-1.278 10.434-6.568 10.434-12.896v-38.669c29.601 2.995 36.331 31.532 36.503 56.114-9.333 5.426-15.635 15.505-15.635 27.056 0 9.938 4.565 19.063 12.516 25.042a5.221 5.221 0 0 0 7.303-1.039c1.732-2.3 1.263-5.571-1.038-7.303-5.305-3.986-8.347-10.074-8.347-16.7 0-11.509 9.36-20.868 20.868-20.868 11.509 0 20.868 9.36 20.868 20.868 0 6.63-3.047 12.719-8.363 16.705a5.218 5.218 0 0 0 6.26 8.347c7.972-5.973 12.537-15.108 12.537-25.052 0-11.571-6.323-21.672-15.682-27.087zM255.634 36.52c5.754 0 10.434 4.68 10.434 10.434 0 5.755-4.68 10.434-10.434 10.434S245.2 52.707 245.2 46.953s4.68-10.434 10.434-10.434zM52.17 57.387c-5.754 0-10.434-4.68-10.434-10.434S46.416 36.52 52.17 36.52c5.755 0 10.434 4.68 10.434 10.434 0 5.755-4.68 10.434-10.434 10.434zm156.51-22.323v23.784l-5.216 1.737V33.321l5.217 1.743zM99.124 58.843v-23.78l5.217-1.737V60.59l-5.217-1.747zm15.651 14.195V18.88c0-4.653 3.793-8.446 8.447-8.446h61.362c4.654 0 8.447 3.793 8.447 8.446v54.158h-78.256zm15.652 10.434h46.953v15.651h-46.953v-15.65zM36.618 208.681H26.19c1.409-34.772 17.107-70.06 57.283-72.861v10.47c-28.625 2.39-45.45 24.75-46.854 62.39zM88.69 245.2v-15.651h20.868v15.65H88.69zm41.737 52.17H87.922a4.45 4.45 0 0 1-4.45-4.45v-6.756a4.45 4.45 0 0 1 4.45-4.445h42.504v15.651zm0-26.085H104.34v-15.651h15.651v-36.519H104.34V208.68h26.086v62.604zm89.456 10.434a4.45 4.45 0 0 1 4.45 4.45v6.756a4.45 4.45 0 0 1-4.45 4.445H177.38v-15.65h42.503zm-.767-52.17v15.65h-20.868v-15.65h20.867zm-26.085-10.434h-5.217v36.519h15.651v15.651H177.38v-62.604h26.085v10.434H193.03zm20.868-23.633a2.77 2.77 0 0 1-2.765 2.765H96.67a2.77 2.77 0 0 1-2.765-2.765v-83.16a2.77 2.77 0 0 1 2.765-2.765h114.463a2.77 2.77 0 0 1 2.765 2.765v83.159zm57.288 13.199c-1.409-37.641-18.234-60.001-46.854-62.39V135.82c40.176 2.801 55.874 38.09 57.283 72.86h-10.43z"/><path d="M172.162 41.736a5.219 5.219 0 0 0-5.217 5.217c0 7.695-6.74 10.434-13.043 10.434-6.302 0-13.042-2.739-13.042-10.434a5.219 5.219 0 0 0-5.217-5.217 5.219 5.219 0 0 0-5.217 5.217c0 12.286 9.656 20.868 23.476 20.868 13.82 0 23.477-8.582 23.477-20.868a5.219 5.219 0 0 0-5.217-5.217z"/></g></svg>